<svg width="48" height="24" viewBox="0 0 48 24" fill="none" xmlns="http://www.w3.org/2000/svg">
<rect width="48" height="24" rx="12" fill="#FF6F11"/>
<path fill-rule="evenodd" clip-rule="evenodd" d="M31.6977 8.2988L31.6977 15.7007C31.6977 16.0888 31.5465 16.4537 31.2721 16.7281C30.9977 17.0025 30.6328 17.1537 30.2447 17.1537L18.6933 17.1537C17.8921 17.1537 17.2403 16.5019 17.2403 15.7007L17.2403 12.3313L12.4688 12.3313C12.2857 12.3312 12.1373 12.1828 12.1373 11.9998C12.1373 11.9082 12.1744 11.8254 12.2344 11.7654C12.2943 11.7054 12.3772 11.6683 12.4687 11.6683L17.2403 11.6683L17.2403 10.8189L15.201 10.8189C15.018 10.8189 14.8696 10.6705 14.8696 10.4875C14.8696 10.3959 14.9067 10.3131 14.9667 10.2531C15.0266 10.1931 15.1095 10.156 15.201 10.156L17.2403 10.156L17.2403 8.29883C17.2403 7.89825 17.4033 7.53501 17.6663 7.27192C17.9294 7.00882 18.2927 6.84588 18.6933 6.84586L30.2447 6.84584C31.0459 6.84584 31.6977 7.49765 31.6977 8.2988ZM17.9032 15.7007C17.9032 15.8309 17.9354 15.9535 17.9914 16.0619L22.3688 11.6846L18.2993 7.61505C18.063 7.75174 17.9032 8.00672 17.9032 8.29883L17.9032 15.7007ZM23.3804 10.3686L21.9903 10.3686L23.9103 12.2886C24.2184 12.5966 24.7196 12.5966 25.0276 12.2886L29.8074 7.50878L19.1305 7.5088L19.9816 8.35988L24.8824 8.35983C25.0655 8.35986 25.2139 8.50827 25.2139 8.69132C25.2139 8.87439 25.0654 9.02278 24.8824 9.0228L20.6445 9.0228L21.3274 9.70567L23.3804 9.70569C23.5634 9.70567 23.7118 9.85407 23.7118 10.0371C23.7118 10.2202 23.5634 10.3686 23.3804 10.3686ZM18.6933 16.4908L30.2447 16.4908C30.304 16.4908 30.3621 16.4841 30.4185 16.4715L29.4499 15.5029L29.4496 15.5029L26.0744 15.5029C25.8913 15.5029 25.7429 15.3544 25.7429 15.1714C25.7429 15.0798 25.78 14.997 25.84 14.937C25.9 14.877 25.9829 14.8399 26.0744 14.8399L28.787 14.8399L26.1004 12.1534L25.4964 12.7574C24.9299 13.3239 24.0081 13.3239 23.4416 12.7574L22.8376 12.1534L18.5199 16.471C18.5758 16.4836 18.6337 16.4908 18.6933 16.4908ZM30.6387 7.61505L26.5692 11.6846L30.9472 16.0626C31.0043 15.952 31.0348 15.8288 31.0347 15.7007L31.0347 8.29883C31.0347 8.00674 30.875 7.75176 30.6387 7.61505ZM26.2639 8.45692C26.3255 8.5185 26.3611 8.60374 26.3609 8.69109C26.3609 8.77821 26.3257 8.86345 26.2639 8.92527C26.2023 8.98686 26.1168 9.02222 26.0297 9.02222C25.9426 9.02222 25.8571 8.98686 25.7955 8.92527C25.7337 8.86345 25.6986 8.77821 25.6986 8.69109C25.6986 8.60398 25.734 8.5185 25.7955 8.45692C25.8574 8.39509 25.9426 8.35997 26.0297 8.35997C26.1171 8.35973 26.2021 8.39509 26.2639 8.45692ZM14.3142 10.4869C14.3142 10.3998 14.2788 10.3143 14.2173 10.2527C14.1557 10.1912 14.0702 10.1558 13.9831 10.1558C13.896 10.1558 13.8105 10.1912 13.7489 10.2527C13.6873 10.3143 13.652 10.3998 13.652 10.4869C13.652 10.574 13.6873 10.6595 13.7489 10.7211C13.8107 10.7829 13.896 10.818 13.9831 10.818C14.0704 10.8183 14.1557 10.7827 14.2173 10.7211C14.2788 10.6595 14.3144 10.5743 14.3142 10.4869ZM16.1102 13.1806C16.2933 13.1806 16.4417 13.329 16.4417 13.5121C16.4417 13.6951 16.2933 13.8435 16.1102 13.8436L13.9813 13.8436C13.7983 13.8436 13.6498 13.6952 13.6498 13.5121C13.6498 13.4206 13.687 13.3377 13.7469 13.2777C13.8069 13.2177 13.8898 13.1806 13.9813 13.1806L16.1102 13.1806Z" fill="white"/>
</svg>
