<svg width="384" height="499" viewBox="0 0 384 499" fill="none" xmlns="http://www.w3.org/2000/svg">
<path d="M382.566 192.519C379.751 209.915 372.654 226.4 360.433 241.619C355.289 248.03 349.758 254.073 344.195 260.057C343.711 260.578 343.226 261.095 342.742 261.622C329.003 276.386 315.233 291.036 306.613 310.466C299.014 327.592 294.107 347.925 286.978 366.569C281.903 379.832 275.707 392.247 266.617 402.046C245.178 425.154 208.883 435.491 179.944 434.8C143.176 433.918 112.18 415.922 86.9073 389.187C83.8229 385.929 80.8256 382.544 77.9156 379.033C74.1019 374.446 70.4349 369.672 66.9146 364.711C62.2527 358.163 57.8419 351.286 53.7114 344.141C48.6323 335.347 44.0281 326.286 39.9186 316.998C39.5492 316.168 39.1818 315.338 38.8206 314.493C-2.04693 220.063 2.35967 95.9493 93.1903 37.9327C113.183 25.1612 137.014 16.7299 161.625 11.8313C252.598 -6.27251 348.328 28.6047 378.09 134.523C381.335 146.07 383.317 157.416 383.848 168.479C384.261 176.515 383.831 184.572 382.566 192.519Z" fill="#F4F4F5"/>
<path d="M382.565 192.519C379.751 209.915 372.654 226.4 360.433 241.619C355.289 248.03 349.758 254.073 344.195 260.057C343.711 260.578 343.226 261.095 342.742 261.622C329.003 276.386 315.233 291.036 306.613 310.466C299.014 327.592 294.107 347.925 286.977 366.569C277.548 371.058 267.866 374.994 257.978 378.357C220.276 391.12 178.998 394.79 140.391 385.111C111.5 377.867 84.9229 363.487 59.5542 347.882C57.6156 346.686 55.652 345.447 53.7113 344.146C48.6322 335.351 44.028 326.29 39.9185 317.002C89.0617 324.404 139.471 306.157 183.182 281.681C229.54 255.721 271.923 222.483 320.591 201.187C340.135 192.642 364.129 186.288 382.565 192.519Z" fill="#ECEDEF"/>
<path d="M342.74 261.622C329.001 276.386 315.231 291.036 306.611 310.466C293.607 339.78 288.482 378.473 266.615 402.046C245.176 425.154 208.881 435.491 179.942 434.8C143.174 433.917 112.178 415.922 86.9052 389.187C83.8208 385.928 80.8235 382.544 77.9135 379.033C74.0998 374.446 70.4328 369.672 66.9125 364.711C56.0859 349.501 46.6209 332.538 38.8185 314.493C70.6902 321 103.201 327.619 135.193 329.852C209.441 335.035 282.853 306.371 342.74 261.622Z" fill="#E1E3E6"/>
<path d="M344.195 260.056C329.981 275.356 315.534 290.348 306.611 310.466C293.607 339.78 288.482 378.472 266.615 402.046C245.176 425.154 208.881 435.491 179.942 434.799C143.174 433.917 112.178 415.921 86.9052 389.187C89.342 389.984 91.7934 390.737 94.2509 391.429C137.439 403.586 185.771 396.005 223.161 371.212C250.429 353.131 271.232 327.112 293.601 303.236C308.363 287.482 325.02 271.157 344.195 260.056Z" fill="#D4D8DC"/>
<path opacity="0.08" d="M50.959 474.833C48.4474 475.3 45.7698 475.871 43.881 478.044C40.0327 482.467 41.9133 491.149 46.1642 494.73C50.4151 498.31 55.9343 498.269 61.0861 498.105L285.441 490.95C296.567 490.595 307.858 490.205 318.523 485.91C320.877 484.96 323.459 483.488 324.285 480.537C325.96 474.534 319.397 470.75 314.447 469.992C292.247 466.59 269.847 461.953 247.623 459.271C226.244 456.691 199.468 456.482 178.329 460.905C157.78 465.208 138.477 464.293 117.525 466.839C95.3406 469.54 72.9651 470.694 50.959 474.833Z" fill="#081A35"/>
<g opacity="0.1">
<path opacity="0.1" d="M53.5578 368.132C53.3793 368.132 53.2036 368.088 53.0466 368.003C52.8896 367.918 52.7564 367.796 52.659 367.646C21.5242 319.933 9.15119 261.331 0.0100126 210.15C-0.0277487 209.875 0.0421654 209.597 0.205087 209.372C0.368008 209.148 0.611311 208.996 0.884083 208.947C1.15686 208.898 1.43794 208.957 1.66848 209.11C1.89903 209.264 2.06117 209.501 2.12096 209.772C11.2248 260.746 23.5293 319.099 54.4544 366.484C54.561 366.645 54.6217 366.833 54.6302 367.026C54.6387 367.22 54.5946 367.412 54.5026 367.582C54.4106 367.752 54.2742 367.895 54.1078 367.994C53.9414 368.093 53.7514 368.145 53.5578 368.144V368.132Z" fill="#081A35"/>
</g>
<path d="M61.4078 341.505C61.2228 341.505 61.0408 341.458 60.8797 341.367C60.7185 341.276 60.5837 341.145 60.4883 340.986C50.9144 325.066 43.9386 307.723 39.8231 289.608C39.7917 289.47 39.7877 289.328 39.8113 289.189C39.8348 289.051 39.8855 288.918 39.9604 288.799C40.0353 288.679 40.1329 288.576 40.2477 288.495C40.3625 288.413 40.4922 288.355 40.6295 288.324C40.7667 288.292 40.9088 288.288 41.0476 288.312C41.1864 288.336 41.3192 288.386 41.4384 288.461C41.5576 288.536 41.6609 288.634 41.7424 288.748C41.8238 288.863 41.8819 288.993 41.9133 289.13C45.9781 307.024 52.8693 324.155 62.3273 339.88C62.425 340.043 62.4778 340.228 62.4802 340.418C62.4826 340.608 62.4346 340.795 62.3412 340.96C62.2477 341.126 62.112 341.263 61.948 341.359C61.7841 341.454 61.5977 341.505 61.4078 341.505Z" fill="white"/>
<path d="M77.432 364.489C77.2333 364.489 77.0386 364.433 76.8696 364.329C76.7006 364.224 76.564 364.075 76.4751 363.897C74.3185 359.616 71.6948 355.587 68.652 351.883C68.5626 351.774 68.4955 351.649 68.4546 351.514C68.4137 351.379 68.3998 351.237 68.4137 351.097C68.4276 350.957 68.469 350.82 68.5355 350.696C68.602 350.572 68.6924 350.462 68.8014 350.372C68.9104 350.283 69.036 350.216 69.171 350.175C69.3059 350.134 69.4476 350.12 69.5879 350.134C69.7282 350.148 69.8644 350.189 69.9888 350.256C70.1131 350.322 70.2231 350.413 70.3125 350.522C73.4566 354.348 76.1666 358.511 78.393 362.934C78.4744 363.098 78.5129 363.279 78.5047 363.462C78.4966 363.644 78.442 363.822 78.3463 363.977C78.2505 364.133 78.1167 364.261 77.9575 364.351C77.7982 364.44 77.6188 364.488 77.4361 364.489H77.432Z" fill="white"/>
<path d="M344.344 342.022C343.967 334.718 343.199 328.014 341.98 321.801C341.979 321.797 341.979 321.791 341.98 321.787C341.922 321.473 341.858 321.164 341.789 320.855C341.789 320.822 341.789 320.788 341.771 320.747C341.652 320.141 341.519 319.541 341.382 318.937C341.182 318.055 340.974 317.181 340.76 316.313C340.761 316.301 340.761 316.288 340.76 316.276C333.997 289.461 317.685 271.857 286.529 252.836C285.676 252.313 284.811 251.785 283.941 251.266C283.69 251.121 283.445 250.97 283.196 250.826C283.178 250.814 283.16 250.803 283.142 250.793C276.385 246.731 270.623 242.997 265.706 239.346C265.634 239.298 265.565 239.246 265.499 239.19V279.097C266.467 279.703 267.455 280.313 268.463 280.928C273.978 284.303 278.841 287.549 283.14 290.774C304.751 306.981 311.784 322.605 312.427 351.471C312.427 351.471 312.427 351.471 312.427 351.483C312.46 352.99 312.477 354.536 312.477 356.12C312.477 391.821 304.228 410.176 283.133 413.954C280.163 414.473 277.153 414.724 274.138 414.703C271.236 414.721 268.339 414.447 265.492 413.886C265.459 413.882 265.427 413.875 265.395 413.865C251.548 411.059 243.021 401.203 239.034 385.636C237.906 381.12 237.152 376.52 236.78 371.881C236.751 371.517 236.716 371.146 236.689 370.772C236.442 367.563 236.32 364.197 236.321 360.674L202.557 357.561C202.557 360.891 202.648 364.156 202.831 367.356C202.92 368.914 203.038 370.455 203.171 371.98C206.66 411.48 225.38 438.671 265.503 441.853C267.898 442.044 270.369 442.147 272.915 442.162C276.477 442.19 279.886 442.065 283.144 441.787C328.393 437.963 344.645 405.749 344.645 353.401C344.635 349.434 344.54 345.655 344.344 342.022ZM283.133 137.921C305.58 142.28 308.664 165.272 308.664 187.832V196.313H340.7V187.318C340.7 174.841 339.631 163.201 336.833 152.947C335.699 148.694 334.17 144.557 332.266 140.588C332.221 140.495 332.171 140.402 332.125 140.308C326.481 128.867 317.56 120.095 304.035 115.145C298.039 112.947 291.125 111.506 283.189 110.913C283.175 110.913 283.154 110.913 283.136 110.913C280.457 110.713 277.656 110.615 274.733 110.616C271.538 110.616 268.459 110.762 265.495 111.054V138.083C268.596 137.466 271.752 137.166 274.914 137.188C277.671 137.167 280.424 137.413 283.133 137.921ZM219.552 144.771L229.148 126.235C227.319 127.938 225.612 129.768 224.042 131.711C220.767 135.787 218.037 140.272 215.92 145.053C216.135 145.347 216.422 145.581 216.753 145.733C217.085 145.885 217.449 145.951 217.812 145.923C218.176 145.896 218.526 145.776 218.831 145.575C219.135 145.375 219.383 145.1 219.552 144.777V144.771ZM280.84 81.3305C278.171 80.2987 275.311 79.8507 272.454 80.0166L268.332 80.2657C268.245 80.2701 268.162 80.3029 268.096 80.3591C268.029 80.4153 267.983 80.4917 267.964 80.5767C267.946 80.6617 267.956 80.7504 267.992 80.8292C268.029 80.9081 268.091 80.9726 268.168 81.013L276.5 85.3365C276.802 85.6523 276.97 86.0723 276.971 86.5093C276.973 86.7726 276.915 87.0329 276.803 87.2709C276.69 87.5088 276.525 87.7183 276.32 87.8835C276.115 88.0488 275.875 88.1656 275.619 88.2252C275.363 88.2849 275.096 88.2858 274.839 88.2279L271.649 87.5305L265.492 86.3931V475.537C265.493 475.895 265.566 476.25 265.707 476.58C265.848 476.91 266.055 477.207 266.315 477.454C266.574 477.702 266.881 477.894 267.217 478.019C267.553 478.145 267.911 478.2 268.27 478.183L280.618 477.575C281.298 477.539 281.939 477.242 282.407 476.747C282.875 476.252 283.135 475.596 283.133 474.914V81.3492L280.84 81.3305Z" fill="#F07222"/>
<path d="M240.022 173.433C239.738 176.595 239.607 179.963 239.63 183.519C239.777 210.754 245.367 224.185 265.492 239.19V279.097C243.202 265.265 227.093 253.17 217.73 234.914C212.204 224.142 209.028 211.229 208.321 194.547C208.221 192.16 208.17 189.695 208.169 187.151C208.169 186.426 208.174 185.705 208.184 184.987C208.391 169.44 210.973 156.102 215.864 145.194L217.263 149.213L219.556 144.777L229.152 126.241C237.895 118.088 249.346 113.005 263.431 111.27C264.112 111.187 264.804 111.111 265.507 111.043V138.073C249.763 141.329 241.807 153.395 240.022 173.433Z" fill="#F07222"/>
<path d="M219.552 144.777L217.258 149.213L215.859 145.194C215.88 145.15 215.899 145.109 215.918 145.065C216.134 145.359 216.422 145.593 216.754 145.744C217.086 145.896 217.451 145.96 217.815 145.931C218.179 145.903 218.529 145.781 218.833 145.579C219.137 145.377 219.384 145.101 219.552 144.777Z" fill="#F07222"/>
<g opacity="0.53">
<path opacity="0.53" d="M265.492 416.94C244.084 416.575 235.767 397.948 232.544 383.998C231.854 381.032 231.4 378.275 231.091 375.955C230.881 374.359 230.182 372.866 229.091 371.683C227.999 370.5 226.568 369.683 224.994 369.346L215.947 367.405C212.851 366.738 209.668 366.575 206.521 366.923L202.812 367.339C202.625 364.145 202.533 360.879 202.536 357.542L236.302 360.67C236.302 364.186 236.426 367.552 236.672 370.768C236.697 371.141 236.73 371.511 236.761 371.876C237.136 376.515 237.89 381.115 239.015 385.631C243.013 401.199 251.538 411.06 265.376 413.86L265.492 416.94Z" fill="#C43549"/>
</g>
<g opacity="0.58">
<path opacity="0.58" d="M283.134 416.941V413.956C304.228 410.179 312.477 391.822 312.477 356.122C312.477 354.538 312.46 352.992 312.427 351.485C322.15 416.47 283.134 416.941 283.134 416.941Z" fill="#A62C3B"/>
<path opacity="0.58" d="M265.725 243.698C265.646 243.661 265.569 243.626 265.493 243.584C232.432 227.629 240.022 173.427 240.022 173.427C239.738 176.589 239.608 179.949 239.632 183.508C239.777 210.743 245.367 224.177 265.493 239.184V193.04L265.7 239.352L265.725 243.698Z" fill="#A62C3B"/>
<path opacity="0.58" d="M265.492 111.052V114.134C265.492 114.134 242.637 114.663 224.044 131.717C233.608 119.892 247.472 112.812 265.492 111.052Z" fill="#A62C3B"/>
</g>
<path opacity="0.92" d="M341.439 318.937C332.721 281.326 283.187 254.002 283.187 254.002V250.791L283.984 251.266C284.858 251.787 285.724 252.304 286.575 252.833C318.75 272.49 335.093 290.612 341.439 318.937Z" fill="#FECE62"/>
<path opacity="0.92" d="M332.318 140.586C313.546 113.467 283.187 114.418 283.187 114.418V110.904C291.145 111.494 298.074 112.938 304.089 115.145C317.722 120.134 326.674 129.008 332.318 140.586Z" fill="#FECE62"/>
<path d="M201.321 330.087L206.739 354.667L221.107 351.255L218.639 318.833L201.321 330.087Z" fill="#6A8295"/>
<path d="M89.9418 441.234C90.577 442.064 89.9418 460.079 89.9418 460.079H107.234L111.58 432.224L89.9418 441.234Z" fill="#6A8295"/>
<path d="M221.109 331.278L212.281 333.624L211.953 333.713L199.366 337.055C197.384 336.154 195.298 320.259 194.621 317.481C192.799 309.983 191 302.477 189.225 294.965C185.881 280.668 182.649 266.292 180.322 251.791C180.211 251.093 179.94 250.43 179.53 249.854C179.12 249.278 178.583 248.804 177.961 248.47C177.338 248.135 176.646 247.949 175.94 247.926C175.233 247.902 174.531 248.042 173.888 248.335L143.226 262.242L111.576 443.395C111.522 443.707 111.359 443.991 111.116 444.195C110.873 444.399 110.565 444.511 110.248 444.511H88.5553C88.3761 444.511 88.1987 444.476 88.0335 444.406C87.8683 444.337 87.7186 444.235 87.5931 444.107C87.4677 443.979 87.369 443.828 87.3029 443.661C87.2368 443.495 87.2046 443.316 87.2082 443.137L87.2393 441.645L90.768 272.986L90.4587 269.382L89.1967 254.774C89.1199 253.898 89.0223 253.022 88.8999 252.152C88.8397 251.714 88.7753 251.276 88.7048 250.842C88.7031 250.834 88.7031 250.826 88.7048 250.818C88.6757 250.649 88.6487 250.477 88.6176 250.309C88.5864 250.141 88.5595 249.973 88.5263 249.803C88.4744 249.518 88.4183 249.234 88.3602 248.949C88.327 248.775 88.2896 248.603 88.2502 248.428C88.1921 248.134 88.1257 247.843 88.0572 247.553C88.0094 247.335 87.9575 247.121 87.9015 246.903L83.91 230.661L83.5219 229.081L83.3558 228.409C83.5032 228.241 83.6547 228.077 83.8042 227.911C83.8042 227.911 83.8041 227.911 83.8166 227.894C84.4663 227.178 85.1305 226.476 85.8154 225.798C85.969 225.64 86.1247 225.49 86.2804 225.337C86.8339 224.796 87.4006 224.267 87.9804 223.751C88.107 223.641 88.2315 223.527 88.3602 223.417C88.7131 223.105 89.0722 222.794 89.4354 222.495C89.616 222.342 89.7966 222.192 89.9813 222.043C90.166 221.893 90.3466 221.744 90.5334 221.599C90.7202 221.453 90.9029 221.304 91.0897 221.161C91.2765 221.017 91.4633 220.872 91.6501 220.729C91.8369 220.586 92.0279 220.442 92.2168 220.301C92.5966 220.021 92.9785 219.741 93.3646 219.471L93.9479 219.066C94.143 218.931 94.336 218.796 94.5353 218.666L95.1227 218.273L95.7205 217.887C95.928 217.759 96.119 217.634 96.3183 217.507C96.5175 217.381 96.7189 217.256 96.9202 217.134C98.333 216.27 99.7756 215.462 101.248 214.709C109.71 210.371 119.005 207.804 128.418 206.455C138.002 205.072 148.22 205.037 156.834 209.458C163.146 212.702 166.509 216.901 171.295 209.56C172.48 207.746 173.578 205.824 174.824 204.028C174.824 203.97 174.805 203.914 174.797 203.854L175.004 203.765L183.77 199.896L196.207 194.412C198.073 193.583 200.091 193.153 202.133 193.15H202.538C202.822 193.15 203.109 193.172 203.389 193.197L203.729 193.233H203.769C203.897 193.245 204.026 193.264 204.153 193.283C204.279 193.301 204.418 193.32 204.551 193.345C205.693 193.54 206.808 193.869 207.872 194.327L208.188 194.468C208.238 194.488 208.289 194.511 208.337 194.536C209.045 211.22 212.221 224.129 217.746 234.901L218.655 260.868L221.109 331.278Z" fill="#1D2F49"/>
<path d="M155.136 43.1777L153.083 46.9409C152.739 47.5708 152.271 48.1242 151.706 48.5674C151.142 49.0106 150.493 49.3343 149.8 49.5188L148.403 49.8925L148.025 54.1538C147.82 56.4477 146.969 58.6365 145.569 60.4658L141.345 65.9933L140.32 67.3321C139.195 68.8034 137.749 69.9985 136.093 70.8265C134.436 71.6545 132.612 72.0935 130.76 72.1102C128.908 72.1268 127.077 71.7205 125.406 70.9224C123.734 70.1242 122.267 68.9552 121.116 67.5044L120.633 66.8983L120.284 66.4603L115.51 60.4409C114.074 58.6356 113.182 56.4595 112.936 54.1662L112.701 51.9411L112.494 49.9277L110.985 49.5126C110.689 49.4337 110.401 49.3288 110.123 49.1992C109.981 49.1381 109.843 49.0688 109.708 48.9916C108.934 48.5436 108.285 47.9066 107.824 47.1401C107.784 47.0758 107.747 47.0177 107.712 46.9533L105.632 43.1777C105.208 42.3994 104.986 41.5274 104.986 40.6413C104.986 40.4123 104.999 40.1835 105.028 39.9563C105.211 38.5733 105.931 37.3181 107.034 36.4632C108.136 35.6083 109.531 35.2226 110.916 35.3899L110.898 35.2155V35.1574C110.898 35.0806 110.881 34.9996 110.877 34.9228C110.811 34.1491 110.816 33.3709 110.894 32.5981L111.749 24.4014C112.06 21.4088 113.469 18.6378 115.704 16.6237C117.939 14.6095 120.841 13.4951 123.85 13.4959H137.659C139.904 13.4915 142.106 14.1117 144.019 15.2872C145.323 16.0882 146.465 17.1258 147.388 18.3467C148.979 20.456 149.838 23.0272 149.835 25.6696V33.3495C149.835 33.7086 149.816 34.0697 149.787 34.4309L149.698 35.4252C149.909 35.3929 150.122 35.3749 150.335 35.3712C151.174 35.3451 152.007 35.5194 152.766 35.8797C153.415 36.1895 153.994 36.6284 154.468 37.1695C154.942 37.7106 155.3 38.3426 155.522 39.027C155.743 39.7113 155.823 40.4336 155.756 41.1498C155.689 41.8659 155.477 42.5609 155.132 43.1922L155.136 43.1777Z" fill="#FFD5CC"/>
<path opacity="0.5" d="M218.639 260.881C218.618 260.854 218.603 260.827 218.581 260.798C211.295 252.055 196.765 197.851 179.915 225.673C173.126 236.882 156.55 244.163 143.674 239.433C140.196 238.154 137.047 235.962 133.431 235.17C129.008 234.198 124.365 235.448 120.313 237.453C116.261 239.458 112.623 242.227 108.741 244.545C103.018 247.965 96.7797 250.437 90.2677 251.866C90.097 251.905 89.9203 251.909 89.748 251.878C89.5757 251.847 89.4114 251.782 89.2648 251.686C89.1182 251.591 88.9924 251.467 88.8947 251.321C88.7971 251.176 88.7297 251.013 88.6964 250.841C88.6948 250.833 88.6948 250.824 88.6964 250.816C88.6674 250.648 88.6404 250.48 88.6093 250.307C88.5781 250.135 88.5511 249.971 88.5179 249.801C88.466 249.516 88.41 249.232 88.3519 248.948C88.3187 248.773 88.2813 248.599 88.2419 248.427C88.1838 248.132 88.1173 247.841 88.0488 247.551C88.0011 247.333 87.9492 247.119 87.8932 246.901L83.9017 230.659L83.5135 229.08C83.4642 228.876 83.4641 228.664 83.5132 228.46C83.5623 228.257 83.6592 228.068 83.7958 227.909C83.7958 227.909 83.7958 227.909 83.8083 227.892C84.458 227.176 85.1222 226.475 85.8071 225.796C85.9607 225.638 86.1164 225.489 86.2721 225.335C86.8256 224.794 87.3922 224.265 87.972 223.749C88.0987 223.639 88.2232 223.525 88.3519 223.415C88.7047 223.104 89.0638 222.792 89.4271 222.494C89.6077 222.34 89.7882 222.19 89.973 222.041C90.1577 221.892 90.3383 221.742 90.5251 221.597C90.7119 221.452 90.8946 221.302 91.0814 221.159C91.2682 221.016 91.455 220.87 91.6418 220.727C91.8286 220.584 92.0196 220.441 92.2085 220.3C92.5883 220.019 92.9702 219.739 93.3563 219.469L93.9395 219.065C94.1347 218.93 94.3277 218.795 94.5269 218.664L95.1144 218.272L95.7122 217.886C95.9197 217.757 96.1107 217.632 96.31 217.506C96.5092 217.379 96.7106 217.255 96.9119 217.132C98.3247 216.269 99.7673 215.461 101.24 214.708C109.702 210.37 118.997 207.802 128.41 206.453C137.993 205.07 148.212 205.035 156.826 209.456C163.138 212.701 166.5 216.9 171.287 209.558C172.472 207.744 173.57 205.822 174.815 204.026C174.815 203.968 174.797 203.912 174.788 203.852L174.996 203.763L183.761 199.894L196.199 194.41C198.065 193.581 200.083 193.152 202.125 193.148H202.529C202.814 193.148 203.1 193.171 203.381 193.196L203.721 193.231H203.76C203.889 193.243 204.018 193.262 204.144 193.281C204.271 193.299 204.41 193.318 204.543 193.343C205.685 193.538 206.8 193.867 207.864 194.325L208.179 194.466C208.229 194.487 208.281 194.51 208.329 194.534C209.037 211.219 212.212 224.127 217.738 234.9L218.639 260.881Z" fill="#081A35"/>
<path d="M99.2844 223.401V236.062C99.2861 238.555 98.5971 241 97.2938 243.125C95.9906 245.25 94.124 246.972 91.9013 248.101L88.518 249.818C88.3395 248.846 88.1298 247.877 87.8953 246.912L83.9017 230.67L99.2844 223.401Z" fill="#081A35"/>
<path opacity="0.35" d="M145.096 23.2515C144.741 22.3444 144.345 21.4104 143.604 20.7814C142.701 20.0155 141.451 19.837 140.283 19.7125C136.702 19.3327 133.102 19.1643 129.502 19.2081C125.143 19.26 120.394 19.7893 117.255 22.8197C114.91 25.0822 113.635 28.5921 110.64 29.8769C110.534 29.9524 110.412 30.002 110.284 30.0217C110.155 30.0413 110.024 30.0306 109.9 29.9902C109.777 29.9498 109.664 29.8809 109.572 29.7891C109.48 29.6974 109.411 29.5853 109.37 29.4618C108.201 27.4318 108.702 24.8954 109.272 22.6122C109.968 19.8432 110.773 16.9768 112.672 14.8451C114.354 12.9562 116.726 11.8395 119.092 10.947C124.547 8.89709 130.308 7.78272 136.133 7.65084C139.056 7.58649 142.099 7.80236 144.644 9.23041C147.965 11.0881 149.939 14.7724 150.605 18.5148C151.271 22.2572 150.812 26.1013 150.262 29.8624C149.926 32.1996 148.463 33.362 147.601 30.8795C146.717 28.3368 146.074 25.7422 145.096 23.2515Z" fill="#FF888A"/>
<path d="M152.461 15.1564C152.636 14.7973 152.769 14.4191 152.857 14.0293C153.064 13.0097 153.041 11.9568 152.791 10.947C152.653 10.3598 152.476 9.78279 152.259 9.22005C151.877 7.3914 150.875 5.3116 148.552 3.59918C148.024 2.99691 147.454 2.43169 146.848 1.90753C145.947 1.12747 144.876 0.57004 143.72 0.280208C142.558 -0.00415638 141.372 0.00830262 140.191 0C139.018 0.019936 137.846 0.112827 136.684 0.278137C135.817 0.416514 134.96 0.588791 134.112 0.794973C131.677 1.1465 129.271 1.67935 126.916 2.38907C126.5 2.4638 126.073 2.54268 125.654 2.63193C124.504 2.88953 123.367 3.20543 122.249 3.57843C121.131 3.95464 120.034 4.39471 118.966 4.89647C117.903 5.40293 116.847 5.8907 115.769 6.3598C113.638 7.33121 111.46 8.27978 109.511 9.63519C108.535 10.3073 107.63 11.0788 106.813 11.9371C106.395 12.3665 106.067 12.8744 105.848 13.4316C105.732 13.7062 105.673 14.0012 105.673 14.2992C105.673 14.5972 105.732 14.8921 105.848 15.1668C105.663 14.6091 105.704 14.0016 105.96 13.4731C106.201 12.9472 106.545 12.4745 106.971 12.0824C107.644 11.4233 108.371 10.8213 109.144 10.2828C108.146 11.3974 107.61 12.8495 107.643 14.3448L107.664 15.2332L107.753 19.3326C107.753 19.5838 107.774 19.8329 107.797 20.084L108.594 28.8952C108.755 30.6363 109.306 32.3188 110.204 33.8186L111.035 35.1948L113.38 31.4773C113.751 30.6728 113.994 29.8158 114.103 28.9367L115.282 19.206C116.07 19.0759 116.841 18.8587 117.581 18.5584C119.284 17.8614 121.025 17.2647 122.797 16.7713L122.839 16.7588C127.966 15.3474 135 14.405 140.274 17.5227C142.053 18.573 143.595 19.0856 144.901 19.2268H144.995C145.231 19.2475 145.466 19.2558 145.69 19.2558L146.817 28.2206C146.988 29.5686 147.411 30.8725 148.062 32.0647L149.397 34.5119C149.547 34.7899 149.65 35.0908 149.702 35.4024L152.774 35.8569L153.449 24.0817C153.474 23.6272 153.53 23.1726 153.579 22.7222C153.872 20.1459 153.487 17.5378 152.461 15.1564ZM152.461 11.0051C152.636 11.9745 152.626 12.9682 152.432 13.9339C152.382 14.1811 152.312 14.424 152.224 14.6603C152.149 14.5026 152.081 14.3407 152 14.1871C152.116 13.8799 152.166 13.6931 152.166 13.6931C152.397 12.8068 152.497 11.8914 152.463 10.9761C152.467 10.9927 152.471 11.0051 152.471 11.0051H152.461ZM121.486 4.22188L122.357 3.88355C122.59 3.79845 122.824 3.7258 123.057 3.64485C122.538 3.83996 122.013 4.033 121.496 4.22811L121.486 4.22188ZM142.39 0.948569C141.048 0.650967 139.677 0.502009 138.303 0.504383C138.925 0.440037 139.565 0.396445 140.2 0.383991C141.354 0.371537 142.52 0.371537 143.639 0.591557C144.763 0.836623 145.814 1.34053 146.709 2.0632C147.214 2.44842 147.694 2.86434 148.147 3.30859C146.742 2.36002 144.874 1.52975 142.4 0.954796L142.39 0.948569Z" fill="#653E37"/>
<path opacity="0.5" d="M155.136 43.1777L153.083 46.9409C152.739 47.5708 152.271 48.1242 151.706 48.5674C151.142 49.0106 150.493 49.3343 149.8 49.5188L148.403 49.8925L149.698 35.4106L150.335 35.3566C151.266 35.3286 152.188 35.5468 153.007 35.9892C153.826 36.4317 154.514 37.0826 155.002 37.8762C155.489 38.6698 155.758 39.578 155.781 40.5089C155.805 41.4398 155.582 42.3604 155.136 43.1777Z" fill="#FF888A"/>
<path d="M149 226.873C147.429 227.207 145.343 227.311 142.948 227.242C142.472 227.242 141.981 227.211 141.478 227.186C140.268 227.124 138.987 227.024 137.678 226.898C135.276 226.663 132.75 226.337 130.226 225.964C119.661 224.382 109.241 221.933 109.241 221.933L106.975 83.2376L123.372 75.5784L140.152 73.0295L146.188 74.6485L146.553 74.7461L154.19 76.7927C154.19 76.7927 154.258 78.501 154.372 81.5501C154.478 84.5328 154.623 88.7941 154.787 94.004C155.973 133.014 157.828 224.98 149 226.873Z" fill="white"/>
<g opacity="0.2">
<path opacity="0.2" d="M118.129 77.7642C118.129 77.7642 125.384 116.438 125.373 116.5C125.5 127.293 128.258 138.664 129.639 149.362C131.582 164.412 136.426 180.21 133.25 195.688C132.717 198.289 125.083 224.955 126.108 225.295L112.714 220.827L118.129 77.7642Z" fill="black"/>
</g>
<path d="M145.266 157.932L142.913 162.522L141.599 165.085L133.282 181.283L118.532 159.437L118.989 156.577L119.904 150.829L121.056 143.585L122.64 133.651L124.327 123.053L125.622 114.914L127.644 102.232L128.167 98.9484L126.891 98.0331L126.446 97.7176L131.426 93.1968L137.352 96.605L136.673 97.209L135.457 98.2863L135.546 98.8259L137.364 109.883L138.234 115.17L140.152 126.841L141.107 132.64L145.266 157.932Z" fill="#FDAC2A"/>
<path d="M136.673 97.209L135.457 98.2863L135.546 98.8259C133.113 100.379 130.446 101.529 127.646 102.232L128.169 98.9484L126.893 98.0331L126.449 97.7176L131.43 93.1968L137.356 96.605L136.673 97.209Z" fill="#FD922A"/>
<path d="M138.232 115.17C133.765 117.951 128.852 120.257 124.325 123.057L125.62 114.918C129.423 112.992 133.345 111.311 137.362 109.887L138.232 115.17Z" fill="#FD922A"/>
<path d="M141.107 132.638C134.27 136.084 127.337 139.37 121.056 143.583L122.64 133.649L140.152 126.839L141.107 132.638Z" fill="#FD922A"/>
<path d="M142.911 162.528L141.597 165.091C134.227 161.83 126.679 158.989 118.989 156.581L119.904 150.836C128.061 153.881 136.156 157.372 142.911 162.528Z" fill="#FD922A"/>
<g opacity="0.31">
<path opacity="0.31" d="M142.724 100.036L142.047 101.115L137.026 97.9978L137.707 97.3938L131.781 93.9876L126.801 98.5084L127.243 98.8218L121.917 103.502L121.077 102.543L131.339 93.533L131.716 93.1968L132.163 93.4728L142.724 100.036Z" fill="black"/>
<path opacity="0.31" d="M137.707 97.3937L137.026 97.9977L131.845 94.7784L127.244 98.8218L126.801 98.5083L131.781 93.9875L137.707 97.3937Z" fill="black"/>
</g>
<g opacity="0.2">
<path opacity="0.2" d="M155.782 82.7646L154.783 93.9919L142.952 227.232C142.477 227.232 141.985 227.201 141.482 227.176C140.272 227.114 138.992 227.014 137.68 226.886C135.731 226.655 135.116 203.134 134.969 201.042C134.064 188.144 133.763 175.754 134.527 162.802C136.281 132.985 140.961 104.048 146.194 74.6385L146.227 74.4475L146.559 74.736L154.378 81.54L155.782 82.7646Z" fill="black"/>
</g>
<path d="M215.619 144.497C215.689 144.7 215.79 144.892 215.918 145.065C210.994 155.998 208.402 169.379 208.184 184.986L183.18 148.077C182.94 147.723 182.601 147.449 182.204 147.289C181.807 147.129 181.372 147.092 180.954 147.181C180.536 147.27 180.154 147.482 179.856 147.79C179.559 148.097 179.361 148.486 179.286 148.907L173.475 181.925L173.404 182.34L173.636 183.689L173.693 184.015L173.798 184.638L177.213 204.497C177.265 204.826 177.24 205.161 177.14 205.478C177.04 205.795 176.867 206.084 176.636 206.322L165.352 218.035L160.203 223.38C156.798 226.951 152.225 229.183 147.315 229.671C147.294 229.671 147.269 229.671 147.249 229.671C145.424 229.839 143.824 229.781 142.682 229.028C141.827 228.467 141.229 227.519 140.968 225.985C139.191 215.554 137.061 197.399 137.261 170.996V170.862C137.468 146.595 139.616 115.39 145.827 76.8344C145.876 76.534 145.988 76.2474 146.156 75.9936C146.324 75.7399 146.544 75.5247 146.802 75.3624C147.059 75.2001 147.348 75.0944 147.65 75.0522C147.951 75.01 148.258 75.0324 148.55 75.1178L156.396 77.426L190.022 87.2832C191.725 87.781 193.31 88.6201 194.679 89.7494C196.048 90.8788 197.173 92.2748 197.986 93.8527C198.034 93.9492 198.076 94.0483 198.113 94.1495L212.866 136.568L215.619 144.497Z" fill="#234662"/>
<path d="M267.014 102.774C267.013 103.074 266.95 103.37 266.827 103.643L265.492 106.643L263.417 111.269C249.331 113.005 237.886 118.088 229.137 126.241L235.433 114.074L244.582 96.3849C244.997 95.5843 245.69 94.9631 246.531 94.6385C247.373 94.3139 248.304 94.3082 249.149 94.6227L250.103 94.9818L262.902 99.7558L265.488 100.721L265.611 100.767C266.02 100.919 266.374 101.193 266.625 101.552C266.875 101.91 267.011 102.336 267.014 102.774Z" fill="#234662"/>
<path opacity="0.36" d="M212.858 136.57L215.859 145.194C210.973 156.102 208.402 169.44 208.18 184.987L180.202 143.681L173.477 181.917C173.093 181.059 172.397 180.325 172.007 179.451C171.289 177.867 171.642 176.024 172.007 174.324C174.05 164.792 176.091 155.263 178.13 145.736C178.2 145.252 178.365 144.787 178.614 144.366C179.394 143.212 181.221 143.301 182.35 144.113C183.479 144.924 184.15 146.22 184.938 147.374C188.77 153.001 197.293 155.392 202.789 151.373C205.656 149.273 207.297 145.941 209.016 142.828C210.213 140.694 211.494 138.608 212.858 136.57Z" fill="#081A35"/>
<path opacity="0.36" d="M267.753 101.558L263.425 111.27C249.34 113.005 237.895 118.088 229.146 126.241L235.441 114.074C235.649 113.953 235.856 113.843 236.064 113.735C245.568 108.793 255.575 107.716 262.91 99.7476L265.609 100.758L267.753 101.558Z" fill="#081A35"/>
<path d="M146.223 74.4475L132.163 93.473L131.717 93.1969L131.339 93.5332L118.47 80.2884L118.136 77.7644C118.246 77.6669 118.356 77.5569 118.461 77.4552C118.567 77.3535 118.717 77.1874 118.839 77.04C118.924 76.9425 119.005 76.8449 119.086 76.7474C119.167 76.6498 119.273 76.5087 119.362 76.3862C119.452 76.2617 119.541 76.1351 119.622 76.0043C119.703 75.8735 119.748 75.7967 119.813 75.6971C119.906 75.5352 119.999 75.3712 120.08 75.201C120.145 75.0806 120.199 74.9623 120.255 74.8398C120.311 74.7174 120.369 74.5762 120.421 74.4392C120.45 74.3728 120.475 74.3043 120.498 74.2317C120.539 74.13 120.572 74.0241 120.603 73.9266C120.62 73.8747 120.637 73.8248 120.649 73.773C120.673 73.7107 120.693 73.6469 120.709 73.582C120.726 73.5225 120.743 73.4602 120.759 73.3952C120.794 73.2644 120.828 73.1274 120.853 72.9925C120.877 72.8576 120.909 72.7164 120.929 72.5774C120.95 72.4383 120.973 72.2681 120.99 72.1145C121.006 71.9609 121.019 71.8094 121.027 71.6558V71.6433C121.027 71.4897 121.039 71.3361 121.039 71.1846C121.039 70.8609 121.023 70.5373 120.99 70.2153L120.628 66.8942L121.112 67.5003C122.264 68.9505 123.731 70.1188 125.402 70.9165C127.073 71.7141 128.904 72.1201 130.756 72.1035C132.608 72.0869 134.431 71.6481 136.088 70.8206C137.745 69.9931 139.191 68.7986 140.316 67.328L141.341 65.9893L142.037 68.615L142.414 70.0409C142.676 71.0156 143.155 71.9187 143.813 72.6832C144.471 73.4477 145.296 74.0513 146.223 74.4475Z" fill="#FFD5CC"/>
<path d="M283.133 81.349V102.236C281.315 102.353 279.208 101.975 276.859 101.115C273.822 100.011 269.06 98.9589 265.492 97.0327V86.4012L271.647 87.5345L274.837 88.236C275.094 88.2939 275.361 88.2929 275.618 88.2332C275.874 88.1734 276.114 88.0564 276.319 87.891C276.525 87.7255 276.69 87.5159 276.803 87.2777C276.915 87.0395 276.973 86.7789 276.971 86.5153C276.971 86.0779 276.801 85.6575 276.497 85.3426L268.168 81.019C268.091 80.9782 268.03 80.9136 267.994 80.8349C267.957 80.7563 267.948 80.6679 267.966 80.5832C267.984 80.4985 268.03 80.422 268.095 80.3655C268.161 80.3089 268.243 80.2753 268.33 80.2697L272.454 80.0247C275.311 79.858 278.17 80.3053 280.84 81.3366L283.133 81.349Z" fill="#A62C3B"/>
<path d="M131.866 180.86L131.229 176.074L97.3416 109.705C97.3209 109.667 97.3084 109.638 97.296 109.615L101.896 94.162L104.364 85.8823L104.779 84.5186L81.2719 98.2532C76.5358 101.019 72.968 105.414 71.2341 110.618C65.4222 128.041 52.8978 168.809 56.1897 186.587C58.2654 197.76 66.3604 210.945 74.1524 221.535C76.1077 224.196 78.0443 226.693 79.8543 228.953V229.011L79.5554 235.014C82.7994 236.738 86.2152 238.118 89.7468 239.13C96.5633 241.077 105.433 241.978 111.84 236.714C120.861 229.302 128.175 204.28 131.179 192.639C132.171 188.792 132.412 184.79 131.889 180.852L131.866 180.86ZM94.4648 178.265C93.5795 181.809 92.072 185.167 90.0125 188.183L86.5752 193.214L86.5296 193.125L86.5005 193.065L86.4361 192.928L86.376 192.801C86.3552 192.754 86.3344 192.708 86.3075 192.652L86.2286 192.477L86.0874 192.176C86.0708 192.143 86.0542 192.104 86.0356 192.071L85.9297 191.84L85.8155 191.604C85.7553 191.475 85.6972 191.344 85.6329 191.211L85.4419 190.796L85.3527 190.601L83.6921 187.05C82.9078 185.363 82.5513 183.51 82.6543 181.653L82.9221 176.835L89.2922 149.229L91.2434 153.439L97.3375 166.594L97.3603 166.642L94.4648 178.265Z" fill="#234662"/>
<path d="M135.573 28.3035L141.061 27.3861C143.209 27.0263 145.414 27.4641 147.261 28.617L150.723 30.7756C150.732 30.7819 150.738 30.7909 150.74 30.8009C150.743 30.811 150.741 30.8217 150.737 30.8311C150.733 30.8405 150.725 30.8482 150.716 30.8528C150.707 30.8575 150.696 30.8588 150.686 30.8566L147.041 29.715C145.857 29.3434 144.609 29.2232 143.376 29.3621L134.587 30.346C134.58 30.347 134.573 30.3465 134.567 30.3444C134.56 30.3422 134.554 30.3386 134.55 30.3337C134.545 30.3289 134.541 30.3229 134.539 30.3164C134.537 30.3099 134.536 30.3029 134.537 30.2962L134.664 29.2583C134.691 29.022 134.794 28.8009 134.958 28.6286C135.123 28.4563 135.338 28.3422 135.573 28.3035Z" fill="#54382C"/>
<path d="M125.085 30.0035L119.028 28.9927C117.238 28.6933 115.4 29.0579 113.86 30.0181L109.916 32.4736C109.906 32.4791 109.898 32.4882 109.895 32.4991C109.891 32.51 109.892 32.5219 109.896 32.5323C109.901 32.5428 109.909 32.5511 109.92 32.5556C109.931 32.5601 109.942 32.5605 109.953 32.5566L113.897 31.3112C114.884 31.0012 115.925 30.9009 116.952 31.0165L126.052 32.0356C126.059 32.0359 126.066 32.0348 126.072 32.0323C126.078 32.0297 126.084 32.0259 126.089 32.021C126.094 32.0161 126.097 32.0102 126.099 32.0038C126.102 31.9973 126.103 31.9905 126.102 31.9837L125.986 30.9313C125.956 30.7003 125.852 30.4851 125.689 30.318C125.527 30.1508 125.315 30.0405 125.085 30.0035Z" fill="#54382C"/>
<path d="M123.374 37.4322C123.374 37.7525 123.28 38.0655 123.102 38.3317C122.924 38.598 122.671 38.8055 122.375 38.928C122.079 39.0506 121.754 39.0826 121.44 39.0202C121.126 38.9577 120.837 38.8035 120.611 38.5771C120.384 38.3506 120.23 38.0621 120.168 37.7481C120.105 37.434 120.137 37.1085 120.26 36.8127C120.382 36.5168 120.59 36.264 120.856 36.0861C121.122 35.9082 121.435 35.8132 121.755 35.8132C122.185 35.8138 122.596 35.9845 122.9 36.288C123.203 36.5915 123.374 37.003 123.374 37.4322Z" fill="#261712"/>
<path opacity="0.36" d="M107.78 181.752C107.651 181.386 107.493 181.031 107.309 180.69C105.636 177.576 102.811 175.21 100.785 172.36C100.417 171.847 100.081 171.312 99.7784 170.758L99.7535 170.716C99.5511 170.35 99.3696 169.972 99.2096 169.585C98.7509 168.477 98.3586 167.177 97.3416 166.586L97.3644 166.633L94.4585 178.27C93.5732 181.813 92.0657 185.171 90.0062 188.187L86.5689 193.218L86.5233 193.129L86.4942 193.069L86.4299 192.932L86.3697 192.805C86.3489 192.758 86.3282 192.712 86.3012 192.656L86.2223 192.482L86.0811 192.181C86.0645 192.147 86.0479 192.108 86.0292 192.075L85.9234 191.844L85.8092 191.608C85.749 191.479 85.6909 191.348 85.6266 191.215L85.4356 190.8L85.3463 190.605L83.6858 187.054C82.9015 185.367 82.545 183.514 82.648 181.657L82.9158 176.839L89.2859 149.233C81.577 138.232 78.038 121.565 76.5311 111.548C76.365 111.12 76.1865 110.691 75.9955 110.261C74.2063 122.862 77.5108 135.542 79.547 148.102C80.8713 156.305 81.606 164.828 80.0597 173.055C79.6823 175.113 79.143 177.138 78.4469 179.11C77.8761 180.706 76.0682 183.035 75.9353 184.64C75.7734 186.616 77.3676 189.177 78.8288 191.604C79.3979 192.559 79.7154 193.642 79.7517 194.754C79.788 195.865 79.5419 196.967 79.0364 197.957C79.0333 197.968 79.0291 197.978 79.0239 197.988C75.4164 205.185 76.0806 213.811 74.1129 221.564C76.0682 224.225 78.0048 226.722 79.8148 228.982C79.4411 223.28 79.4453 217.622 79.5719 212.999C79.6676 209.586 80.2763 206.206 81.3777 202.974C82.0004 201.118 82.7331 199.717 83.7004 198.451C83.717 198.711 83.7481 198.972 83.7855 199.236C84.0095 199.353 84.2606 199.41 84.5135 199.4C84.7664 199.39 85.0121 199.313 85.226 199.178L83.8021 198.31C84.6856 197.219 85.675 196.219 86.7557 195.323C91.7724 190.986 97.7856 187.961 104.258 186.516C105.524 186.236 106.956 185.931 107.664 184.843C108.247 183.936 108.149 182.801 107.78 181.752ZM83.4949 198.082C83.5613 197.955 83.6256 197.83 83.7024 197.708C83.7024 197.878 83.7024 198.048 83.719 198.217L83.4949 198.082Z" fill="#081A35"/>
<path opacity="0.53" d="M239.024 385.63C236.921 385.107 234.748 384.567 232.543 383.998C221.787 381.235 210.349 377.784 203.161 371.959C203.022 370.437 202.909 368.895 202.82 367.333C202.633 364.139 202.541 360.873 202.544 357.536L236.311 360.664C236.311 364.18 236.434 367.546 236.68 370.762C236.705 371.135 236.738 371.505 236.769 371.87C237.144 376.51 237.898 381.112 239.024 385.63Z" fill="#C43549"/>
<path opacity="0.36" d="M132.13 185.532C127.024 174.39 98.942 113.003 97.3417 109.704C97.3209 109.667 97.3085 109.638 97.296 109.615H122.382L131.239 176.074L131.876 180.86C132.081 182.409 132.165 183.971 132.13 185.532Z" fill="#081A35"/>
<path d="M142.292 37.4322C142.292 37.7525 142.197 38.0655 142.019 38.3317C141.841 38.598 141.588 38.8055 141.292 38.928C140.997 39.0506 140.671 39.0826 140.357 39.0202C140.043 38.9577 139.755 38.8035 139.528 38.5771C139.302 38.3506 139.148 38.0621 139.085 37.7481C139.023 37.434 139.055 37.1085 139.177 36.8127C139.3 36.5168 139.507 36.264 139.773 36.0861C140.04 35.9082 140.353 35.8132 140.673 35.8132C141.102 35.8138 141.514 35.9845 141.817 36.288C142.121 36.5915 142.291 37.003 142.292 37.4322Z" fill="#261712"/>
<path d="M131.229 176.073L97.3417 109.704C97.3209 109.667 97.3085 109.638 97.296 109.615L101.896 94.1618L104.364 85.882L104.779 84.5183L105.642 84.0181C105.812 83.9143 106.003 83.8105 106.215 83.6818L106.508 83.5075C106.661 83.4224 106.823 83.3248 106.993 83.2273L111.767 80.4313L112.45 80.0328L114.777 78.6712C115.02 78.53 115.252 78.3951 115.475 78.2561L116.494 77.6624C116.616 77.5898 116.73 77.5213 116.842 77.4549L117.002 77.3615L117.289 77.1954L117.988 76.7803L118.121 77.7621L118.455 80.2861L118.783 82.7229L122.364 109.613L131.229 176.073Z" fill="#1D2F49"/>
<path d="M105.623 84.0181C105.794 83.9144 105.985 83.8106 106.196 83.6819L105.623 84.0181Z" fill="#182841"/>
<path d="M164.095 103.023L137.269 171.212V170.882C137.476 146.116 139.712 114.115 146.223 74.4475L156.394 77.4281L164.095 103.023Z" fill="#1D2F49"/>
<path d="M79.8357 228.961C79.7167 227.411 79.624 225.86 79.5575 224.308C79.4911 222.755 79.4517 221.201 79.4392 219.646C79.4164 218.091 79.4392 216.532 79.4538 214.982C79.4683 213.431 79.5015 211.868 79.6613 210.32C79.994 207.217 80.7576 204.175 81.93 201.282C82.517 199.84 83.2015 198.439 83.9787 197.09C84.3668 196.415 84.7861 195.759 85.224 195.114L85.8903 194.159L86.5732 193.214C84.743 195.725 83.2354 198.456 82.0857 201.343C80.9409 204.227 80.1971 207.256 79.8751 210.343C79.7028 211.883 79.6676 213.433 79.6427 214.988C79.6177 216.543 79.6011 218.101 79.597 219.646C79.5928 221.19 79.6178 222.759 79.6593 224.306C79.7008 225.852 79.7506 227.409 79.8357 228.961Z" fill="#182841"/>
<path d="M109.588 458.254V469.102C109.587 470.469 109.115 471.793 108.25 472.852C107.386 473.911 106.182 474.639 104.843 474.914L97.7692 476.367L86.1954 481.261C79.1267 484.251 71.3844 485.287 63.7783 484.26L58.419 483.536C57.7616 483.448 57.1589 483.123 56.7231 482.623C56.2873 482.123 56.0483 481.482 56.0506 480.819C56.0534 480.193 56.2735 479.588 56.6733 479.106C58.2105 477.231 60.208 475.786 62.4706 474.914L66.5286 473.338C72.9733 470.828 78.7523 466.865 83.4161 461.758L88.8771 455.77C89.2969 455.311 89.8081 454.944 90.3779 454.694C90.9477 454.444 91.5634 454.315 92.1857 454.317H98.1262C99.2589 454.321 100.349 454.751 101.179 455.521L102.772 457.009C103.304 457.506 104.006 457.782 104.734 457.782C105.463 457.782 106.164 457.506 106.697 457.009C106.941 456.783 107.246 456.633 107.575 456.577C107.903 456.52 108.241 456.561 108.547 456.693C108.853 456.824 109.114 457.042 109.299 457.319C109.484 457.596 109.584 457.921 109.588 458.254Z" fill="#234662"/>
<path d="M101.175 455.5L90.2844 466.144C89.2186 467.186 87.9353 467.979 86.5267 468.465C85.118 468.952 83.619 469.12 82.1374 468.959L75.9561 468.29C78.6765 466.393 81.1772 464.199 83.4119 461.748L88.8729 455.76C89.2928 455.3 89.804 454.934 90.3737 454.684C90.9435 454.433 91.5593 454.305 92.1815 454.307H98.1221C98.7047 454.307 99.2816 454.422 99.8199 454.645L101.175 455.5Z" fill="#011533"/>
<path d="M109.588 467.155V469.102C109.587 470.469 109.115 471.793 108.25 472.852C107.386 473.911 106.182 474.639 104.843 474.914L97.7692 476.367L86.1954 481.261C79.1267 484.251 71.3844 485.287 63.7783 484.26L58.419 483.536C57.7616 483.448 57.1589 483.123 56.7231 482.623C56.2873 482.123 56.0483 481.482 56.0506 480.819C56.0534 480.193 56.2735 479.588 56.6733 479.106C56.9992 479.212 57.3251 479.314 57.6468 479.411C67.145 482.301 77.3655 481.73 86.5773 478.035C93.732 475.165 98.5517 473.496 101.559 472.549C104.373 471.661 106.905 470.054 108.907 467.887L109.588 467.155Z" fill="#060D16"/>
<path d="M202.922 349.152L204.223 360.246C204.386 361.645 205.028 362.945 206.039 363.925C207.05 364.905 208.368 365.506 209.771 365.627L217.177 366.26L229.596 369.877C237.179 372.086 245.215 372.217 252.866 370.257L258.263 368.873C258.747 368.749 259.19 368.499 259.545 368.148C259.9 367.796 260.155 367.356 260.283 366.873C260.411 366.39 260.409 365.882 260.275 365.4C260.141 364.919 259.882 364.482 259.523 364.134C257.727 362.394 255.509 361.151 253.088 360.527L248.75 359.402C241.86 357.61 235.476 354.251 230.096 349.588L223.797 344.121C223.313 343.699 222.747 343.384 222.134 343.195C221.521 343.005 220.876 342.946 220.239 343.021L214.166 343.733C213.008 343.873 211.945 344.444 211.187 345.331L209.734 347.041C209.25 347.614 208.566 347.982 207.821 348.07C207.075 348.158 206.325 347.96 205.72 347.516C205.441 347.316 205.111 347.2 204.768 347.184C204.425 347.168 204.085 347.251 203.789 347.424C203.492 347.597 203.253 347.853 203.099 348.16C202.945 348.466 202.883 348.811 202.922 349.152Z" fill="#234662"/>
<path d="M211.191 345.331L223.602 354.906C224.816 355.843 226.224 356.5 227.722 356.828C229.221 357.157 230.774 357.15 232.27 356.807L238.497 355.383C235.489 353.767 232.67 351.824 230.09 349.588L223.79 344.121C223.307 343.699 222.741 343.384 222.128 343.195C221.515 343.005 220.87 342.946 220.233 343.021L214.159 343.733C213.563 343.802 212.987 343.989 212.464 344.283L211.191 345.331Z" fill="#011533"/>
<path d="M203.989 358.262L204.223 360.255C204.386 361.654 205.028 362.953 206.039 363.933C207.05 364.914 208.368 365.515 209.771 365.635L217.177 366.268L229.596 369.886C237.179 372.094 245.215 372.225 252.866 370.266L258.263 368.881C258.747 368.758 259.19 368.507 259.545 368.156C259.9 367.804 260.155 367.364 260.283 366.881C260.412 366.399 260.409 365.89 260.275 365.409C260.141 364.927 259.882 364.49 259.523 364.143C259.2 364.292 258.881 364.436 258.564 364.574C249.201 368.665 238.681 369.307 228.82 366.633C221.173 364.558 216.046 363.431 212.858 362.822C209.871 362.253 207.085 360.913 204.775 358.935L203.989 358.262Z" fill="#060D16"/>
<path opacity="0.68" d="M131.729 40.9919C132.121 42.146 132.43 43.3146 132.711 44.4894C132.991 45.6642 133.236 46.8453 133.462 48.0305L133.618 48.9209C133.643 49.0808 133.67 49.1929 133.695 49.3921C133.718 49.5838 133.71 49.7782 133.67 49.9671C133.59 50.3419 133.398 50.6831 133.118 50.9447C132.848 51.1959 132.507 51.3581 132.142 51.4096C130.957 51.6338 129.761 51.8248 128.549 51.9431C129.678 51.4864 130.832 51.1128 131.986 50.7662C132.107 50.7357 132.222 50.6882 132.329 50.6251C132.428 50.5705 132.518 50.5004 132.595 50.4175C132.749 50.2539 132.848 50.0464 132.879 49.8239C132.894 49.7158 132.894 49.606 132.879 49.498C132.866 49.3963 132.825 49.2136 132.8 49.0828L132.626 48.1965C132.418 47.0072 132.21 45.8178 132.061 44.6202C131.912 43.4225 131.775 42.2104 131.729 40.9919Z" fill="#FF888A"/>
<path d="M151.423 40.3717C150.891 40.8439 150.447 41.406 150.111 42.0322C149.942 42.3407 149.791 42.6588 149.658 42.9849C149.532 43.3129 149.428 43.647 149.326 43.9812C149.225 44.3154 149.171 44.662 149.119 45.0045C149.067 45.347 149.032 45.6957 149.011 46.0423C149.127 45.7144 149.218 45.3823 149.322 45.0543L149.652 44.085C149.758 43.8214 149.86 43.5599 149.974 43.3004C149.986 43.3413 150.001 43.3815 150.018 43.4208C150.118 43.6395 150.239 43.848 150.379 44.0435C150.658 44.4324 151.011 44.763 151.417 45.017C151.25 44.5774 151.02 44.1647 150.734 43.7923C150.595 43.6097 150.456 43.4291 150.308 43.2568L150.111 43.0223C150.231 42.7587 150.358 42.4992 150.503 42.2501C150.819 41.6587 151.211 41.1115 151.67 40.6228C151.904 40.3816 152.158 40.1608 152.429 39.9628C152.701 39.7553 153.002 39.5889 153.322 39.4688C152.614 39.5774 151.954 39.8913 151.423 40.3717Z" fill="#D95C60"/>
<path d="M109.202 40.3717C109.733 40.8439 110.177 41.406 110.514 42.0322C110.684 42.3403 110.835 42.6585 110.966 42.9849C111.095 43.3129 111.197 43.647 111.298 43.9812C111.4 44.3154 111.456 44.662 111.506 45.0045C111.556 45.347 111.593 45.6957 111.616 46.0423C111.498 45.7144 111.408 45.3823 111.305 45.0543L110.973 44.085C110.867 43.8214 110.765 43.5599 110.651 43.3004C110.636 43.3398 110.626 43.3834 110.609 43.4208C110.508 43.6395 110.387 43.8481 110.246 44.0435C109.97 44.4313 109.622 44.7619 109.221 45.017C109.387 44.5774 109.617 44.1647 109.904 43.7923C110.041 43.6097 110.182 43.4291 110.319 43.2568L110.514 43.0223C110.398 42.7577 110.267 42.4999 110.121 42.2501C109.807 41.6582 109.414 41.111 108.955 40.6228C108.721 40.3816 108.467 40.1608 108.195 39.9628C107.924 39.7554 107.624 39.5889 107.305 39.4688C108.012 39.577 108.672 39.891 109.202 40.3717Z" fill="#D95C60"/>
<path d="M251.417 86.2744L251.741 86.4591L251.662 86.6314L250.77 88.595L251.417 86.2744Z" fill="#E0DBC4"/>
<path d="M136.779 61.5493L136.758 61.57C135.706 62.572 134.353 63.2 132.908 63.3572L129.379 63.737C128.318 63.8517 127.254 63.5404 126.422 62.8715C125.869 62.4589 125.448 61.8951 125.209 61.2483L124.379 58.9838C124.349 58.9045 124.338 58.8197 124.344 58.7354C124.351 58.651 124.376 58.5691 124.417 58.4954C124.459 58.4216 124.516 58.3579 124.584 58.3085C124.653 58.2591 124.732 58.2254 124.815 58.2095L125.369 58.1058C128.028 57.6159 134.332 56.4826 137.53 56.1941C137.881 56.163 138.195 56.1422 138.46 56.1339C138.552 56.1309 138.642 56.1476 138.727 56.1829C138.811 56.2182 138.887 56.2713 138.948 56.3385C139.01 56.4056 139.057 56.4854 139.085 56.5722C139.113 56.6591 139.123 56.751 139.112 56.8417C138.903 58.6337 138.078 60.2975 136.779 61.5493Z" fill="#B52A2D"/>
<path d="M136.779 61.5495C136.286 62.0176 135.733 62.4189 135.135 62.743C134.556 63.0544 133.921 63.2498 133.267 63.3179L129.386 63.7331C128.324 63.8477 127.26 63.5364 126.428 62.8675C126.683 61.7238 127.559 59.8038 130.554 59.15C133.861 58.4318 135.683 59.5361 136.779 61.5495Z" fill="#FA8887"/>
<path d="M137.534 56.1941C137.08 56.8442 136.556 57.4427 135.972 57.9791C135.893 58.0501 135.801 58.1051 135.702 58.141C132.796 59.2141 127.104 59.019 125.695 58.9505C125.607 58.9462 125.525 58.9081 125.465 58.8443C125.405 58.7804 125.372 58.6957 125.373 58.6081V58.1057C128.032 57.6159 134.336 56.4826 137.534 56.1941Z" fill="white"/>
<path opacity="0.21" d="M129.309 37.1521V37.3991L129.3 37.1521H129.309Z" fill="white"/>
<path d="M129.307 38.2478V41.3883C129.358 41.2018 129.381 41.0087 129.375 40.8154L129.307 38.2478Z" fill="#182841"/>
<path d="M150.555 35.5121C150.513 35.4401 150.444 35.3877 150.363 35.3664C150.282 35.345 150.196 35.3563 150.123 35.398L148.756 36.1805L147.925 36.6558L147.873 34.7026C147.867 34.4289 147.807 34.1592 147.696 33.9089C147.585 33.6586 147.426 33.4327 147.227 33.2442C147.029 33.0557 146.795 32.9084 146.539 32.8106C146.284 32.7129 146.011 32.6667 145.738 32.6747L134.311 32.9819C134.038 32.9878 133.769 33.048 133.52 33.1588C133.27 33.2696 133.045 33.4289 132.858 33.6274C132.669 33.8259 132.522 34.0598 132.424 34.3155C132.326 34.5713 132.279 34.844 132.287 35.1178L132.347 37.2847L131.835 37.2972L129.307 37.3657H129.286L129.226 35.1987C129.22 34.9249 129.16 34.6549 129.049 34.4043C128.938 34.1538 128.779 33.9277 128.581 33.739C128.382 33.5503 128.148 33.4027 127.892 33.3048C127.636 33.207 127.364 33.1607 127.09 33.1687L115.674 33.4738C115.401 33.4797 115.131 33.5402 114.882 33.6518C114.632 33.7634 114.407 33.9238 114.221 34.1235C113.843 34.5235 113.639 35.0573 113.654 35.6076L113.698 37.1477L110.551 35.9024C110.512 35.886 110.47 35.8776 110.428 35.8777C110.386 35.8779 110.344 35.8866 110.306 35.9032C110.267 35.9199 110.232 35.9442 110.203 35.9747C110.173 36.0053 110.151 36.0414 110.136 36.0809C110.12 36.1198 110.112 36.1615 110.113 36.2035C110.113 36.2456 110.122 36.2871 110.139 36.3257C110.155 36.3643 110.179 36.3993 110.209 36.4285C110.24 36.4577 110.275 36.4807 110.314 36.496L113.712 37.8472L113.802 41.2243C113.817 41.7657 114.042 42.2798 114.429 42.6585C114.817 43.0372 115.336 43.2508 115.877 43.2543C115.895 43.2564 115.913 43.2564 115.931 43.2543L127.36 42.9533C127.812 42.9415 128.247 42.7825 128.601 42.5004C128.954 42.2183 129.206 41.8285 129.317 41.3904V38.2478V38.0029L131.837 37.9344L132.362 37.922L132.439 40.7345C132.452 41.2763 132.676 41.7915 133.064 42.1701C133.452 42.5486 133.973 42.7605 134.515 42.7603H134.571L145.997 42.4593C146.549 42.443 147.071 42.209 147.451 41.8084C147.831 41.4078 148.036 40.8732 148.023 40.3214L147.946 37.3823L148.758 36.9153L150.443 35.9501C150.479 35.9287 150.511 35.9004 150.536 35.8668C150.561 35.8332 150.579 35.795 150.59 35.7543C150.6 35.7137 150.602 35.6713 150.597 35.6298C150.591 35.5882 150.577 35.5482 150.555 35.5121ZM127.333 42.314L115.917 42.6192C115.532 42.6292 115.158 42.4858 114.879 42.2206C114.74 42.0907 114.629 41.9344 114.551 41.7608C114.474 41.5872 114.432 41.3998 114.428 41.2098L114.279 35.5931C114.271 35.2105 114.415 34.8403 114.678 34.5628C114.941 34.2853 115.304 34.123 115.686 34.1111L127.113 33.8059H127.15C127.528 33.8058 127.891 33.9528 128.162 34.216C128.434 34.4791 128.592 34.8376 128.603 35.2153L128.672 37.6833V37.6999L128.752 40.832C128.76 41.2167 128.615 41.5887 128.349 41.8666C128.083 42.1444 127.717 42.3053 127.333 42.314ZM145.976 41.8221L134.56 42.1231C134.369 42.1312 134.179 42.1004 134.001 42.0326C133.822 41.9648 133.66 41.8614 133.522 41.7287C133.384 41.5985 133.273 41.4421 133.196 41.2685C133.118 41.095 133.076 40.9078 133.072 40.7179L132.987 37.6044V37.5878L132.922 35.097C132.913 34.7137 133.056 34.3424 133.32 34.0641C133.584 33.7857 133.947 33.6228 134.33 33.6108L145.756 33.3078H145.794C146.171 33.3076 146.534 33.4544 146.805 33.7171C147.076 33.9798 147.235 34.3377 147.247 34.7151L147.396 40.3339C147.401 40.5249 147.368 40.7149 147.299 40.8931C147.23 41.0713 147.127 41.2342 146.995 41.3724C146.863 41.5107 146.705 41.6216 146.53 41.6987C146.355 41.7759 146.167 41.8178 145.976 41.8221Z" fill="#182841"/>
<path opacity="0.21" d="M128.74 40.8323C128.748 41.2148 128.604 41.585 128.341 41.8625C128.078 42.14 127.715 42.3023 127.333 42.3143L125.05 42.3745L120.747 42.4886L118.194 42.5613L115.977 42.6194H115.904C115.519 42.6294 115.146 42.486 114.866 42.2209C114.728 42.091 114.616 41.9346 114.539 41.761C114.462 41.5874 114.42 41.4001 114.416 41.21L114.267 35.5933C114.259 35.2107 114.402 34.8405 114.666 34.563C114.929 34.2856 115.291 34.1232 115.674 34.1113L119.692 34.0054L121.909 33.9452L124.462 33.8788L127.1 33.8062H127.138C127.4 33.806 127.657 33.8775 127.882 34.0129C128.106 34.1482 128.29 34.3423 128.412 34.5741C128.517 34.7722 128.575 34.9916 128.582 35.2155L128.651 37.6835V37.7001L128.74 40.8323Z" fill="white"/>
<path opacity="0.21" d="M147.383 40.3383C147.392 40.7213 147.249 41.092 146.985 41.3699C146.722 41.6479 146.359 41.8105 145.976 41.8224L142.603 41.9117L138.305 42.0259L135.751 42.0944L134.55 42.1234C134.231 42.1372 133.918 42.0396 133.663 41.8474C133.612 41.8115 133.564 41.7719 133.518 41.729C133.38 41.5988 133.269 41.4424 133.191 41.2689C133.114 41.0953 133.072 40.9081 133.068 40.7182L132.983 37.6047V37.5881L132.918 35.0973C132.909 34.714 133.052 34.3428 133.316 34.0644C133.579 33.786 133.942 33.6231 134.325 33.6111L137.252 33.5343L139.469 33.4742L142.022 33.4057L145.758 33.3081H145.796C145.963 33.308 146.129 33.3382 146.285 33.3974C146.559 33.4947 146.797 33.6728 146.967 33.9081C147.138 34.1434 147.233 34.4249 147.24 34.7154L147.383 40.3383Z" fill="white"/>
<g opacity="0.64">
<path opacity="0.64" d="M128.42 34.5741L125.052 42.3745L120.749 42.4886L124.47 33.8788L127.109 33.8062H127.146C127.408 33.806 127.665 33.8775 127.89 34.0129C128.114 34.1482 128.298 34.3423 128.42 34.5741Z" fill="url(#paint0_linear)"/>
<path opacity="0.64" d="M121.917 33.9453L118.196 42.5613L115.979 42.6195L119.701 34.0055L121.917 33.9453Z" fill="url(#paint1_linear)"/>
</g>
<g opacity="0.64">
<path opacity="0.64" d="M146.279 33.4018L142.603 41.912L138.305 42.0261L142.022 33.4101L145.758 33.3125H145.796C145.961 33.3132 146.125 33.3434 146.279 33.4018Z" fill="url(#paint2_linear)"/>
<path opacity="0.64" d="M139.477 33.4785L135.76 42.0946L134.558 42.1236C134.24 42.1374 133.926 42.0398 133.672 41.8476L137.261 33.5449L139.477 33.4785Z" fill="url(#paint3_linear)"/>
</g>
<path opacity="0.35" d="M131.631 93.2735C131.21 92.1289 130.569 91.0781 129.743 90.1808L129.479 89.8922C128.81 89.1666 128.293 88.3149 127.957 87.387C127.621 86.459 127.473 85.4734 127.523 84.4878C127.572 83.5022 127.818 82.5363 128.245 81.6466C128.672 80.757 129.272 79.9614 130.01 79.3064L140.009 70.4268C140.475 70.0125 140.848 69.5042 141.103 68.9354C141.359 68.3665 141.491 67.75 141.491 67.1265C141.492 66.7452 141.442 66.3655 141.343 65.9973L140.318 67.3361C139.193 68.8074 137.747 70.0025 136.091 70.8305C134.434 71.6585 132.61 72.0976 130.758 72.1142C128.906 72.1308 127.075 71.7245 125.404 70.9264C123.732 70.1282 122.265 68.9592 121.114 67.5084L120.63 66.9023L120.992 70.2233C121.025 70.5454 121.043 70.8689 121.043 71.1927C121.043 71.3442 121.044 71.4978 121.029 71.6514V71.6638C121.029 71.8174 121.008 71.969 120.992 72.1226C120.975 72.2762 120.958 72.4318 120.931 72.5854C120.904 72.739 120.886 72.8657 120.855 73.0006C120.823 73.1355 120.796 73.2725 120.761 73.4032C120.745 73.4669 120.728 73.5292 120.711 73.5901C120.695 73.6549 120.675 73.7187 120.651 73.781C120.639 73.8329 120.622 73.8827 120.606 73.9346C120.574 74.0363 120.541 74.1422 120.5 74.2397C120.478 74.3104 120.453 74.3797 120.423 74.4473C120.371 74.5843 120.317 74.7151 120.257 74.8479C120.197 74.9807 120.147 75.0887 120.082 75.2091C120.002 75.3793 119.908 75.5432 119.815 75.7051C119.75 75.8069 119.692 75.9127 119.624 76.0123C119.555 76.112 119.454 76.2697 119.364 76.3943C119.275 76.5167 119.182 76.6371 119.088 76.7554C118.995 76.8737 118.926 76.9505 118.841 77.0481C118.719 77.1892 118.592 77.3242 118.463 77.4632C118.335 77.6023 118.256 77.6708 118.138 77.7725L118.472 80.2965L131.341 93.5412L131.631 93.2735Z" fill="#FF888A"/>
<path d="M89.3026 149.212C86.8575 145.968 84.9022 142.363 83.2832 138.627C81.6838 134.879 80.3589 131.02 79.3188 127.08C78.271 123.146 77.4278 119.16 76.7927 115.139C76.1371 111.128 75.7137 107.083 75.5245 103.023C76.0247 107.05 76.7035 111.047 77.4465 115.024C77.8368 117.011 78.227 118.995 78.6919 120.965C79.1569 122.935 79.6218 124.909 80.1449 126.851C81.1729 130.758 82.4259 134.603 83.8976 138.365C85.3983 142.116 87.1294 145.781 89.3026 149.212Z" fill="#182841"/>
<path d="M194.897 89.9443C193.339 91.7275 191.97 93.6683 190.815 95.7354C190.192 96.7421 189.675 97.8111 189.127 98.8489C188.843 99.3678 188.616 99.9137 188.365 100.449L187.628 102.058C185.785 106.408 184.328 110.911 183.274 115.516L182.497 118.972L181.914 122.468L181.611 124.215L181.403 125.976L180.988 129.504C180.903 130.092 180.868 130.681 180.829 131.271L180.704 133.043L180.43 136.582C180.347 138.948 180.308 141.319 180.206 143.693C180.114 141.323 180.071 138.948 180.013 136.57L180.135 133.006L180.204 131.223C180.225 130.627 180.245 130.034 180.314 129.442L180.658 125.888L180.841 124.112L181.117 122.345L181.686 118.817L182.452 115.323C183.562 110.691 185.003 106.116 187.018 101.788L187.809 100.184C188.077 99.6522 188.32 99.1063 188.629 98.5936C189.225 97.5558 189.785 96.5076 190.455 95.5216C191.759 93.529 193.17 91.5841 194.897 89.9443Z" fill="#182841"/>
<path d="M97.3749 166.629C97.8461 167.397 98.311 168.169 98.7988 168.927C99.2866 169.685 99.7557 170.452 100.252 171.21C101.234 172.719 102.224 174.22 103.27 175.683C104.316 177.146 105.383 178.589 106.489 180.007C107.062 180.7 107.614 181.41 108.218 182.082C108.789 182.78 109.424 183.417 110.028 184.09C108.677 182.89 107.41 181.598 106.238 180.223C105.069 178.842 103.98 177.4 102.917 175.934C101.896 174.444 100.895 172.939 99.9674 171.389C99.0396 169.838 98.1595 168.254 97.3749 166.629Z" fill="#182841"/>
<path d="M166.824 200.097L167.142 199.595C167.252 199.432 167.354 199.263 167.447 199.088C167.625 198.736 167.823 198.393 167.986 198.032L168.48 196.955L168.933 195.859C169.514 194.389 170.062 192.905 170.562 191.406C171.063 189.908 171.557 188.401 172.03 186.892C172.266 186.136 172.498 185.379 172.725 184.621L173.408 182.338C173.227 183.11 173.024 183.874 172.823 184.642C172.621 185.41 172.408 186.167 172.183 186.925C171.741 188.447 171.258 189.956 170.76 191.46C170.261 192.965 169.695 194.447 169.08 195.909L168.599 196.996L168.076 198.065C167.899 198.42 167.688 198.756 167.495 199.103C167.395 199.275 167.286 199.441 167.169 199.601L166.824 200.097Z" fill="#182841"/>
<path d="M82.9324 176.825C82.5535 177.779 82.1111 178.706 81.6082 179.6C81.104 180.497 80.5496 181.364 79.9477 182.199C79.3361 183.027 78.6661 183.81 77.9426 184.542C77.2091 185.263 76.3981 185.901 75.5245 186.444C75.9272 186.122 76.3548 185.84 76.7201 185.482C77.1144 185.159 77.4673 184.789 77.8285 184.43C78.5281 183.688 79.1798 182.902 79.7796 182.076C80.3857 181.246 80.9398 180.397 81.4629 179.521C81.7258 179.084 81.9784 178.64 82.2205 178.189C82.4758 177.742 82.7062 177.286 82.9324 176.825Z" fill="#182841"/>
<path d="M82.507 184.077C82.3295 184.453 82.1011 184.802 81.8282 185.115C81.56 185.435 81.2641 185.73 80.944 185.997C80.6233 186.263 80.2826 186.503 79.9248 186.716C79.7484 186.828 79.5595 186.923 79.3769 187.012C79.1942 187.102 78.9991 187.183 78.8061 187.259C79.1548 187.033 79.5014 186.813 79.8439 186.579C80.1864 186.344 80.504 186.097 80.8195 185.838C81.1328 185.576 81.4328 185.299 81.7182 185.007C82.0028 184.716 82.2664 184.406 82.507 184.077Z" fill="#182841"/>
<g opacity="0.72">
<path opacity="0.72" d="M144.996 19.2352H144.903C143.589 19.0941 142.055 18.5814 140.276 17.5311C135 14.4176 127.966 15.3558 122.841 16.7673C123.121 16.6822 123.385 16.6137 123.482 16.5597C124.217 16.2214 124.923 15.7751 125.637 15.3849C127.074 14.5989 128.513 13.8129 129.952 13.0269C134.039 10.7956 139.199 8.84658 142.674 13.0809C144.062 14.845 144.873 16.9939 144.996 19.2352Z" fill="#41211E"/>
<path opacity="0.72" d="M115.281 19.206L114.102 28.9366C113.994 29.8157 113.75 30.6727 113.38 31.4772L111.041 35.1989L110.211 33.8227C109.312 32.3229 108.761 30.6403 108.6 28.8993L107.803 20.0881C107.78 19.837 107.763 19.5879 107.759 19.3367L107.67 15.2373C108.417 19.3243 115.281 19.206 115.281 19.206Z" fill="#41211E"/>
<path opacity="0.72" d="M153.575 22.7305C153.525 23.1809 153.469 23.6355 153.444 24.0901L152.761 35.8653L149.689 35.4107C149.637 35.0991 149.534 34.7982 149.384 34.5202L148.05 32.073C147.398 30.8808 146.975 29.5769 146.804 28.2289L145.677 19.2642C151.055 16.5534 151.989 14.1934 151.989 14.1934C153.355 16.8182 153.907 19.7904 153.575 22.7305Z" fill="#41211E"/>
</g>
<path d="M152.077 13.3049C152.578 14.306 152.995 15.3475 153.322 16.4184C153.66 17.4903 153.917 18.5858 154.092 19.6959C154.269 20.8055 154.365 21.9265 154.379 23.0501C154.379 23.6126 154.366 24.173 154.337 24.7314C154.308 25.2898 154.242 25.8481 154.152 26.3919C154.152 26.1117 154.152 25.8336 154.152 25.5617L154.132 24.7314C154.117 24.1751 154.094 23.6209 154.053 23.0709C153.97 21.9646 153.855 20.8624 153.675 19.7706C153.494 18.6788 153.274 17.5912 153.011 16.5139C152.747 15.4366 152.423 14.3697 152.077 13.3049Z" fill="#41211E"/>
<path opacity="0.35" d="M120.138 63.9634C119.101 60.6029 117.334 57.5289 115.937 54.3033C114.54 51.0777 113.511 47.5346 114.102 44.0724C114.153 43.6051 114.313 43.1564 114.57 42.7627C114.777 42.47 115.086 42.2479 115.273 41.9324C115.508 41.5422 115.524 41.0648 115.533 40.6102C115.572 38.4619 116.093 34.074 114.733 32.1831C113.117 29.9289 111.684 33.2935 111.014 35.1948L110.902 35.2073L110.921 35.3816C109.536 35.2144 108.14 35.6001 107.038 36.455C105.936 37.3099 105.215 38.565 105.032 39.9481C105.004 40.1753 104.99 40.4041 104.99 40.633C104.99 41.5192 105.212 42.3912 105.636 43.1695L107.687 46.9327C107.722 46.997 107.759 47.0551 107.799 47.1195L109.683 48.9709C109.818 49.0498 109.959 49.1121 110.099 49.1785C110.136 49.1972 110.177 49.2097 110.217 49.2263C110.256 49.2429 110.331 49.2761 110.391 49.2989C110.577 49.375 110.767 49.4395 110.96 49.4919L112.469 49.9071L112.677 51.9205L112.911 54.1372C113.157 56.4305 114.049 58.6067 115.485 60.412L120.259 66.4314C120.305 66.3187 120.341 66.202 120.365 66.0826C120.533 65.3977 120.35 64.6587 120.138 63.9634Z" fill="#FF888A"/>
<path opacity="0.36" d="M118.792 82.725L116.461 85.0746C113.267 88.2908 109.488 90.8685 105.329 92.6694L101.885 94.1618L72.9486 106.693C74.9153 103.188 77.7814 100.272 81.2512 98.2446L104.758 84.51L105.621 84.0098C105.792 83.906 105.983 83.8022 106.194 83.6735L106.487 83.4992C106.641 83.4141 106.803 83.3165 106.973 83.2189L111.747 80.423L112.43 80.0245L114.777 78.6712C115.02 78.53 115.253 78.3951 115.475 78.2561L116.494 77.6624C116.616 77.5898 116.73 77.5213 116.842 77.4549L117.002 77.3615L117.289 77.1954L117.988 76.7803L118.121 77.7621L118.455 80.2861L118.792 82.725Z" fill="#081A35"/>
<path d="M95.8699 444.516C96.3452 436.732 96.9077 428.948 97.4183 421.175L99.0996 397.845C99.6413 390.067 100.274 382.298 100.866 374.523L102.666 351.203L104.579 327.893C105.229 320.124 105.825 312.351 106.526 304.584L108.563 281.282C109.287 273.519 109.968 265.752 110.732 257.993C110.256 265.775 109.694 273.561 109.185 281.332L107.504 304.662C106.962 312.44 106.325 320.211 105.735 327.984L103.936 351.304L102.02 374.616C101.372 382.385 100.775 390.157 100.071 397.924L98.0369 421.225C97.3124 428.988 96.6316 436.755 95.8699 444.516Z" fill="#234662"/>
<path d="M212.281 333.62L211.953 333.709C211.63 329.898 211.308 326.093 210.986 322.293L209.219 300.227C208.613 292.873 208.098 285.514 207.538 278.162L205.898 256.092L204.368 234.015C203.868 226.653 203.331 219.297 202.87 211.935L202.517 206.411L202.469 205.724C202.455 205.515 202.428 205.307 202.39 205.101C202.304 204.699 202.15 204.315 201.936 203.964C201.71 203.618 201.429 203.311 201.106 203.055C200.447 202.537 199.626 202.27 198.789 202.301C198.373 202.324 197.963 202.413 197.575 202.565L195.009 203.603L189.887 205.678C183.037 208.418 176.204 211.196 169.338 213.902C176.092 210.928 182.875 208.034 189.646 205.099L194.735 202.928L197.28 201.845C197.748 201.651 198.245 201.537 198.75 201.506C199.258 201.481 199.766 201.544 200.252 201.693C200.738 201.845 201.195 202.078 201.604 202.38C202.008 202.691 202.359 203.066 202.642 203.491C202.919 203.921 203.119 204.397 203.233 204.896C203.285 205.143 203.321 205.392 203.343 205.643L203.399 206.332L203.841 211.849C204.447 219.199 204.958 226.562 205.518 233.914L207.162 255.982L208.692 278.061C209.192 285.421 209.73 292.775 210.191 300.142L211.6 322.227C211.822 326.037 212.055 329.825 212.281 333.62Z" fill="#234662"/>
<path d="M183.197 269.652L180.324 251.781C180.213 251.083 179.942 250.42 179.532 249.844C179.123 249.268 178.585 248.794 177.963 248.46C177.34 248.125 176.648 247.94 175.942 247.916C175.235 247.893 174.533 248.034 173.89 248.327L145.507 261.196C144.805 261.515 144.191 262 143.719 262.609C143.247 263.219 142.931 263.934 142.798 264.693L111.383 444.501L137.09 257.848C137.218 256.917 137.619 256.044 138.244 255.342C138.868 254.64 139.688 254.139 140.598 253.904L174.894 245.037C175.549 244.868 176.233 244.841 176.899 244.958C177.566 245.076 178.199 245.334 178.757 245.717C179.315 246.099 179.785 246.597 180.135 247.176C180.485 247.755 180.706 248.402 180.785 249.074L183.197 269.652Z" fill="#081A35"/>
<path d="M266.263 96.1963L265.845 99.1354L265.615 100.759L250.108 94.982L252.121 89.4213L252.125 89.4089L253.111 87.6072L253.2 87.4495L266.263 96.1963Z" fill="#E0DBC4"/>
<path d="M308.02 92.2481C308.02 92.2481 306.196 93.7696 301.536 93.0099C299.383 92.6203 297.284 91.9772 295.282 91.094L292.524 89.7283L290.17 88.5597C287.456 87.2168 284.488 86.4641 281.463 86.3512C281.423 86.3512 281.384 86.3512 281.346 86.3512L276.919 86.2142C276.827 86.2104 276.736 86.2375 276.66 86.2913C276.585 86.345 276.53 86.4224 276.504 86.511C276.474 86.5995 276.475 86.6953 276.507 86.783C276.539 86.8708 276.599 86.9453 276.678 86.9946L277.139 87.2914L285.147 92.4162C285.439 92.7824 285.578 93.2472 285.535 93.7135C285.513 93.9951 285.427 94.2681 285.284 94.5118C285.141 94.7555 284.945 94.9636 284.71 95.1204C284.475 95.2773 284.207 95.3788 283.927 95.4173C283.648 95.4558 283.363 95.4304 283.094 95.3429L279.76 94.2864L273.303 92.4826L271.321 91.9326L270.242 91.6295C269.841 91.5175 269.421 91.4923 269.011 91.5557C268.6 91.619 268.207 91.7694 267.859 91.9968C267.511 92.2242 267.215 92.5233 266.992 92.8741C266.769 93.225 266.624 93.6194 266.566 94.0311L266.263 96.196L253.198 87.4513L253.229 87.3952L254.373 85.3009C256.379 81.6395 259.533 78.7393 263.349 77.0469C267.166 75.3546 271.433 74.9641 275.493 75.9355L289.468 79.2939L308.02 92.2481Z" fill="#FFD5CC"/>
<path opacity="0.6" d="M271.321 91.9285L270.241 91.6254C269.841 91.5134 269.421 91.4884 269.01 91.5519C268.599 91.6155 268.206 91.7663 267.858 91.9941C267.509 92.2219 267.214 92.5215 266.991 92.8729C266.768 93.2242 266.623 93.6191 266.566 94.0311L266.262 96.196L253.198 87.4513L253.229 87.3953L261.028 90.8346C262.295 91.3918 263.679 91.6305 265.06 91.53C266.44 91.4294 267.775 90.9926 268.948 90.2576C269.104 90.1583 269.29 90.1178 269.472 90.1433C269.655 90.1688 269.822 90.2586 269.945 90.3967L271.321 91.9285Z" fill="#F29796"/>
<path opacity="0.6" d="M301.544 93.0061C299.391 92.6165 297.292 91.9734 295.29 91.0902L292.532 89.7245L290.17 88.56C287.456 87.2172 284.488 86.4645 281.462 86.3515C281.423 86.3515 281.384 86.3515 281.346 86.3515L276.919 86.2145C276.826 86.2107 276.735 86.2378 276.66 86.2916C276.585 86.3454 276.53 86.4227 276.504 86.5113C276.393 86.3797 276.309 86.2272 276.258 86.063C276.207 85.8987 276.189 85.7258 276.205 85.5545C276.22 85.3789 276.269 85.2079 276.35 85.0515C276.432 84.8951 276.543 84.7563 276.678 84.643C276.813 84.5298 276.969 84.4444 277.137 84.3917C277.305 84.339 277.482 84.3201 277.658 84.3361L280.659 84.608C284.419 84.9491 288.076 86.0186 291.428 87.7567L301.544 93.0061Z" fill="#F29796"/>
<path opacity="0.36" d="M177.398 205.554L176.642 206.337L165.359 218.047L160.211 223.392C156.806 226.963 152.233 229.195 147.323 229.684C147.301 229.686 147.278 229.686 147.255 229.684C145.428 229.854 143.832 229.794 142.688 229.042C142.627 228.901 142.594 228.75 142.591 228.596C142.578 227.882 143.268 227.33 143.963 227.172C144.658 227.014 145.387 227.135 146.101 227.11C148.091 227.041 150.204 225.545 151.886 224.538C157.386 221.246 162.623 216.756 164.547 210.644C166.037 205.911 166.805 201.025 168.387 196.307C169.425 193.247 170.583 188.349 172.538 185.8C172.886 185.343 173.312 184.951 173.796 184.642L177.211 204.502L177.398 205.554Z" fill="#081A35"/>
<path opacity="0.65" d="M95.87 284.865L88.5554 444.516L87.2394 441.647L90.7681 272.988L90.4588 269.385L89.1968 254.776C89.1193 253.9 89.0204 253.026 88.9 252.155C88.7941 251.37 88.6654 250.587 88.5222 249.805C88.4018 249.168 88.2752 248.53 88.1299 247.899L95.8742 244.904C95.2245 245.705 95.87 284.865 95.87 284.865Z" fill="#081A35"/>
<path opacity="0.65" d="M211.953 333.709L199.368 337.053C197.384 336.152 195.298 320.255 194.623 317.478C192.801 309.98 190.987 302.477 189.227 294.963C185.883 280.664 182.651 266.288 180.322 251.789L211.953 333.709Z" fill="#081A35"/>
<defs>
<linearGradient id="paint0_linear" x1="126.212" y1="33.2042" x2="122.847" y2="44.2259" gradientUnits="userSpaceOnUse">
<stop stop-color="white"/>
<stop offset="1" stop-color="white" stop-opacity="0"/>
</linearGradient>
<linearGradient id="paint1_linear" x1="11964.3" y1="4554.48" x2="11779.1" y2="4969.73" gradientUnits="userSpaceOnUse">
<stop stop-color="white"/>
<stop offset="1" stop-color="white" stop-opacity="0"/>
</linearGradient>
<linearGradient id="paint2_linear" x1="17006.2" y1="4489.46" x2="16722.8" y2="5025.4" gradientUnits="userSpaceOnUse">
<stop stop-color="white"/>
<stop offset="1" stop-color="white" stop-opacity="0"/>
</linearGradient>
<linearGradient id="paint3_linear" x1="12246.4" y1="4476.16" x2="11955.6" y2="4879.74" gradientUnits="userSpaceOnUse">
<stop stop-color="white"/>
<stop offset="1" stop-color="white" stop-opacity="0"/>
</linearGradient>
</defs>
</svg>
