<svg width="84" height="80" viewBox="0 0 84 80" fill="none" xmlns="http://www.w3.org/2000/svg">
<path d="M83.1814 43.8526C82.4956 36.9732 79.6571 30.4854 75.07 25.3128C70.483 20.1402 64.3811 16.5464 57.633 15.043V10.9051C58.9439 10.5786 60.0902 9.7839 60.8558 8.67073C61.6213 7.55757 61.9533 6.20283 61.789 4.86184C61.6248 3.52086 60.9758 2.28625 59.9643 1.3907C58.9527 0.495145 57.6486 0.000504661 56.2976 0H44.5769C43.2259 0.000504661 41.9217 0.495145 40.9102 1.3907C39.8987 2.28625 39.2497 3.52086 39.0854 4.86184C38.9212 6.20283 39.2532 7.55757 40.0187 8.67073C40.7843 9.7839 41.9305 10.5786 43.2415 10.9051V15.0523C37.1679 16.4057 31.6068 19.4648 27.2119 23.8699C26.2252 24.856 25.3019 25.9035 24.4475 27.0063C24.4071 27.0063 24.3655 27.0005 24.3239 27.0005H12.7245C12.2929 27.0005 11.8788 27.172 11.5736 27.4773C11.2683 27.7825 11.0969 28.1965 11.0969 28.6282C11.0969 29.0599 11.2683 29.4739 11.5736 29.7791C11.8788 30.0844 12.2929 30.2559 12.7245 30.2559H22.233C21.0522 32.2336 20.0842 34.3308 19.345 36.5124H1.62768C1.19599 36.5124 0.781985 36.6839 0.476736 36.9892C0.171487 37.2944 0 37.7084 0 38.1401C0 38.5718 0.171487 38.9858 0.476736 39.2911C0.781985 39.5963 1.19599 39.7678 1.62768 39.7678H18.4243C17.9562 41.8228 17.6854 43.9179 17.6157 46.0244H10.4176C10.2039 46.0244 9.9922 46.0665 9.79472 46.1483C9.59724 46.2301 9.41781 46.35 9.26666 46.5011C9.11552 46.6522 8.99562 46.8317 8.91383 47.0292C8.83203 47.2266 8.78993 47.4383 8.78993 47.6521C8.78993 47.8658 8.83203 48.0775 8.91383 48.2749C8.99562 48.4724 9.11552 48.6518 9.26666 48.803C9.41781 48.9541 9.59724 49.074 9.79472 49.1558C9.9922 49.2376 10.2039 49.2797 10.4176 49.2797H17.6676C17.8053 51.393 18.1457 53.4882 18.6842 55.5363H8.13955C7.70786 55.5363 7.29385 55.7078 6.98861 56.013C6.68336 56.3183 6.51187 56.7323 6.51187 57.164C6.51187 57.5957 6.68336 58.0097 6.98861 58.3149C7.29385 58.6202 7.70786 58.7917 8.13955 58.7917H19.7239C21.8946 64.5108 25.6179 69.5108 30.475 73.2296C35.3321 76.9483 41.1303 79.2382 47.2177 79.8417C48.2959 79.948 49.3714 80.0008 50.4442 80C56.8126 80.0029 63.0454 78.1608 68.3891 74.6965C68.7509 74.4609 69.0043 74.0912 69.0936 73.6687C69.1828 73.2463 69.1006 72.8057 68.865 72.4438C68.6294 72.082 68.2597 71.8286 67.8373 71.7393C67.4148 71.6501 66.9742 71.7323 66.6124 71.9679C60.475 75.9573 53.078 77.5334 45.8475 76.3921C38.617 75.2508 32.065 71.473 27.4549 65.7872C22.8447 60.1013 20.5029 52.9099 20.8808 45.5997C21.2587 38.2894 24.3297 31.3779 29.5017 26.1978C34.6736 21.0176 41.5802 17.9357 48.8898 17.5461C56.1995 17.1565 63.3946 19.487 69.0878 24.0881C74.7809 28.6892 78.5691 35.2352 79.7219 42.4638C80.8747 49.6925 79.3104 57.092 75.3307 63.2357C75.2112 63.4149 75.1285 63.6161 75.0873 63.8275C75.0461 64.0389 75.0473 64.2564 75.0908 64.4673C75.1343 64.6783 75.2192 64.8785 75.3407 65.0564C75.4621 65.2342 75.6177 65.3862 75.7983 65.5036C75.9789 65.6209 76.181 65.7012 76.3929 65.7399C76.6048 65.7785 76.8222 65.7747 77.0327 65.7287C77.2431 65.6827 77.4423 65.5954 77.6187 65.4718C77.7951 65.3483 77.9452 65.191 78.0604 65.0089C82.112 58.7394 83.9174 51.281 83.1814 43.8526ZM42.2977 5.53688C42.2983 4.93258 42.5386 4.35321 42.9659 3.92591C43.3932 3.49861 43.9726 3.25828 44.5769 3.25767H56.2976C56.6011 3.25083 56.903 3.30472 57.1854 3.41616C57.4679 3.5276 57.7252 3.69435 57.9423 3.90662C58.1594 4.11888 58.3319 4.37239 58.4497 4.65225C58.5674 4.9321 58.6281 5.23267 58.6281 5.5363C58.6281 5.83993 58.5674 6.1405 58.4497 6.42036C58.3319 6.70021 58.1594 6.95372 57.9423 7.16599C57.7252 7.37825 57.4679 7.545 57.1854 7.65644C56.903 7.76789 56.6011 7.82177 56.2976 7.81494H44.5769C43.9728 7.81432 43.3936 7.57416 42.9663 7.1471C42.5391 6.72005 42.2986 6.14098 42.2977 5.53688ZM46.4957 14.4955V11.0714H54.3765V14.4862C51.7589 14.1762 49.1137 14.1793 46.4968 14.4955H46.4957Z" fill="#FF6F11"/>
<path d="M72.5616 67.5942C72.1849 67.595 71.8201 67.7263 71.5294 67.9659C71.2386 68.2054 71.0399 68.5382 70.967 68.9078C70.8941 69.2774 70.9515 69.6608 71.1295 69.9928C71.3075 70.3248 71.595 70.5848 71.9432 70.7286C72.2914 70.8724 72.6786 70.891 73.039 70.7814C73.3994 70.6718 73.7107 70.4406 73.9198 70.1273C74.1289 69.814 74.223 69.4379 74.186 69.063C74.149 68.6882 73.9831 68.3377 73.7168 68.0713C73.41 67.7658 72.9946 67.5942 72.5616 67.5942Z" fill="#FF6F11"/>
<path d="M50.4616 21.8715C45.4673 21.8715 40.5851 23.3524 36.4325 26.1271C32.28 28.9018 29.0434 32.8455 27.1322 37.4597C25.2209 42.0738 24.7209 47.151 25.6952 52.0493C26.6695 56.9477 29.0745 61.4471 32.606 64.9786C36.1375 68.51 40.6369 70.915 45.5352 71.8894C50.4335 72.8637 55.5108 72.3636 60.1249 70.4524C64.739 68.5412 68.6828 65.3046 71.4574 61.152C74.2321 56.9994 75.7131 52.1173 75.7131 47.123C75.7054 40.4282 73.0426 34.0098 68.3087 29.2759C63.5747 24.542 57.1563 21.8791 50.4616 21.8715ZM50.4616 69.1192C46.1111 69.1192 41.8584 67.8292 38.2411 65.4122C34.6239 62.9952 31.8046 59.5599 30.1397 55.5406C28.4749 51.5213 28.0393 47.0986 28.888 42.8318C29.7367 38.5649 31.8317 34.6456 34.9079 31.5694C37.9841 28.4931 41.9035 26.3982 46.1703 25.5495C50.4371 24.7007 54.8598 25.1363 58.8791 26.8012C62.8984 28.466 66.3337 31.2853 68.7507 34.9026C71.1677 38.5198 72.4577 42.7726 72.4577 47.123C72.451 52.9547 70.1314 58.5456 66.0078 62.6692C61.8841 66.7929 56.2932 69.1125 50.4616 69.1192Z" fill="#FF6F11"/>
<path d="M60.759 34.5243L52.6968 42.5864C52.0021 42.2432 51.2376 42.0647 50.4627 42.0647C49.6878 42.0647 48.9233 42.2432 48.2285 42.5864L44.6197 38.9776C44.3143 38.6723 43.9003 38.5008 43.4685 38.5008C43.0367 38.5008 42.6227 38.6723 42.3174 38.9776C42.0121 39.2829 41.8405 39.697 41.8405 40.1287C41.8405 40.5605 42.0121 40.9746 42.3174 41.2799L45.9262 44.8888C45.5457 45.66 45.3681 46.5155 45.4101 47.3745C45.4522 48.2335 45.7125 49.0675 46.1666 49.7979C46.6207 50.5283 47.2535 51.1308 48.0052 51.5486C48.7569 51.9664 49.6027 52.1857 50.4627 52.1857C51.3227 52.1857 52.1685 51.9664 52.9202 51.5486C53.6719 51.1308 54.3047 50.5283 54.7588 49.7979C55.2128 49.0675 55.4732 48.2335 55.5152 47.3745C55.5573 46.5155 55.3797 45.66 54.9992 44.8888L62.8245 37.0634L63.0555 36.8324C63.3608 36.5271 63.5323 36.113 63.5323 35.6812C63.5323 35.2494 63.3608 34.8354 63.0555 34.53C62.7502 34.2247 62.3361 34.0532 61.9044 34.0532C61.4726 34.0532 61.0585 34.2247 60.7532 34.53L60.759 34.5243ZM50.4627 48.9262C50.1063 48.9262 49.7578 48.8205 49.4615 48.6225C49.1651 48.4244 48.9341 48.143 48.7977 47.8137C48.6613 47.4844 48.6257 47.1221 48.6952 46.7725C48.7647 46.4229 48.9364 46.1018 49.1884 45.8498C49.4404 45.5977 49.7615 45.4261 50.1111 45.3566C50.4607 45.287 50.823 45.3227 51.1523 45.4591C51.4816 45.5955 51.7631 45.8265 51.9611 46.1229C52.1591 46.4192 52.2648 46.7676 52.2648 47.1241C52.2642 47.6018 52.0741 48.0598 51.7363 48.3977C51.3985 48.7355 50.9404 48.9256 50.4627 48.9262Z" fill="#FF6F11"/>
<path d="M67.867 45.5149H66.3583C65.9266 45.5149 65.5126 45.6864 65.2073 45.9916C64.9021 46.2969 64.7306 46.7109 64.7306 47.1426C64.7306 47.5743 64.9021 47.9883 65.2073 48.2935C65.5126 48.5988 65.9266 48.7703 66.3583 48.7703H67.867C68.0807 48.7703 68.2924 48.7282 68.4899 48.6464C68.6873 48.5646 68.8667 48.4447 69.0179 48.2935C69.169 48.1424 69.289 47.9629 69.3707 47.7655C69.4525 47.568 69.4946 47.3564 69.4946 47.1426C69.4946 46.9289 69.4525 46.7172 69.3707 46.5197C69.289 46.3222 69.169 46.1428 69.0179 45.9916C68.8667 45.8405 68.6873 45.7206 68.4899 45.6388C68.2924 45.557 68.0807 45.5149 67.867 45.5149Z" fill="#FF6F11"/>
<path d="M34.5693 45.4756H33.0618C32.6301 45.4756 32.2161 45.6471 31.9109 45.9523C31.6056 46.2576 31.4341 46.6716 31.4341 47.1033C31.4341 47.5349 31.6056 47.9489 31.9109 48.2542C32.2161 48.5594 32.6301 48.7309 33.0618 48.7309H34.5693C35.001 48.7309 35.415 48.5594 35.7203 48.2542C36.0255 47.9489 36.197 47.5349 36.197 47.1033C36.197 46.6716 36.0255 46.2576 35.7203 45.9523C35.415 45.6471 35.001 45.4756 34.5693 45.4756Z" fill="#FF6F11"/>
<path d="M50.4418 61.392C50.0101 61.392 49.5961 61.5635 49.2909 61.8687C48.9856 62.174 48.8141 62.588 48.8141 63.0196V64.5272C48.8141 64.9589 48.9856 65.3729 49.2909 65.6781C49.5961 65.9834 50.0101 66.1548 50.4418 66.1548C50.8735 66.1548 51.2875 65.9834 51.5928 65.6781C51.898 65.3729 52.0695 64.9589 52.0695 64.5272V63.0173C52.0689 62.586 51.8971 62.1726 51.5919 61.8679C51.2868 61.5631 50.8731 61.392 50.4418 61.392Z" fill="#FF6F11"/>
<path d="M1.62774 55.5386C1.36022 55.5392 1.09697 55.6058 0.861299 55.7324C0.625629 55.859 0.424802 56.0418 0.276588 56.2645C0.128373 56.4872 0.0373426 56.7431 0.0115499 57.0093C-0.0142427 57.2756 0.0259983 57.5441 0.128712 57.7912C0.231426 58.0382 0.393445 58.2561 0.600434 58.4256C0.807422 58.5951 1.053 58.7109 1.31543 58.7629C1.57786 58.8149 1.84906 58.8014 2.10503 58.7236C2.36099 58.6458 2.59383 58.5061 2.78295 58.3168C3.01071 58.0889 3.16572 57.7986 3.22831 57.4825C3.29091 57.1664 3.25829 56.8389 3.13458 56.5413C3.01087 56.2438 2.80164 55.9897 2.5334 55.8112C2.26515 55.6327 1.94996 55.5378 1.62774 55.5386Z" fill="#FF6F11"/>
</svg>
