<svg width="76" height="75" viewBox="0 0 76 75" fill="none" xmlns="http://www.w3.org/2000/svg">
<path d="M57.4324 25.5237C57.2549 25.0989 57.0347 24.6931 56.7752 24.3128H60.6365C62.4449 24.3128 64.1793 23.5943 65.4581 22.3156C66.7369 21.0368 67.4553 19.3024 67.4553 17.4939C67.4553 15.6855 66.7369 13.9511 65.4581 12.6723C64.1793 11.3935 62.4449 10.6751 60.6365 10.6751H48.7611C49.4632 9.6512 49.8725 8.45499 49.9447 7.21554C50.0169 5.97608 49.7494 4.74043 49.171 3.64186C48.5925 2.54329 47.7251 1.62351 46.6623 0.981711C45.5995 0.339916 44.3816 0.00047425 43.1401 0H6.81881C5.01035 0 3.27596 0.718408 1.99718 1.99718C0.718408 3.27596 0 5.01035 0 6.81881C0 8.62727 0.718408 10.3617 1.99718 11.6404C3.27596 12.9192 5.01035 13.6376 6.81881 13.6376H18.6901C17.9101 14.7716 17.4925 16.1155 17.4925 17.4919C17.4925 18.8682 17.9101 20.2122 18.6901 21.3462H14.8247C13.4099 21.3467 12.0303 21.7874 10.8771 22.6071C9.72387 23.4268 8.85419 24.5849 8.38857 25.9209C7.92294 27.2569 7.88444 28.7047 8.27839 30.0636C8.67233 31.4225 9.47922 32.6252 10.5872 33.505C9.78238 34.1423 9.13212 34.9534 8.68509 35.8776C8.23806 36.8018 8.00586 37.8151 8.00586 38.8417C8.00586 39.8684 8.23806 40.8817 8.68509 41.8059C9.13212 42.7301 9.78238 43.5412 10.5872 44.1785C9.78238 44.8158 9.13212 45.6269 8.68509 46.5511C8.23806 47.4753 8.00586 48.4886 8.00586 49.5152C8.00586 50.5419 8.23806 51.5552 8.68509 52.4794C9.13212 53.4036 9.78238 54.2147 10.5872 54.852C9.47922 55.7318 8.67233 56.9345 8.27839 58.2934C7.88444 59.6523 7.92294 61.1001 8.38857 62.4361C8.85419 63.7721 9.72387 64.9302 10.8771 65.7499C12.0303 66.5696 13.4099 67.0102 14.8247 67.0108H32.2957C34.9532 69.8534 38.233 72.0418 41.878 73.4045C45.523 74.7673 49.434 75.2672 53.3046 74.8652C57.1751 74.4632 60.9 73.1701 64.1871 71.0874C67.4742 69.0047 70.2343 66.189 72.2509 62.8609C74.2675 59.5328 75.4858 55.7829 75.8105 51.9051C76.1351 48.0273 75.5571 44.127 74.1218 40.5099C72.6866 36.8929 70.433 33.6575 67.5379 31.0573C64.6428 28.4571 61.1848 26.5628 57.4349 25.5229L57.4324 25.5237ZM60.6299 13.6376C61.6424 13.6524 62.6084 14.065 63.3191 14.7862C64.0299 15.5074 64.4283 16.4793 64.4283 17.4919C64.4283 18.5045 64.0299 19.4764 63.3191 20.1976C62.6084 20.9188 61.6424 21.3314 60.6299 21.3462H24.3127C23.8019 21.3536 23.2946 21.2594 22.8204 21.0691C22.3463 20.8787 21.9147 20.596 21.5508 20.2374C21.1869 19.8787 20.8979 19.4513 20.7006 18.98C20.5034 18.5087 20.4018 18.0028 20.4018 17.4919C20.4018 16.9809 20.5034 16.4751 20.7006 16.0038C20.8979 15.5324 21.1869 15.105 21.5508 14.7464C21.9147 14.3878 22.3463 14.105 22.8204 13.9147C23.2946 13.7243 23.8019 13.6302 24.3127 13.6376H60.6299ZM6.81881 10.6735C6.30792 10.6809 5.80065 10.5868 5.32649 10.3964C4.85234 10.2061 4.42075 9.92336 4.05683 9.56471C3.69292 9.20607 3.40393 8.77866 3.20668 8.30733C3.00943 7.836 2.90786 7.33016 2.90786 6.81922C2.90786 6.30828 3.00943 5.80244 3.20668 5.33111C3.40393 4.85978 3.69292 4.43237 4.05683 4.07373C4.42075 3.71508 4.85234 3.43237 5.32649 3.24202C5.80065 3.05167 6.30792 2.95749 6.81881 2.96495H43.1392C44.1517 2.97973 45.1177 3.39231 45.8285 4.11352C46.5392 4.83473 46.9376 5.80664 46.9376 6.81922C46.9376 7.8318 46.5392 8.80371 45.8285 9.52492C45.1177 10.2461 44.1517 10.6587 43.1392 10.6735H6.81881ZM14.8239 24.3111H51.1444C51.727 24.3113 52.302 24.4436 52.8261 24.6981C52.1245 24.6389 51.4163 24.6077 50.6999 24.6077C47.3853 24.6056 44.103 25.2595 41.0422 26.5316C37.9814 27.8036 35.2026 29.6688 32.8658 32.0196H14.8247C14.3139 32.0271 13.8066 31.9329 13.3324 31.7426C12.8583 31.5522 12.4267 31.2695 12.0628 30.9109C11.6989 30.5522 11.4099 30.1248 11.2126 29.6535C11.0154 29.1822 10.9138 28.6763 10.9138 28.1654C10.9138 27.6544 11.0154 27.1486 11.2126 26.6773C11.4099 26.2059 11.6989 25.7785 12.0628 25.4199C12.4267 25.0612 12.8583 24.7785 13.3324 24.5882C13.8066 24.3978 14.3139 24.3036 14.8247 24.3111H14.8239ZM14.8239 34.9846H30.3338C28.6303 37.3161 27.3413 39.9238 26.5235 42.6931H14.8247C13.8123 42.6784 12.8463 42.2658 12.1355 41.5446C11.4248 40.8234 11.0263 39.8514 11.0263 38.8389C11.0263 37.8263 11.4248 36.8544 12.1355 36.1332C12.8463 35.412 13.8123 34.9994 14.8247 34.9846H14.8239ZM14.8239 45.6581H25.8425C25.4172 48.2077 25.3865 50.8076 25.7513 53.3666H14.8247C14.3139 53.3741 13.8066 53.2799 13.3324 53.0896C12.8583 52.8992 12.4267 52.6165 12.0628 52.2579C11.6989 51.8992 11.4099 51.4718 11.2126 51.0005C11.0154 50.5291 10.9138 50.0233 10.9138 49.5124C10.9138 49.0014 11.0154 48.4956 11.2126 48.0242C11.4099 47.5529 11.6989 47.1255 12.0628 46.7669C12.4267 46.4082 12.8583 46.1255 13.3324 45.9352C13.8066 45.7448 14.3139 45.6506 14.8247 45.6581H14.8239ZM14.8239 64.0409C14.313 64.0484 13.8058 63.9542 13.3316 63.7639C12.8575 63.5735 12.4259 63.2908 12.062 62.9322C11.698 62.5735 11.409 62.1461 11.2118 61.6748C11.0146 61.2035 10.913 60.6976 10.913 60.1867C10.913 59.6757 11.0146 59.1699 11.2118 58.6986C11.409 58.2272 11.698 57.7998 12.062 57.4412C12.4259 57.0825 12.8575 56.7998 13.3316 56.6095C13.8058 56.4191 14.313 56.3249 14.8239 56.3324H26.3559C27.0954 59.0852 28.2984 61.692 29.9132 64.0409H14.8239ZM50.7007 72.0493C46.3028 72.0493 42.0036 70.7452 38.3468 68.3019C34.6901 65.8586 31.8399 62.3858 30.1568 58.3226C28.4737 54.2595 28.0333 49.7885 28.8912 45.4751C29.749 41.1616 31.8667 37.1994 34.9764 34.0895C38.0861 30.9796 42.0482 28.8616 46.3615 28.0034C50.6749 27.1452 55.1459 27.5853 59.2092 29.2681C63.2725 30.9509 66.7455 33.8008 69.1891 37.4574C71.6327 41.114 72.9371 45.4131 72.9374 49.811C72.9307 55.7066 70.5858 61.3589 66.4171 65.5279C62.2484 69.6969 56.5963 72.0422 50.7007 72.0493Z" fill="#FF6F11"/>
</svg>
