<svg width="72" height="80" viewBox="0 0 72 80" fill="none" xmlns="http://www.w3.org/2000/svg">
<path d="M71.4218 10.7548L68.0026 7.74465L71.4218 4.73455C71.6803 4.50864 71.8635 4.20914 71.947 3.87616C72.0305 3.54319 72.0102 3.19265 71.8889 2.87153C71.7675 2.55041 71.5509 2.27405 71.2681 2.07948C70.9853 1.8849 70.6498 1.78142 70.3065 1.78288H56.1612V1.17274C56.1612 0.861711 56.0377 0.56342 55.8177 0.343488C55.5978 0.123556 55.2995 0 54.9885 0C54.6774 0 54.3791 0.123556 54.1592 0.343488C53.9393 0.56342 53.8157 0.861711 53.8157 1.17274V16.9859L44.1861 22.2147C44.1319 21.7849 44.0029 21.3679 43.8048 20.9826L42.4478 18.334C41.9989 17.4601 41.2218 16.8 40.2868 16.4984C39.3519 16.1969 38.3355 16.2785 37.4606 16.7254L36.4117 17.2623C35.9785 17.484 35.5933 17.789 35.278 18.1596C34.9627 18.5303 34.7236 18.9595 34.5742 19.4226C34.4248 19.8857 34.3681 20.3737 34.4074 20.8588C34.4467 21.3438 34.5812 21.8164 34.8031 22.2494L36.1601 24.899C36.4651 25.4938 36.9264 25.9944 37.4943 26.3471C36.8221 27.3864 36.3432 28.5387 36.0809 29.7484L35.8283 30.6399C35.7863 30.788 35.774 30.943 35.7919 31.0959C35.8099 31.2488 35.8578 31.3967 35.933 31.5311C36.0081 31.6655 36.109 31.7838 36.2299 31.8792C36.3508 31.9745 36.4893 32.0452 36.6375 32.087C36.7412 32.1166 36.8486 32.1316 36.9565 32.1315C37.2118 32.1313 37.4601 32.0478 37.6637 31.8937C37.8672 31.7396 38.015 31.5234 38.0846 31.2777L38.3372 30.3863C38.8513 28.5737 39.1663 27.604 40.1716 27.0582L41.9723 26.0796L42.1942 25.9657C42.2685 25.9281 42.3368 25.8855 42.4072 25.8429L55.244 18.8718C55.2035 19.6785 54.9667 20.4632 54.5542 21.1576C54.1416 21.852 53.5658 22.4352 52.8767 22.8566L44.5298 27.9319L44.5011 27.9487L41.898 29.5295C41.6415 29.6865 41.4551 29.9361 41.3774 30.2266C41.2996 30.5172 41.3365 30.8265 41.4803 31.0906C41.6241 31.3548 41.864 31.5536 42.1502 31.6459C42.4364 31.7382 42.7472 31.7171 43.0183 31.5868L41.0472 37.5466L39.606 38.1409L35.6876 39.7464L36.8168 35.7548C36.9015 35.4554 36.8639 35.1347 36.7121 34.8631C36.5603 34.5915 36.3069 34.3914 36.0076 34.3067C35.7082 34.2219 35.3875 34.2596 35.1159 34.4114C34.8443 34.5631 34.6442 34.8165 34.5595 35.1159L32.7766 41.4253C32.7526 41.5086 32.7383 41.5943 32.734 41.6809L32.2674 50.2575C32.3032 50.6817 32.2698 51.1089 32.1684 51.5224L26.9901 62.4277H23.2262C22.1637 62.4269 21.1443 62.8481 20.3922 63.5987C19.6402 64.3493 19.217 65.3678 19.2157 66.4303V69.8148C18.6954 69.5766 18.1298 69.4536 17.5576 69.4542H7.99035C6.92911 69.4553 5.91164 69.8773 5.16124 70.6277C4.41083 71.3781 3.98879 72.3956 3.98774 73.4568V77.6545H1.17275C0.861717 77.6545 0.563423 77.7781 0.34349 77.998C0.123557 78.2179 0 78.5162 0 78.8273C0 79.1383 0.123557 79.4366 0.34349 79.6565C0.563423 79.8764 0.861717 80 1.17275 80H70.3095C70.6205 80 70.9188 79.8764 71.1387 79.6565C71.3587 79.4366 71.4822 79.1383 71.4822 78.8273C71.4822 78.5162 71.3587 78.2179 71.1387 77.998C70.9188 77.7781 70.6205 77.6545 70.3095 77.6545H67.2548V47.4346C67.2535 46.3735 66.8314 45.3562 66.081 44.6058C65.3307 43.8555 64.3133 43.4334 63.2522 43.4321H56.1612V22.9794C56.8181 22.0916 57.2652 21.0665 57.4692 19.9811C57.6732 18.8957 57.6286 17.7783 57.3389 16.7126C57.2694 16.4564 57.1151 16.2315 56.9012 16.0744C56.6873 15.9173 56.4264 15.8375 56.1612 15.8479V13.7084H70.3055C70.6495 13.7106 70.9858 13.6074 71.2694 13.4126C71.5529 13.2179 71.77 12.941 71.8915 12.6192C72.013 12.2974 72.033 11.9462 71.9488 11.6127C71.8647 11.2792 71.6804 10.9794 71.4208 10.7538L71.4218 10.7548ZM36.8049 20.1436C36.8594 19.9735 36.947 19.8159 37.0628 19.6799C37.1786 19.5439 37.3202 19.4322 37.4794 19.3512L38.5284 18.8144C38.6876 18.7331 38.8612 18.684 39.0394 18.6699C39.2176 18.6558 39.3968 18.6769 39.5668 18.7321C39.7368 18.7873 39.8942 18.8755 40.0302 18.9915C40.1661 19.1076 40.2777 19.2494 40.3588 19.4087L41.7158 22.0582C41.867 22.3545 41.9045 22.6959 41.8213 23.018C41.7381 23.34 41.5399 23.6205 41.2641 23.8065L40.8818 24.0135L40.0755 24.4265C39.7539 24.5901 39.3806 24.6194 39.0374 24.508C38.6942 24.3966 38.4092 24.1535 38.2451 23.8322L36.8881 21.1836C36.8063 21.0247 36.7568 20.8511 36.7426 20.673C36.7283 20.4948 36.7495 20.3155 36.8049 20.1456V20.1436ZM34.4495 62.7882C34.0426 62.6024 33.6073 62.4866 33.1619 62.4455L34.4495 60.7359V62.7882ZM40.0161 53.3409C40.4754 52.7259 40.7666 52.0019 40.861 51.2401C40.8927 51.0886 41.4711 47.9279 41.4711 47.9279C41.4711 47.9279 42.0189 48.2686 42.0763 48.2934C42.0959 48.3023 42.1128 48.3161 42.1255 48.3334C42.1382 48.3508 42.1461 48.3711 42.1486 48.3924L42.7865 54.8762H38.8572L40.0161 53.3409ZM46.9496 46.8691L45.9591 54.8742H45.1419L44.4823 48.1666C44.4408 47.7457 44.2919 47.3426 44.05 46.9957C43.8081 46.6489 43.4811 46.3699 43.1005 46.1856L41.9208 45.4378L42.7063 41.0796C42.7063 41.0796 46.0155 45.0109 46.0928 45.1109C46.7772 46.0024 47.012 46.358 46.9486 46.8661L46.9496 46.8691ZM34.2851 52.5436C34.5207 51.8419 34.632 51.1045 34.6139 50.3645L35.0398 42.5396L40.4628 40.317L39.4723 45.7775C39.4723 45.7924 39.4664 45.8073 39.4644 45.8221L38.6492 50.3368C38.5819 50.8835 38.414 51.4131 38.154 51.8988L30.23 62.4227H29.5862L34.2851 52.5436ZM6.33225 73.4568C6.33278 73.0173 6.50767 72.596 6.81854 72.2853C7.1294 71.9746 7.55084 71.8 7.99035 71.7997H17.5605C17.9994 71.801 18.42 71.9761 18.7301 72.2866C19.0403 72.5972 19.2149 73.0179 19.2157 73.4568V77.6545H6.33225V73.4568ZM21.5631 73.4568V66.4303C21.5637 65.9907 21.7385 65.5692 22.0494 65.2584C22.3602 64.9476 22.7816 64.7727 23.2212 64.7722H32.7914C33.2311 64.7725 33.6527 64.9472 33.9636 65.2581C34.2745 65.569 34.4492 65.9906 34.4495 66.4303V77.6545H21.5631V73.4548V73.4568ZM64.9103 47.4346V77.6545H52.0249V70.622C52.0249 70.311 51.9013 70.0127 51.6814 69.7928C51.4615 69.5728 51.1632 69.4493 50.8521 69.4493C50.5411 69.4493 50.2428 69.5728 50.0229 69.7928C49.803 70.0127 49.6794 70.311 49.6794 70.622V77.6545H36.794V58.8827C36.7945 58.4432 36.9694 58.0219 37.2803 57.7112C37.5912 57.4005 38.0126 57.2259 38.4521 57.2256H48.0223C48.4618 57.2259 48.8832 57.4005 49.1941 57.7112C49.505 58.0219 49.6799 58.4432 49.6804 58.8827V64.7603C49.6804 65.0713 49.8039 65.3696 50.0239 65.5896C50.2438 65.8095 50.5421 65.933 50.8531 65.933C51.1642 65.933 51.4625 65.8095 51.6824 65.5896C51.9023 65.3696 52.0259 65.0713 52.0259 64.7603V47.4346C52.0264 46.9949 52.2014 46.5733 52.5125 46.2624C52.8235 45.9516 53.2452 45.7768 53.685 45.7765H63.2542C63.6938 45.7771 64.1152 45.9519 64.426 46.2628C64.7369 46.5736 64.9117 46.995 64.9123 47.4346H64.9103ZM53.685 43.4321C52.6238 43.4334 51.6065 43.8555 50.8562 44.6058C50.1058 45.3562 49.6837 46.3735 49.6824 47.4346V55.2407C49.2537 55.0447 48.7935 54.9266 48.3234 54.892L49.2802 47.1573C49.3179 46.5168 49.219 45.8757 48.9902 45.2763C48.7614 44.677 48.4078 44.1331 47.953 43.6807C47.8747 43.5816 43.3164 38.1666 43.3164 38.1666L46.1126 29.7147L53.8137 25.0357V43.4321H53.685ZM56.1612 11.3639V4.12639H68.5632L65.8889 6.4788C65.7086 6.63684 65.5641 6.83157 65.4651 7.04996C65.3661 7.26835 65.3149 7.50537 65.3149 7.74515C65.3149 7.98493 65.3661 8.22194 65.4651 8.44033C65.5641 8.65872 65.7086 8.85345 65.8889 9.01149L68.5632 11.3639H56.1612Z" fill="#FF6F11"/>
</svg>
