<svg width="77" height="51" viewBox="0 0 77 51" fill="none" xmlns="http://www.w3.org/2000/svg">
<path d="M71.9253 10.4997H21C20.9998 4.71015 16.2897 0 10.5 0C4.7103 0 0 4.71045 0 10.5V49.5C0 50.3285 0.67155 51 1.5 51H19.5C20.3284 51 21 50.3285 21 49.5V20.2497H71.9253C74.6133 20.2497 76.8003 18.0627 76.8003 15.3747C76.8003 12.6867 74.6133 10.4997 71.9253 10.4997ZM18 12V17.25H12.3561C11.5276 17.25 10.8561 17.9216 10.8561 18.75C10.8561 19.5785 11.5276 20.25 12.3561 20.25H18V48.0003H3V48.0002V44.6837H8.6439C9.47235 44.6837 10.1439 44.0121 10.1439 43.1837C10.1439 42.3552 9.47235 41.6837 8.6439 41.6837H3V10.5002C3 6.36465 6.3645 3.0003 10.5 3.0003C14.6355 3.0003 18 6.3648 18 10.5002V12ZM23.3787 17.2497H21V13.4997H27.1287L23.3787 17.2497ZM35.3788 17.2497H27.6216L31.3716 13.4997H39.1288L35.3788 17.2497ZM47.3788 17.2497H39.6216L43.3716 13.4997H51.1288L47.3788 17.2497ZM59.3788 17.2497H51.6216L55.3716 13.4997H63.1288L59.3788 17.2497ZM71.9253 17.2497H63.6216L67.3716 13.4997H71.9253C72.9593 13.4997 73.8003 14.3407 73.8003 15.3747C73.8003 16.4086 72.9593 17.2497 71.9253 17.2497Z" fill="#EF6B16"/>
<path d="M10.5 6.00024C8.01872 6.00024 6.00002 8.01894 6.00002 10.5002C6.00002 12.9815 8.01872 15.0004 10.5 15.0004C12.9813 15.0002 15.0002 12.9815 15.0002 10.5002C15.0002 8.01894 12.9813 6.00024 10.5 6.00024ZM10.5 12.0002C9.67292 12.0002 9.00002 11.3273 9.00002 10.5001C9.00002 9.67299 9.67292 9.00009 10.5 9.00009C11.3273 9.00009 12.0002 9.67299 12.0002 10.5001C12.0002 11.3275 11.3273 12.0002 10.5 12.0002Z" fill="#EF6B16"/>
<path d="M7.74857 17.2502H7.71017C6.88172 17.2502 6.21017 17.9218 6.21017 18.7502C6.21017 19.5787 6.88172 20.2502 7.71017 20.2502H7.74857C8.57702 20.2502 9.24857 19.5787 9.24857 18.7502C9.24857 17.9218 8.57702 17.2502 7.74857 17.2502Z" fill="#EF6B16"/>
<path d="M13.2899 41.6838H13.2515C12.423 41.6838 11.7515 42.3554 11.7515 43.1838C11.7515 44.0123 12.423 44.6838 13.2515 44.6838H13.2899C14.1183 44.6838 14.7899 44.0123 14.7899 43.1838C14.7899 42.3554 14.1183 41.6838 13.2899 41.6838Z" fill="#EF6B16"/>
</svg>
