<svg width="65" height="60" viewBox="0 0 65 60" fill="none" xmlns="http://www.w3.org/2000/svg">
<path d="M33.6395 26.9166H36.6021V29.3292C36.6021 29.8425 36.9115 30.3056 37.3856 30.502C37.5428 30.567 37.708 30.5987 37.8716 30.5987C38.2019 30.5987 38.5267 30.4698 38.7692 30.2268L42.0794 26.9166H58.5249C62.0949 26.9166 65 24.012 65 20.4415V6.47512C65 2.90455 62.0949 0 58.5249 0H33.6395C30.069 0 27.1639 2.90455 27.1639 6.47512V20.4415C27.1639 24.012 30.069 26.9166 33.6395 26.9166ZM29.7035 6.47512C29.7035 4.30501 31.4689 2.53907 33.6395 2.53907H58.5249C60.695 2.53907 62.4604 4.30501 62.4604 6.47512V20.4415C62.4604 22.6116 60.695 24.3775 58.5249 24.3775H41.5538C41.217 24.3775 40.8942 24.5114 40.6557 24.7495L39.1412 26.264V25.6471C39.1412 24.9458 38.5728 24.3775 37.8716 24.3775H33.6395C31.4689 24.3775 29.7035 22.6116 29.7035 20.4415V6.47512Z" fill="#FF6F11"/>
<path d="M33.886 21.1825H47.0907C47.7914 21.1825 48.3602 20.6137 48.3602 19.9125V17.904C48.3602 15.5172 46.6826 13.5162 44.445 13.0144C44.7599 12.4039 44.9389 11.7131 44.9389 10.9806V10.1852C44.9389 7.73091 42.9424 5.73438 40.4881 5.73438C38.0343 5.73438 36.0378 7.73091 36.0378 10.1852V10.9806C36.0378 11.7131 36.2168 12.4039 36.5317 13.0144C34.2937 13.5162 32.6165 15.5172 32.6165 17.904V19.9125C32.6165 20.6137 33.1848 21.1825 33.886 21.1825ZM38.5769 10.1852C38.5769 9.13137 39.4343 8.27394 40.4881 8.27394C41.5419 8.27394 42.3994 9.13137 42.3994 10.1852V10.9806C42.3994 12.0344 41.5419 12.8919 40.4881 12.8919C39.4343 12.8919 38.5769 12.0344 38.5769 10.9806V10.1852ZM35.1556 17.904C35.1556 16.5403 36.2649 15.4309 37.6287 15.4309H43.3475C44.7113 15.4309 45.8207 16.5403 45.8207 17.904V18.643H35.1556V17.904Z" fill="#FF6F11"/>
<path d="M52.3032 10.3518H57.6784C58.3791 10.3518 58.9479 9.7835 58.9479 9.08228C58.9479 8.38106 58.3791 7.81274 57.6784 7.81274H52.3032C51.6025 7.81274 51.0337 8.38106 51.0337 9.08228C51.0337 9.7835 51.6025 10.3518 52.3032 10.3518Z" fill="#FF6F11"/>
<path d="M52.3032 15.4307H57.6784C58.3791 15.4307 58.9479 14.8624 58.9479 14.1611C58.9479 13.4599 58.3791 12.8916 57.6784 12.8916H52.3032C51.6025 12.8916 51.0337 13.4599 51.0337 14.1611C51.0337 14.8624 51.6025 15.4307 52.3032 15.4307Z" fill="#FF6F11"/>
<path d="M52.3032 20.5095H57.6784C58.3791 20.5095 58.9479 19.9412 58.9479 19.24C58.9479 18.5388 58.3791 17.9705 57.6784 17.9705H52.3032C51.6025 17.9705 51.0337 18.5388 51.0337 19.24C51.0337 19.9412 51.6025 20.5095 52.3032 20.5095Z" fill="#FF6F11"/>
<path d="M64.6281 57.736L61.7795 54.8875C61.3679 54.4759 60.8209 54.2492 60.2387 54.2492C59.6565 54.2492 59.1091 54.4759 58.6975 54.8875L56.6553 56.9296L54.6097 54.884C53.7597 54.0345 52.3771 54.0345 51.5276 54.884L49.4953 56.9163L47.347 54.768C46.497 53.9185 45.1144 53.9185 44.2649 54.768L42.4311 56.6018L39.654 51.8947L41.1417 50.8939C41.1427 50.8929 41.1442 50.8924 41.1452 50.8914L41.3207 50.7734C43.0167 49.6318 44.1028 47.8103 44.2997 45.7751C44.4965 43.7404 43.7804 41.7443 42.3354 40.2988L37.0936 35.057C34.7216 32.6855 30.9031 32.4048 28.2103 34.4044L24.8178 36.9236C24.5609 37.1145 24.1969 37.0877 23.9708 36.8616L17.9811 30.872C17.755 30.6458 17.7282 30.2818 17.9187 30.025L20.4384 26.6324C22.4379 23.9396 22.1572 20.1206 19.7858 17.7497L14.544 12.5074C13.0984 11.0618 11.1019 10.3462 9.06714 10.5431C7.03242 10.74 5.21093 11.826 4.06935 13.522L3.91561 13.7506C3.91413 13.7526 3.91264 13.7546 3.91165 13.7566L2.00834 16.5853C-1.14169 21.2667 -0.532215 27.5603 3.45739 31.5499L9.78423 37.8762C10.2801 38.3721 11.084 38.3721 11.5799 37.8762C12.0758 37.3808 12.0758 36.5764 11.5799 36.0805L5.25309 29.7542C2.11992 26.621 1.64136 21.6788 4.11497 18.0031L5.1663 16.441L16.4582 27.7329L15.88 28.5114C14.9447 29.7711 15.0761 31.5583 16.1855 32.6677L22.1751 38.6568C23.2844 39.7666 25.0712 39.8981 26.3313 38.9623L27.1624 38.3459L38.4563 49.6397L36.8397 50.7278C33.1635 53.2014 28.2212 52.7228 25.0885 49.5897L18.7622 43.2633C18.2663 42.7679 17.4629 42.7679 16.9665 43.2633C16.4706 43.7592 16.4706 44.5631 16.9665 45.059L23.2929 51.3854C25.5745 53.667 28.6085 54.8428 31.6648 54.8428C33.6797 54.8428 35.704 54.3306 37.527 53.2877L40.4806 58.2924C40.8258 58.8771 41.41 59.2614 42.0834 59.3467C42.7574 59.4315 43.4189 59.2059 43.8985 58.7258L45.8057 56.8181L47.954 58.9664C48.804 59.8158 50.1866 59.8158 51.0361 58.9664L53.0684 56.9341L55.114 58.9802C55.964 59.8297 57.3466 59.8297 58.1961 58.9802L60.2387 56.9376L62.8324 59.5312C63.0803 59.7792 63.4051 59.9031 63.73 59.9031C64.0553 59.9031 64.3801 59.7792 64.6281 59.5312C65.124 59.0353 65.124 58.2314 64.6281 57.736ZM6.66048 14.3442C7.36021 13.6242 8.29302 13.1694 9.31212 13.0707C10.5901 12.9473 11.8413 13.3961 12.7483 14.3031L17.9901 19.5454C19.4778 21.0331 19.6539 23.4293 18.3997 25.1184L17.9886 25.6723L6.66048 14.3442ZM29.7243 36.443C31.4134 35.1884 33.8096 35.3644 35.2974 36.8527L40.5392 42.0945C41.4462 43.0015 41.8955 44.2541 41.772 45.5306C41.6753 46.5279 41.2374 47.4424 40.5441 48.1366L29.223 36.8155L29.7243 36.443Z" fill="#FF6F11"/>
<path d="M14.2733 39.3003C13.938 39.3003 13.6117 39.4362 13.3757 39.6722C13.1381 39.9088 13.0037 40.2361 13.0037 40.5698C13.0037 40.9041 13.1381 41.2314 13.3757 41.4679C13.6117 41.7035 13.9385 41.8399 14.2733 41.8399C14.6075 41.8399 14.9348 41.704 15.1709 41.4679C15.4069 41.2314 15.5428 40.9041 15.5428 40.5698C15.5428 40.2361 15.4074 39.9088 15.1709 39.6722C14.9348 39.4362 14.6075 39.3003 14.2733 39.3003Z" fill="#FF6F11"/>
</svg>
