<svg width="68" height="60" viewBox="0 0 68 60" fill="none" xmlns="http://www.w3.org/2000/svg">
<path d="M66.2551 13.6089H54.4998L56.3366 9.93849C56.5284 9.55507 56.6429 9.13762 56.6734 8.70996C56.704 8.28231 56.6499 7.85282 56.5145 7.44604C56.3791 7.03925 56.1648 6.66313 55.884 6.33914C55.6032 6.01515 55.2613 5.74964 54.8779 5.55778C54.4945 5.36592 54.077 5.25145 53.6494 5.22092C53.2217 5.19039 52.7922 5.24439 52.3854 5.37984C51.9787 5.51529 51.6025 5.72953 51.2785 6.01034C50.9546 6.29115 50.689 6.63302 50.4972 7.01644L48.8866 10.2345C48.584 9.83467 48.1926 9.51066 47.7433 9.28798C47.2941 9.06531 46.7992 8.95007 46.2978 8.95135C46.2453 8.95135 46.1965 8.95975 46.1456 8.96185C46.2613 8.1937 46.0992 7.40946 45.6883 6.75019C45.2774 6.09091 44.6448 5.59988 43.9042 5.36539C43.1636 5.13091 42.3637 5.16836 41.6482 5.47101C40.9328 5.77367 40.3488 6.32167 40.0013 7.01644L38.8431 9.33078L35.0767 1.8042C34.8848 1.42074 34.6193 1.07883 34.2954 0.797974C33.9714 0.517119 33.5953 0.302825 33.1885 0.167327C32.367 -0.106324 31.4704 -0.0424098 30.6959 0.345008C29.9215 0.732427 29.3327 1.41161 29.0591 2.23316C28.7854 3.0547 28.8493 3.9513 29.2368 4.72572L33.6818 13.6089H0.918388C0.674859 13.609 0.441344 13.7058 0.269143 13.878C0.0969422 14.0502 0.00013904 14.2838 0 14.5273L0 18.7256C0 18.9692 0.0967585 19.2028 0.26899 19.375C0.441221 19.5473 0.674817 19.644 0.918388 19.644H33.6823L31.8455 23.3144C31.4648 24.088 31.4056 24.9808 31.6807 25.7979C31.9558 26.6151 32.5429 27.2902 33.314 27.6761C34.085 28.062 34.9773 28.1272 35.7963 27.8576C36.6153 27.588 37.2944 27.0054 37.6854 26.237L39.2955 23.019C39.5981 23.4185 39.9895 23.7424 40.4386 23.9649C40.8878 24.1875 41.3825 24.3027 41.8838 24.3016C41.9362 24.3016 41.9856 24.2937 42.0365 24.2911C41.9202 25.0595 42.082 25.8442 42.4928 26.5039C42.9036 27.1637 43.5364 27.6551 44.2774 27.8897C45.0183 28.1244 45.8186 28.0868 46.5343 27.7838C47.25 27.4808 47.834 26.9323 48.1813 26.237L49.339 23.9232L53.1049 31.4492C53.4924 32.2237 54.1716 32.8126 54.9933 33.0862C55.8149 33.3599 56.7116 33.2959 57.4861 32.9084C58.2606 32.5209 58.8494 31.8417 59.1231 31.02C59.3967 30.1984 59.3328 29.3017 58.9453 28.5272L54.4998 19.644H66.2551C66.3758 19.6441 66.4952 19.6204 66.6067 19.5742C66.7181 19.5281 66.8194 19.4605 66.9047 19.3752C66.99 19.2899 67.0576 19.1886 67.1038 19.0772C67.1499 18.9657 67.1736 18.8463 67.1735 18.7256V14.5273C67.1735 14.2837 67.0768 14.0501 66.9045 13.8779C66.7323 13.7057 66.4987 13.6089 66.2551 13.6089ZM30.9418 2.51634C31.0677 2.30731 31.246 2.13482 31.4591 2.01597C31.6722 1.89713 31.9127 1.83606 32.1567 1.83883C32.4219 1.83743 32.6821 1.91046 32.9078 2.04962C33.1335 2.18878 33.3157 2.38848 33.4335 2.62602L37.8161 11.3853L36.2191 14.5761L35.9903 14.1143L30.8794 3.90337C30.7683 3.6867 30.7156 3.44481 30.7266 3.20157C30.7375 2.95833 30.8117 2.72215 30.9418 2.51634ZM1.83678 17.8072V15.4457H34.6007L35.1916 16.6265L34.9817 17.0463L34.6007 17.8072H1.83678ZM36.0423 25.4167C35.9241 25.6541 35.7418 25.8537 35.5161 25.9928C35.2903 26.1319 35.0301 26.2051 34.7649 26.2039C34.5216 26.2038 34.2824 26.1415 34.0699 26.0229C33.8575 25.9044 33.6788 25.7336 33.5508 25.5266C33.4229 25.3197 33.3499 25.0835 33.3389 24.8404C33.3278 24.5974 33.379 24.3555 33.4876 24.1378L35.9893 19.1397L36.9113 17.2961L41.6429 7.84089C41.7611 7.60362 41.9433 7.40416 42.1689 7.26504C42.3946 7.12593 42.6546 7.05273 42.9197 7.0537C43.1633 7.05358 43.4028 7.11577 43.6156 7.23435C43.8283 7.35293 44.0072 7.52396 44.1352 7.73118C44.2632 7.9384 44.3361 8.17491 44.3469 8.41824C44.3578 8.66157 44.3062 8.90363 44.197 9.12139L36.0423 25.4167ZM40.6715 21.7873C40.5408 21.5812 40.4664 21.3445 40.4555 21.1007C40.4446 20.8569 40.4977 20.6145 40.6096 20.3976L45.0231 11.5774C45.1413 11.3402 45.3235 11.1407 45.5491 11.0016C45.7747 10.8625 46.0348 10.7893 46.2999 10.7902C46.5435 10.7901 46.783 10.8522 46.9958 10.9708C47.2086 11.0894 47.3875 11.2604 47.5154 11.4677C47.6434 11.6749 47.7162 11.9115 47.727 12.1548C47.7377 12.3982 47.686 12.6402 47.5767 12.8579L43.1632 21.6776C43.0451 21.915 42.8628 22.1146 42.637 22.2537C42.4113 22.3929 42.151 22.466 41.8859 22.4648C41.642 22.4674 41.4016 22.4063 41.1886 22.2874C40.9756 22.1686 40.7973 21.9962 40.6715 21.7873ZM46.5402 25.4146C46.4221 25.652 46.2398 25.8516 46.014 25.9907C45.7883 26.1298 45.5281 26.203 45.2629 26.2018C45.0197 26.2018 44.7806 26.1396 44.5682 26.0213C44.3558 25.903 44.1771 25.7324 44.049 25.5257C43.921 25.3191 43.8478 25.0831 43.8364 24.8402C43.825 24.5973 43.8758 24.3556 43.984 24.1378L52.1398 7.83827C52.258 7.601 52.4402 7.40153 52.6658 7.26242C52.8915 7.12331 53.1515 7.0501 53.4166 7.05108C53.6602 7.05096 53.8997 7.11315 54.1125 7.23173C54.3252 7.3503 54.5041 7.52133 54.6321 7.72855C54.7602 7.93577 54.833 8.17229 54.8439 8.41562C54.8547 8.65895 54.8031 8.901 54.694 9.11876L52.1917 14.1143L51.1422 16.2134L48.5182 21.4572L46.5402 25.4146ZM57.2423 30.7392C57.1163 30.948 56.9379 31.1204 56.7248 31.2392C56.5118 31.358 56.2714 31.4192 56.0275 31.4167C55.7623 31.4178 55.5021 31.3447 55.2763 31.2056C55.0506 31.0665 54.8683 30.8669 54.7501 30.6295L50.366 21.8707L51.9629 18.68L52.1917 19.1381L57.3022 29.349C57.4138 29.5661 57.4668 29.8085 57.456 30.0523C57.4451 30.2962 57.3708 30.5329 57.2402 30.7392H57.2423ZM65.3368 17.8072H53.5814L52.9905 16.6265L53.3332 15.9442L53.5814 15.4483H65.3368V17.8072Z" fill="#FF6F11"/>
<path d="M66.2551 40.387H33.4913L35.328 36.7166C35.7156 35.9423 35.7797 35.0457 35.5062 34.2241C35.3707 33.8173 35.1565 33.4411 34.8757 33.1171C34.5949 32.7931 34.2531 32.5276 33.8696 32.3357C33.0953 31.9481 32.1987 31.884 31.3771 32.1575C30.5555 32.431 29.8762 33.0197 29.4887 33.7941L27.8781 37.0121C27.5753 36.6124 27.1839 36.2886 26.7347 36.066C26.2854 35.8434 25.7906 35.7282 25.2893 35.7295C25.2368 35.7295 25.188 35.7374 25.1371 35.74C25.253 34.9718 25.091 34.1874 24.6801 33.528C24.2693 32.8686 23.6367 32.3774 22.896 32.1429C22.1554 31.9083 21.3553 31.9457 20.6398 32.2484C19.9243 32.5511 19.3403 33.0992 18.9928 33.7941L17.8346 36.1084L14.0681 28.5823C13.8772 28.1974 13.6121 27.854 13.2882 27.5718C12.9642 27.2895 12.5878 27.074 12.1804 26.9376C11.773 26.8011 11.3426 26.7464 10.914 26.7766C10.4854 26.8068 10.067 26.9213 9.68277 27.1136C9.29852 27.3058 8.956 27.572 8.67485 27.8969C8.39369 28.2218 8.17943 28.599 8.04435 29.0069C7.90927 29.4147 7.85602 29.8453 7.88767 30.2737C7.91931 30.7022 8.03522 31.1203 8.22876 31.5039L12.6738 40.387H0.918388C0.674817 40.387 0.441221 40.4838 0.26899 40.656C0.0967585 40.8283 0 41.0619 0 41.3054L0 45.5038C0.00013904 45.7473 0.0969422 45.9808 0.269143 46.153C0.441344 46.3252 0.674859 46.422 0.918388 46.4222H12.6738L10.837 50.0926C10.4495 50.8669 10.3855 51.7635 10.659 52.585C10.9326 53.4066 11.5213 54.0858 12.2956 54.4733C13.07 54.8608 13.9666 54.9248 14.7881 54.6512C15.6096 54.3777 16.2889 53.789 16.6764 53.0146L18.2869 49.7966C18.5897 50.1963 18.981 50.5202 19.4303 50.7429C19.8795 50.9656 20.3744 51.0809 20.8758 51.0797C20.9282 51.0797 20.977 51.0713 21.0279 51.0692C20.9122 51.8374 21.0744 52.6216 21.4853 53.2809C21.8961 53.9401 22.5288 54.4312 23.2693 54.6657C24.0099 54.9001 24.8099 54.8627 25.5253 54.56C26.2408 54.2574 26.8247 53.7094 27.1722 53.0146L28.3304 50.7003L32.0969 58.2274C32.49 58.9922 33.1688 59.571 33.9861 59.8383C34.8034 60.1056 35.6931 60.0396 36.4621 59.6549C37.2311 59.2701 37.8173 58.5975 38.0934 57.7832C38.3695 56.9688 38.3132 56.0784 37.9368 55.3053L33.4913 46.4222H66.2551C66.4987 46.4222 66.7323 46.3254 66.9045 46.1532C67.0768 45.9809 67.1735 45.7473 67.1735 45.5038V41.3054C67.1736 41.1848 67.1499 41.0653 67.1038 40.9539C67.0576 40.8424 66.99 40.7412 66.9047 40.6559C66.8194 40.5706 66.7181 40.5029 66.6067 40.4568C66.4952 40.4107 66.3758 40.387 66.2551 40.387ZM9.93329 29.2919C10.0593 29.083 10.2377 28.9106 10.4508 28.7918C10.6638 28.6729 10.9042 28.6118 11.1482 28.6143C11.4134 28.6132 11.6736 28.6863 11.8993 28.8255C12.1251 28.9646 12.3073 29.1642 12.4255 29.4015L16.8076 38.1588L15.2106 41.3511L9.87136 30.682C9.75971 30.465 9.70669 30.2225 9.71755 29.9787C9.72841 29.7349 9.80278 29.4981 9.93329 29.2919ZM1.83678 44.5854V42.2238H13.5921L13.9201 42.8793L14.1825 43.4041L13.7354 44.2962L13.5916 44.5828L1.83678 44.5854ZM15.0338 52.1949C14.9155 52.4322 14.7332 52.6317 14.5074 52.7708C14.2817 52.9099 14.0216 52.9831 13.7564 52.9821C13.5129 52.9821 13.2734 52.9198 13.0607 52.8012C12.848 52.6826 12.6692 52.5116 12.5413 52.3044C12.4133 52.0972 12.3405 51.8607 12.3297 51.6174C12.3189 51.3741 12.3705 51.1321 12.4796 50.9144L14.9813 45.9168L15.0532 45.773L20.6354 34.6164C20.7532 34.3789 20.9354 34.1792 21.1611 34.04C21.3868 33.9008 21.6471 33.8278 21.9122 33.8292C22.1553 33.8294 22.3943 33.8917 22.6066 34.01C22.8189 34.1284 22.9974 34.299 23.1253 34.5057C23.2532 34.7124 23.3263 34.9483 23.3375 35.1911C23.3488 35.4339 23.2978 35.6756 23.1896 35.8932L22.3704 37.5311L17.9569 46.3513L15.0338 52.1949ZM19.6609 48.5675C19.5304 48.3614 19.456 48.1247 19.445 47.881C19.4341 47.6372 19.4869 47.3949 19.5984 47.1779L24.0124 38.3571C24.1305 38.1198 24.3127 37.9203 24.5384 37.7811C24.7641 37.642 25.0242 37.5688 25.2893 37.5699C25.5327 37.5699 25.7721 37.6321 25.9847 37.7506C26.1973 37.8692 26.3761 38.0401 26.5041 38.2471C26.6321 38.4542 26.705 38.6906 26.716 38.9337C26.7269 39.1769 26.6755 39.4189 26.5666 39.6366L22.1526 48.4542C22.0344 48.6914 21.8522 48.8909 21.6265 49.03C21.4009 49.1691 21.1408 49.2423 20.8758 49.2413C20.6319 49.2441 20.3916 49.1832 20.1786 49.0647C19.9655 48.9461 19.787 48.774 19.6609 48.5654V48.5675ZM25.5296 52.1949C25.4113 52.4322 25.229 52.6317 25.0033 52.7708C24.7776 52.9099 24.5174 52.9831 24.2523 52.9821C24.0087 52.9821 23.7693 52.9198 23.5566 52.8012C23.3439 52.6826 23.1651 52.5116 23.0371 52.3044C22.9092 52.0972 22.8363 51.8607 22.8255 51.6174C22.8147 51.3741 22.8664 51.1321 22.9754 50.9144L23.7952 49.2765L28.2087 40.4568L31.1302 34.6185C31.2481 34.381 31.4302 34.1813 31.6559 34.0421C31.8816 33.9029 32.1419 33.8299 32.407 33.8313C32.6499 33.8315 32.8887 33.8936 33.1009 34.0118C33.313 34.13 33.4916 34.3004 33.6195 34.5068C33.7475 34.7132 33.8207 34.9489 33.8323 35.1915C33.8438 35.4341 33.7933 35.6756 33.6854 35.8932L31.1837 40.8929L30.1342 42.9921L27.5102 48.2364L25.5296 52.1949ZM36.2317 57.5147C36.1058 57.7237 35.9274 57.8961 35.7143 58.0149C35.5012 58.1338 35.2608 58.1949 35.0168 58.1922C34.7516 58.1934 34.4914 58.1203 34.2657 57.9812C34.0399 57.842 33.8576 57.6425 33.7395 57.405L29.3575 48.6483L30.9544 45.4571L36.2937 56.1277C36.4049 56.3443 36.4577 56.5862 36.4469 56.8294C36.436 57.0727 36.3619 57.3089 36.2317 57.5147ZM65.3368 44.5854H32.5723L32.195 43.8318L31.9814 43.4046L32.5718 42.2238H65.3368V44.5854Z" fill="#FF6F11"/>
</svg>
