<svg width="72" height="72" viewBox="0 0 72 72" fill="none" xmlns="http://www.w3.org/2000/svg">
<path d="M20.25 28.125H18V30.375H20.25V28.125Z" fill="#FF6F11"/>
<path d="M31.5 28.125H29.25V30.375H31.5V28.125Z" fill="#FF6F11"/>
<path d="M68.7848 40.5113L64.3894 39.8836C64.1803 39.2689 63.9335 38.6678 63.6503 38.0836L66.3098 34.5376C66.4722 34.3209 66.551 34.053 66.5318 33.7829C66.5126 33.5128 66.3966 33.2587 66.2051 33.0672L61.4318 28.2938C61.2484 28.1118 61.0073 27.9992 60.75 27.9755V17.1462C61.8026 16.3035 62.6524 15.235 63.2365 14.0197C63.8207 12.8045 64.1243 11.4735 64.125 10.1251C64.1353 8.42013 63.656 6.74804 62.7441 5.30742C61.8321 3.86681 60.5258 2.71823 58.9804 1.9981C58.8089 1.91714 58.6198 1.88082 58.4306 1.89253C58.2413 1.90423 58.0581 1.96357 57.898 2.06503C57.7378 2.16649 57.6059 2.30679 57.5145 2.47289C57.423 2.63899 57.3751 2.8255 57.375 3.0151V9.3151L55.125 10.0655L52.875 9.3151V3.0151C52.8742 2.82588 52.8257 2.63992 52.7339 2.47443C52.6422 2.30894 52.5102 2.16926 52.3502 2.06832C52.1901 1.96738 52.0072 1.90844 51.8183 1.89695C51.6295 1.88546 51.4407 1.9218 51.2696 2.0026C49.7249 2.72241 48.4191 3.87029 47.5072 5.31003C46.5953 6.74976 46.1156 8.4209 46.125 10.1251C46.1257 11.4735 46.4293 12.8045 47.0135 14.0197C47.5977 15.235 48.4474 16.3035 49.5 17.1462V24.7501H46.125C45.8543 24.7501 45.5926 24.8476 45.3881 25.0249C45.1835 25.2022 45.0497 25.4474 45.0113 25.7153L44.2834 30.8105L46.5109 31.1288L47.1004 27.0001H51.8996L52.4891 31.1288C52.5198 31.3427 52.6115 31.5433 52.7531 31.7065C52.8948 31.8697 53.0804 31.9886 53.2879 32.0491C54.2256 32.32 55.1309 32.6923 55.9879 33.1595C56.1775 33.2634 56.393 33.3105 56.6087 33.2952C56.8244 33.2798 57.0311 33.2026 57.204 33.0728L60.5351 30.5753L63.9281 33.9683L61.425 37.2995C61.2952 37.4724 61.218 37.6791 61.2027 37.8948C61.1873 38.1105 61.2344 38.326 61.3384 38.5156C61.8055 39.3726 62.1778 40.2779 62.4488 41.2156C62.5092 41.4231 62.6282 41.6087 62.7914 41.7504C62.9546 41.892 63.1551 41.9837 63.369 42.0143L67.4978 42.6038V47.4031L63.369 47.9926C63.1551 48.0233 62.9546 48.1149 62.7914 48.2566C62.6282 48.3982 62.5092 48.5839 62.4488 48.7913C62.1778 49.729 61.8055 50.6344 61.3384 51.4913C61.2344 51.6809 61.1873 51.8965 61.2027 52.1122C61.218 52.3278 61.2952 52.5345 61.425 52.7075L63.9225 56.0386L60.5295 59.4316L57.2006 56.9251C57.0277 56.7953 56.821 56.7181 56.6053 56.7028C56.3896 56.6874 56.1741 56.7345 55.9845 56.8385C55.1275 57.3056 54.2222 57.6779 53.2845 57.9488C53.077 58.0093 52.8914 58.1283 52.7498 58.2915C52.6081 58.4547 52.5165 58.6552 52.4858 58.8691L51.8996 63.0001H47.25V58.2425C47.2492 57.054 47.0787 55.8717 46.7438 54.7313C48.8866 55.3587 51.1757 55.2691 53.2629 54.4761C55.3501 53.6832 57.1213 52.2304 58.3071 50.3385C59.4929 48.4467 60.0285 46.2194 59.8324 43.9952C59.6363 41.7711 58.7192 39.6718 57.2206 38.0167C55.722 36.3616 53.7239 35.2411 51.5302 34.8256C49.3364 34.4102 47.067 34.7225 45.067 35.7152C43.067 36.7078 41.4459 38.3264 40.4501 40.3248C39.4544 42.3232 39.1385 44.5922 39.5505 46.7866C39.5235 46.7753 39.4976 46.7618 39.4706 46.7517L30.375 43.1135V41.3843C31.8783 40.6152 33.2098 39.549 34.2889 38.2501H37.125C38.0201 38.2501 38.8786 37.8945 39.5115 37.2616C40.1444 36.6286 40.5 35.7702 40.5 34.8751V32.4181C41.1558 32.1863 41.7239 31.7575 42.1267 31.1904C42.5294 30.6233 42.7471 29.9456 42.75 29.2501V25.8751C42.7471 25.1796 42.5294 24.5019 42.1267 23.9348C41.7239 23.3677 41.1558 22.9389 40.5 22.7071V21.3751C40.5 17.1979 38.8406 13.1919 35.8869 10.2382C32.9332 7.28447 28.9272 5.6251 24.75 5.6251C20.5728 5.6251 16.5668 7.28447 13.6131 10.2382C10.6594 13.1919 9 17.1979 9 21.3751V22.7071C8.34423 22.9389 7.77611 23.3677 7.37335 23.9348C6.9706 24.5019 6.75289 25.1796 6.75 25.8751V29.2501C6.75 30.1452 7.10558 31.0036 7.73852 31.6366C8.37145 32.2695 9.2299 32.6251 10.125 32.6251H12.375C12.447 32.6251 12.5168 32.6138 12.5876 32.6093C12.9335 34.4746 13.7028 36.2356 14.8361 37.7569C15.9695 39.2782 17.4367 40.5192 19.125 41.3843V43.1135L10.0294 46.7517C7.72827 47.6637 5.75529 49.2477 4.36764 51.2974C2.97999 53.3471 2.24204 55.7673 2.25 58.2425V68.6251C2.25 68.9235 2.36853 69.2096 2.57951 69.4206C2.79049 69.6316 3.07663 69.7501 3.375 69.7501H46.125C46.4234 69.7501 46.7095 69.6316 46.9205 69.4206C47.1315 69.2096 47.25 68.9235 47.25 68.6251V65.2501H52.875C53.1457 65.2501 53.4074 65.1525 53.612 64.9752C53.8165 64.7979 53.9503 64.5528 53.9888 64.2848L54.6165 59.8895C55.2312 59.6804 55.8323 59.4336 56.4165 59.1503L59.9625 61.8098C60.1792 61.9723 60.4471 62.0511 60.7172 62.0319C60.9873 62.0127 61.2414 61.8967 61.4329 61.7052L66.2063 56.9318C66.3977 56.7404 66.5137 56.4863 66.5329 56.2162C66.5522 55.9461 66.4733 55.6781 66.3109 55.4615L63.6514 51.9155C63.9346 51.3313 64.1815 50.7301 64.3905 50.1155L68.7859 49.4877C69.0535 49.4491 69.2982 49.3153 69.4752 49.111C69.6523 48.9067 69.7498 48.6454 69.75 48.3751V41.6251C69.75 41.3544 69.6525 41.0927 69.4752 40.8881C69.2979 40.6836 69.0527 40.5498 68.7848 40.5113ZM56.4098 30.8498C56.3569 30.824 56.2973 30.8071 56.2444 30.7823V16.8751H54V25.7963L53.9888 25.7153C53.9503 25.4474 53.8165 25.2022 53.612 25.0249C53.4074 24.8476 53.1457 24.7501 52.875 24.7501H51.75V16.5826C51.75 16.4011 51.7061 16.2224 51.6221 16.0615C51.5381 15.9007 51.4164 15.7626 51.2674 15.659C50.4311 15.0767 49.7375 14.3127 49.2386 13.4242C48.7396 12.5357 48.4484 11.5458 48.3865 10.5287C48.3247 9.51157 48.494 8.49366 48.8817 7.55129C49.2694 6.60892 49.8654 5.76655 50.625 5.08735V10.1251C50.625 10.3613 50.6992 10.5915 50.8374 10.7832C50.9755 10.9748 51.1704 11.1181 51.3945 11.1927L54.7695 12.3177C55.0003 12.3946 55.2497 12.3946 55.4805 12.3177L58.8555 11.1927C59.0796 11.1181 59.2745 10.9748 59.4127 10.7832C59.5508 10.5915 59.6251 10.3613 59.625 10.1251V5.08735C60.3853 5.76653 60.9818 6.6091 61.3699 7.55181C61.7579 8.49452 61.9274 9.51288 61.8656 10.5305C61.8038 11.548 61.5123 12.5384 61.013 13.4272C60.5137 14.316 59.8195 15.0802 58.9826 15.6623C58.8341 15.7656 58.7127 15.9032 58.6287 16.0634C58.5447 16.2236 58.5005 16.4017 58.5 16.5826V29.2872L56.4098 30.8498ZM41.625 45.0001C41.6126 43.241 42.1854 41.5278 43.2532 40.1298C44.321 38.7319 45.8232 37.7286 47.5236 37.2778C49.224 36.8271 51.0259 36.9543 52.646 37.6397C54.2661 38.325 55.6124 39.5295 56.4731 41.0637C57.3338 42.5978 57.6601 44.3746 57.4005 46.1144C57.141 47.8543 56.3104 49.4585 55.0394 50.6746C53.7685 51.8908 52.1292 52.65 50.3797 52.8326C48.6301 53.0153 46.8694 52.6111 45.3746 51.6837C44.5969 50.4379 43.602 49.3416 42.4373 48.4471C41.902 47.3769 41.6239 46.1966 41.625 45.0001ZM37.125 36.0001H35.7593C36.3075 34.9324 36.696 33.7899 36.9124 32.6093C36.9833 32.6093 37.053 32.6251 37.125 32.6251H38.25V34.8751C38.25 35.1735 38.1315 35.4596 37.9205 35.6706C37.7095 35.8816 37.4234 36.0001 37.125 36.0001ZM34.875 23.6251C34.3513 23.6238 33.835 23.5012 33.3665 23.267C32.8981 23.0328 32.4903 22.6933 32.175 22.2751L30.15 19.5751C30.0596 19.4546 29.9459 19.3534 29.8156 19.2777C29.6854 19.2019 29.5412 19.1531 29.3918 19.1341C29.2422 19.1157 29.0905 19.1273 28.9455 19.168C28.8005 19.2088 28.665 19.2779 28.5469 19.3715L24.7714 22.3876C23.7752 23.1848 22.5384 23.621 21.2625 23.6251H14.625V22.5001C14.625 19.8148 15.6917 17.2394 17.5905 15.3406C19.4894 13.4418 22.0647 12.3751 24.75 12.3751C27.4353 12.3751 30.0107 13.4418 31.9095 15.3406C33.8083 17.2394 34.875 19.8148 34.875 22.5001V23.6251ZM40.5 29.2501C40.5 29.5485 40.3815 29.8346 40.1705 30.0456C39.9595 30.2566 39.6734 30.3751 39.375 30.3751H37.125V24.7501H39.375C39.6734 24.7501 39.9595 24.8686 40.1705 25.0796C40.3815 25.2906 40.5 25.5767 40.5 25.8751V29.2501ZM24.75 7.8751C28.3292 7.87897 31.7608 9.30253 34.2917 11.8334C36.8226 14.3643 38.2461 17.7959 38.25 21.3751V22.5001H37.125C37.125 19.218 35.8212 16.0704 33.5005 13.7497C31.1797 11.4289 28.0321 10.1251 24.75 10.1251C21.468 10.1251 18.3203 11.4289 15.9996 13.7497C13.6788 16.0704 12.375 19.218 12.375 22.5001H11.25V21.3751C11.2539 17.7959 12.6774 14.3643 15.2083 11.8334C17.7392 9.30253 21.1708 7.87897 24.75 7.8751ZM10.125 30.3751C9.82663 30.3751 9.54049 30.2566 9.32951 30.0456C9.11853 29.8346 9 29.5485 9 29.2501V25.8751C9 25.5767 9.11853 25.2906 9.32951 25.0796C9.54049 24.8686 9.82663 24.7501 10.125 24.7501H12.375V30.3751H10.125ZM14.625 30.3751V25.8751H21.2625C23.05 25.8727 24.7839 25.2643 26.181 24.1493L29.0509 21.8532L30.375 23.6251C30.9005 24.3221 31.5802 24.8879 32.3609 25.2783C33.1416 25.6687 34.0021 25.8729 34.875 25.8751V30.3751C34.8768 32.3787 34.2806 34.3373 33.1628 36.0001H24.75V38.2501H31.0995C29.6138 39.4514 27.8183 40.2073 25.9208 40.4303C24.0233 40.6534 22.1014 40.3344 20.3776 39.5105C18.6538 38.6865 17.1987 37.3912 16.1806 35.7744C15.1626 34.1577 14.6232 32.2857 14.625 30.3751ZM24.75 42.7501C25.8918 42.7473 27.0276 42.586 28.125 42.2708V43.8751C28.125 44.7702 27.7694 45.6286 27.1365 46.2616C26.5036 46.8945 25.6451 47.2501 24.75 47.2501C23.8549 47.2501 22.9965 46.8945 22.3635 46.2616C21.7306 45.6286 21.375 44.7702 21.375 43.8751V42.2708C22.4724 42.586 23.6082 42.7473 24.75 42.7501ZM45 67.5001H38.25V55.1251H36V67.5001H13.5V55.1251H11.25V67.5001H4.5V58.2425C4.49345 56.2172 5.09725 54.237 6.23266 52.56C7.36808 50.8829 8.98243 49.5869 10.8653 48.8408L19.3736 45.4377C19.7059 46.6075 20.4106 47.637 21.3808 48.3701C22.3511 49.1032 23.5339 49.4998 24.75 49.4998C25.9661 49.4998 27.1489 49.1032 28.1192 48.3701C29.0895 47.637 29.7942 46.6075 30.1264 45.4377L38.6348 48.8408C40.5176 49.5869 42.1319 50.8829 43.2673 52.56C44.4028 54.237 45.0066 56.2172 45 58.2425V67.5001Z" fill="#FF6F11"/>
<path d="M50.625 29.25H48.375V31.5H50.625V29.25Z" fill="#FF6F11"/>
<path d="M50.625 58.5H48.375V60.75H50.625V58.5Z" fill="#FF6F11"/>
<path d="M59.8404 53.7508L58.2494 55.3418L59.8404 56.9328L61.4313 55.3418L59.8404 53.7508Z" fill="#FF6F11"/>
<path d="M65.25 43.875H63V46.125H65.25V43.875Z" fill="#FF6F11"/>
<path d="M59.841 33.0682L58.25 34.6592L59.841 36.2502L61.432 34.6592L59.841 33.0682Z" fill="#FF6F11"/>
</svg>
