<svg width="66" height="66" viewBox="0 0 66 66" fill="none" xmlns="http://www.w3.org/2000/svg">
<g clip-path="url(#clip0)">
<path d="M65.21 22.9712L16.6299 4.9731C16.0086 4.74348 15.3182 5.06122 15.0891 5.68309C15.0886 5.68359 15.0886 5.6841 15.0881 5.6846L9.71028 20.323C9.48167 20.9449 9.80041 21.6348 10.4223 21.8634H10.4233L16.0544 23.9309L14.8137 27.3112C14.5856 27.9331 14.9043 28.6219 15.5262 28.8505L26.7904 32.9861L25.9626 35.2394C25.2103 37.2576 25.9122 39.5296 27.6726 40.7708V46.8939H11.5281C10.7466 45.1073 9.14732 43.8102 7.23739 43.4144V40.8947C7.23739 40.232 6.70062 39.6948 6.03745 39.6948H1.19994C0.537278 39.6948 0 40.232 0 40.8947V60.0922C0 60.7554 0.537278 61.2921 1.19994 61.2921H6.03745C6.70062 61.2921 7.23739 60.7554 7.23739 60.0922V57.573C9.14732 57.1767 10.7466 55.8801 11.5281 54.093H27.6726V55.2929C27.6726 57.2809 29.2839 58.8928 31.2719 58.8928C33.2599 58.8928 34.8717 57.2809 34.8717 55.2929V42.001C35.9624 41.4602 36.8048 40.5221 37.2247 39.379L38.0526 37.1257L48.1898 40.8453C48.3223 40.8942 48.4618 40.9189 48.6028 40.9189C49.1058 40.9189 49.556 40.6052 49.7297 40.1328L50.1793 38.9077C54.0838 39.6424 57.8442 37.0728 58.5784 33.1689C58.8498 31.7262 58.6736 30.2352 58.0733 28.8958L65.347 25.1611C65.9366 24.8589 66.1698 24.1359 65.8677 23.5462C65.7307 23.2783 65.4981 23.0719 65.2161 22.9676L65.21 22.9712ZM30.072 41.864L31.0654 42.224C31.5176 42.3862 31.992 42.4793 32.4718 42.5V46.8939H30.072V41.864ZM4.83802 58.8928H2.39987V42.0946H4.83802V58.8928ZM9.63727 51.6936C9.63525 53.2184 8.6745 54.5774 7.23739 55.088V45.8994C8.6745 46.4095 9.63525 47.7685 9.63727 49.2938V51.6936ZM12.0744 49.2938H32.4718V51.6936H12.0744V49.2938ZM31.2719 56.4929C30.6092 56.4929 30.072 55.9556 30.072 55.2929V54.093H32.4718V55.2929C32.4718 55.9556 31.9345 56.4929 31.2719 56.4929ZM35.8002 36.2994L34.9724 38.5527C34.5152 39.7955 33.137 40.4329 31.8933 39.9767L29.6364 39.1499C28.3926 38.6932 27.7542 37.3145 28.2109 36.0703C28.2109 36.0703 28.2109 36.0703 28.2109 36.0698L29.0392 33.8179L35.121 36.0506L35.8002 36.2994ZM47.8913 38.1831L17.4794 27.0156L18.3077 24.7623L36.3284 31.3798C36.7549 31.5349 37.2333 31.4377 37.5651 31.1275L40.9323 27.9577L50.3727 31.4251L47.8913 38.1831ZM56.0038 33.4937C55.2434 35.5436 53.1986 36.8246 51.0228 36.6136L52.8768 31.5631L55.9051 30.0036C56.3789 31.1124 56.4142 32.3602 56.0038 33.4937ZM51.9538 29.345C51.8904 29.3505 51.8274 29.3616 51.7655 29.3782L41.0678 25.4501C40.6413 25.2935 40.1629 25.3907 39.8316 25.7019L36.4604 28.8722L12.3765 20.028L16.9255 7.64186L61.8192 24.2743L51.9538 29.345Z" fill="#FF6F11"/>
<path d="M22.2142 21.0832L23.041 18.8303L25.2938 19.6576L24.4665 21.9105L22.2142 21.0832Z" fill="#FF6F11"/>
<path d="M26.7194 22.7372L27.5462 20.4844L29.799 21.3117L28.9717 23.564L26.7194 22.7372Z" fill="#FF6F11"/>
<path d="M31.2245 24.3925L32.0519 22.1396L34.3042 22.967L33.4769 25.2198L31.2245 24.3925Z" fill="#FF6F11"/>
</g>
<defs>
<clipPath id="clip0">
<rect width="66" height="66" fill="white"/>
</clipPath>
</defs>
</svg>
