<svg width="56" height="56" viewBox="0 0 56 56" fill="none" xmlns="http://www.w3.org/2000/svg">
<g clip-path="url(#clip0)">
<path d="M0.123127 5.13324L3.85515 11.6636C3.91747 11.7728 4.00122 11.8683 4.10139 11.9443C4.20155 12.0203 4.31605 12.0753 4.43801 12.1059L7.91974 12.9759L19.8615 24.9173L21.1815 23.5965L9.05289 11.4708C8.93361 11.351 8.78397 11.266 8.62003 11.2248L5.27715 10.3857L2.09714 4.82553L4.82115 2.09817L10.3866 5.27895L11.2266 8.62172C11.2674 8.78589 11.3521 8.93584 11.4718 9.05542L23.6004 21.1837L24.9195 19.8646L12.9778 7.92488L12.1078 4.44497C12.0772 4.3229 12.0222 4.20828 11.9462 4.10798C11.8702 4.00768 11.7747 3.92376 11.6655 3.86127L5.13487 0.129365C4.9571 0.0287116 4.75121 -0.0107912 4.54882 0.0169267C4.34642 0.0446445 4.15873 0.13805 4.01458 0.28279L0.283413 4.01127C0.137173 4.15471 0.0422357 4.34232 0.0132652 4.54511C-0.0157054 4.7479 0.022903 4.95458 0.123127 5.13324Z" fill="#FF6F11"/>
<path d="M38.9102 18.3861L18.3858 38.9073L17.0667 37.5882L37.5919 17.0645L38.9102 18.3861Z" fill="#FF6F11"/>
<path d="M14.7935 39.6367C14.7106 39.4986 14.5934 39.3843 14.4532 39.305C14.3131 39.2257 14.1548 39.1841 13.9938 39.1841H8.3966C8.23555 39.184 8.07723 39.2256 7.93707 39.3049C7.79691 39.3842 7.6797 39.4985 7.59688 39.6367L4.7983 44.3011C4.7111 44.4462 4.66502 44.6123 4.66502 44.7815C4.66502 44.9508 4.7111 45.1169 4.7983 45.2619L7.59688 49.9264C7.67977 50.0645 7.79699 50.1787 7.93713 50.258C8.07728 50.3373 8.23557 50.379 8.3966 50.3789H13.9938C14.1548 50.3789 14.313 50.3372 14.4532 50.2579C14.5933 50.1786 14.7105 50.0644 14.7935 49.9264L17.5921 45.2619C17.6793 45.1169 17.7254 44.9508 17.7254 44.7815C17.7254 44.6123 17.6793 44.4462 17.5921 44.3011L14.7935 39.6367ZM13.4658 48.513H8.92289L6.68402 44.7819L8.92289 41.05H13.4658L15.7046 44.7819L13.4658 48.513Z" fill="#FF6F11"/>
<path d="M44.7814 22.3917C46.4834 22.3975 48.1641 22.0139 49.695 21.2702C51.2259 20.5265 52.5663 19.4424 53.6137 18.1009C54.6611 16.7594 55.3876 15.196 55.7378 13.5305C56.0879 11.865 56.0523 10.1414 55.6337 8.49175C55.5939 8.33152 55.5122 8.18474 55.3971 8.06641C55.2819 7.94808 55.1374 7.86244 54.9783 7.81825C54.8192 7.77405 54.6513 7.77288 54.4916 7.81487C54.3319 7.85685 54.1862 7.94047 54.0694 8.05719L48.2614 13.8599L43.6517 12.3248L42.1174 7.71435L47.9245 1.90564C48.0405 1.78853 48.1235 1.64279 48.1649 1.48324C48.2063 1.32368 48.2047 1.15601 48.1603 0.997266C48.1159 0.838522 48.0302 0.69437 47.912 0.579468C47.7938 0.464567 47.6473 0.383015 47.4874 0.343105C45.8375 -0.0747628 44.114 -0.10979 42.4485 0.240704C40.7831 0.591197 39.2198 1.31793 37.8783 2.36531C36.5369 3.41269 35.4527 4.75299 34.7088 6.28369C33.9649 7.81439 33.5809 9.49494 33.5862 11.1968C33.5884 11.9312 33.6645 12.6634 33.8133 13.3825L13.3815 33.8137C12.6623 33.6652 11.9301 33.5892 11.1958 33.5865C8.98176 33.5872 6.81765 34.2443 4.97708 35.4748C3.13651 36.7053 1.70212 38.4539 0.855285 40.4995C0.00844723 42.5451 -0.212816 44.7959 0.219471 46.9672C0.651758 49.1385 1.71818 51.1329 3.28391 52.6983C4.84964 54.2636 6.84436 55.3295 9.01586 55.7613C11.1874 56.1931 13.4381 55.9713 15.4836 55.124C17.5291 54.2767 19.2774 52.842 20.5075 51.0012C21.7376 49.1604 22.3942 46.9962 22.3944 44.7823C22.392 44.0479 22.3159 43.3157 22.1673 42.5966L27.059 37.705L29.2019 39.8478C29.3769 40.0226 29.6141 40.1207 29.8614 40.1207C30.1088 40.1207 30.346 40.0226 30.521 39.8478L30.9873 39.3815C31.1852 39.1946 31.4481 39.0921 31.7203 39.0958C31.9925 39.0995 32.2525 39.2091 32.4452 39.4014C32.6379 39.5936 32.7481 39.8534 32.7525 40.1256C32.7568 40.3978 32.6549 40.6609 32.4685 40.8592L32.0022 41.3255C31.9155 41.4121 31.8468 41.5149 31.7999 41.6281C31.753 41.7412 31.7289 41.8625 31.7289 41.985C31.7289 42.1075 31.753 42.2288 31.7999 42.342C31.8468 42.4552 31.9155 42.558 32.0022 42.6446L43.1228 53.7709C43.816 54.4858 44.6441 55.056 45.5591 55.4487C46.4742 55.8414 47.4581 56.0488 48.4538 56.0587C49.4495 56.0686 50.4373 55.8809 51.36 55.5065C52.2827 55.1322 53.122 54.5785 53.8293 53.8776C54.5366 53.1767 55.0978 52.3424 55.4805 51.4232C55.8632 50.5039 56.0598 49.5178 56.0589 48.5221C56.0579 47.5264 55.8595 46.5407 55.475 45.6221C55.0906 44.7036 54.5278 43.8704 53.8191 43.1709L53.7711 43.1229L42.6419 31.994C42.5553 31.9074 42.4525 31.8386 42.3393 31.7918C42.2262 31.7449 42.1049 31.7207 41.9824 31.7207C41.8599 31.7207 41.7386 31.7449 41.6254 31.7918C41.5122 31.8386 41.4094 31.9074 41.3228 31.994L40.8565 32.4603C40.6594 32.6513 40.3952 32.7572 40.1207 32.7553C39.8462 32.7533 39.5835 32.6436 39.3892 32.4499C39.1948 32.2561 39.0844 31.9937 39.0816 31.7192C39.0789 31.4448 39.184 31.1802 39.3745 30.9826L39.8408 30.5163C39.9274 30.4297 39.9961 30.3269 40.043 30.2137C40.0899 30.1006 40.1141 29.9793 40.1141 29.8568C40.1141 29.7343 40.0899 29.613 40.043 29.4998C39.9961 29.3866 39.9274 29.2838 39.8408 29.1972L37.6979 27.0544L42.5896 22.1628C43.3088 22.3115 44.041 22.3876 44.7754 22.39L44.7814 22.3917ZM48.4465 54.1112C47.7688 54.1102 47.0967 53.9877 46.4622 53.7495L53.748 46.4639C54.0701 47.3205 54.1796 48.2424 54.0671 49.1505C53.9546 50.0587 53.6234 50.926 53.102 51.678C52.5806 52.4301 51.8846 53.0444 51.0736 53.4684C50.2626 53.8923 49.3608 54.1132 48.4457 54.112L48.4465 54.1112ZM37.8779 29.8649C37.4187 30.4244 37.1842 31.1348 37.22 31.8577C37.2558 32.5806 37.5593 33.2643 38.0715 33.7758C38.5837 34.2872 39.2679 34.5897 39.9909 34.6245C40.7139 34.6592 41.4239 34.4236 41.9828 33.9637L52.452 44.442C52.566 44.556 52.6723 44.676 52.7751 44.7985L44.7985 52.7749C44.6759 52.6721 44.5559 52.5658 44.4419 52.4518L33.9659 41.9735C34.4261 41.4141 34.6614 40.7034 34.6261 39.9799C34.5907 39.2564 34.2872 38.572 33.7747 38.0602C33.2621 37.5483 32.5774 37.2457 31.8538 37.2112C31.1303 37.1768 30.4198 37.413 29.861 37.8739L28.3687 36.3816L36.3873 28.3752L37.8779 29.8649ZM41.6494 20.482L20.4813 41.6409C20.3673 41.7549 20.2847 41.8964 20.2416 42.0517C20.1985 42.207 20.1963 42.3708 20.2353 42.5272C20.7426 44.5209 20.5813 46.6261 19.776 48.5193C18.9707 50.4124 17.566 51.9888 15.7778 53.0061C13.9896 54.0235 11.9168 54.4255 9.87792 54.1505C7.83903 53.8754 5.94686 52.9385 4.49218 51.4837C3.0375 50.0288 2.10078 48.1366 1.82597 46.0977C1.55117 44.0589 1.95347 41.9862 2.97107 40.1982C3.98867 38.4101 5.56526 37.0057 7.45858 36.2007C9.35189 35.3957 11.4572 35.2346 13.4509 35.7422C13.6073 35.7804 13.7708 35.7779 13.926 35.735C14.0811 35.6921 14.2227 35.6102 14.3372 35.4971L35.4959 14.3373C35.6099 14.2234 35.6923 14.0818 35.7353 13.9265C35.7783 13.7712 35.7802 13.6074 35.741 13.4511C35.3785 12.0331 35.3564 10.5494 35.6765 9.12126C35.9966 7.69308 36.6498 6.36083 37.5829 5.2332C38.516 4.10558 39.7025 3.21456 41.0456 2.63283C42.3887 2.05111 43.8503 1.79518 45.3111 1.88592L40.3902 6.8058C40.2677 6.92816 40.1817 7.08224 40.1419 7.25074C40.1021 7.41925 40.11 7.59552 40.1648 7.75977L42.0308 13.3576C42.0767 13.495 42.154 13.6198 42.2565 13.7222C42.359 13.8245 42.4839 13.9016 42.6214 13.9473L48.2194 15.8133C48.3836 15.8681 48.5598 15.8761 48.7283 15.8364C48.8968 15.7968 49.0509 15.711 49.1734 15.5887L54.0951 10.668C54.1063 10.8463 54.1123 11.022 54.1123 11.1977C54.1196 12.6167 53.8014 14.0186 53.1822 15.2954C52.563 16.5723 51.6592 17.6901 50.5403 18.563C49.4214 19.4359 48.1173 20.0406 46.7281 20.3307C45.3389 20.6207 43.9018 20.5883 42.5271 20.236C42.3708 20.1969 42.207 20.1989 42.0517 20.2419C41.8963 20.2848 41.7548 20.3673 41.6408 20.4812H41.6459L41.6494 20.482Z" fill="#FF6F11"/>
<path d="M48.2402 46.9205L46.9211 48.2396L37.5911 38.9107L38.9102 37.5916L48.2402 46.9205Z" fill="#FF6F11"/>
</g>
<defs>
<clipPath id="clip0">
<rect width="56" height="56" fill="white"/>
</clipPath>
</defs>
</svg>
