<svg width="67" height="71" viewBox="0 0 67 71" fill="none" xmlns="http://www.w3.org/2000/svg">
<path d="M53.761 68.6578L50.3095 58.4721C50.1202 57.9132 49.5958 57.5373 49.0058 57.5373H48.8056V37.5769C48.8056 27.9379 40.9637 20.0959 31.3246 20.0959C21.6855 20.0959 13.8437 27.9378 13.8437 37.5769V57.5373H13.6434C13.0534 57.5373 12.529 57.9132 12.3397 58.4721L8.88832 68.6578C8.74585 69.078 8.81481 69.5409 9.07332 69.9016C9.33182 70.2621 9.74821 70.476 10.192 70.476H52.4574C52.9011 70.476 53.3175 70.2621 53.576 69.9016C53.8345 69.5409 53.9035 69.078 53.761 68.6578ZM16.5966 37.577C16.5966 29.456 23.2036 22.8491 31.3246 22.8491C39.4456 22.8491 46.0526 29.456 46.0526 37.577V57.5374H16.5966V37.577ZM12.1118 67.7232L14.6303 60.2904H48.0188L50.5374 67.7232H12.1118Z" fill="#FF6F11"/>
<path d="M31.3246 0C30.5645 0 29.9481 0.61639 29.9481 1.37648V9.63526C29.9481 10.3954 30.5644 11.0117 31.3246 11.0117C32.0847 11.0117 32.7011 10.3954 32.7011 9.63526V1.37648C32.7011 0.61639 32.0847 0 31.3246 0Z" fill="#FF6F11"/>
<path d="M32.2976 14.024C32.0418 13.768 31.6866 13.6221 31.3246 13.6221C30.9626 13.6221 30.6075 13.768 30.3514 14.024C30.0954 14.2814 29.9481 14.635 29.9481 14.9986C29.9481 15.3606 30.0953 15.7143 30.3514 15.9717C30.6075 16.2276 30.9626 16.3737 31.3246 16.3737C31.6866 16.3737 32.0418 16.2276 32.2976 15.9717C32.5537 15.7143 32.7011 15.3606 32.7011 14.9986C32.7011 14.635 32.5538 14.2814 32.2976 14.024Z" fill="#FF6F11"/>
<path d="M9.23256 36.843H2.91216C2.15206 36.843 1.53568 37.4594 1.53568 38.2195C1.53568 38.9796 2.15206 39.596 2.91216 39.596H9.2327C9.9928 39.596 10.6092 38.9796 10.6092 38.2195C10.6092 37.4594 9.99266 36.843 9.23256 36.843Z" fill="#FF6F11"/>
<path d="M22.0571 12.2491L20.1914 7.74509C19.9004 7.0428 19.0953 6.70983 18.3929 7.00013C17.6905 7.29112 17.3571 8.09637 17.648 8.79865L19.5137 13.3026C19.7333 13.8327 20.2458 14.1528 20.7859 14.1528C20.9614 14.1528 21.1398 14.1189 21.3122 14.0476C22.0146 13.7565 22.348 12.9512 22.0571 12.2491Z" fill="#FF6F11"/>
<path d="M6.40761 26.4085L1.90362 24.5428C1.20106 24.2526 0.39609 24.5856 0.105101 25.2877C-0.18575 25.9902 0.147772 26.7953 0.850054 27.0863L5.35405 28.9519C5.52639 29.0231 5.70478 29.0571 5.88028 29.0571C6.42041 29.0571 6.93288 28.7371 7.15257 28.207C7.44342 27.5046 7.10989 26.6995 6.40761 26.4085Z" fill="#FF6F11"/>
<path d="M60.3106 36.843H53.99C53.2299 36.843 52.6136 37.4594 52.6136 38.2195C52.6136 38.9796 53.2299 39.596 53.99 39.596H60.3106C61.0707 39.596 61.6871 38.9796 61.6871 38.2195C61.6871 37.4594 61.0707 36.843 60.3106 36.843Z" fill="#FF6F11"/>
<path d="M66.1582 37.2463C65.9023 36.9903 65.5472 36.843 65.1852 36.843C64.8232 36.843 64.468 36.9902 64.212 37.2463C63.956 37.5025 63.8087 37.8575 63.8087 38.2195C63.8087 38.5815 63.9558 38.9367 64.212 39.1925C64.468 39.4486 64.8232 39.596 65.1852 39.596C65.5472 39.596 65.9023 39.4487 66.1582 39.1925C66.4142 38.9367 66.5617 38.5815 66.5617 38.2195C66.5617 37.8575 66.4144 37.5024 66.1582 37.2463Z" fill="#FF6F11"/>
<path d="M58.5443 10.9992C58.0066 10.4618 57.1353 10.4618 56.5975 10.9992L49.8248 17.7721C49.2873 18.3096 49.2873 19.1812 49.8248 19.7188C50.0938 19.9877 50.446 20.122 50.7983 20.122C51.1507 20.122 51.5028 19.9875 51.7716 19.7188L58.5443 12.946C59.0817 12.4085 59.0817 11.5369 58.5443 10.9992Z" fill="#FF6F11"/>
<path d="M12.8241 17.7723L6.05135 10.9997C5.51369 10.4623 4.64238 10.4623 4.10458 10.9997C3.56707 11.5372 3.56707 12.4088 4.10458 12.9465L10.8774 19.7192C11.1463 19.9879 11.4985 20.1224 11.8508 20.1224C12.203 20.1224 12.5552 19.9879 12.8241 19.7192C13.3616 19.1815 13.3616 18.31 12.8241 17.7723Z" fill="#FF6F11"/>
<path d="M44.256 7.00006C43.5535 6.70989 42.7484 7.04287 42.4575 7.74501L40.5918 12.249C40.3009 12.9513 40.6344 13.7564 41.3367 14.0475C41.5091 14.1188 41.6874 14.1527 41.8629 14.1527C42.4031 14.1527 42.9155 13.8327 43.1352 13.3026L45.0009 8.79857C45.2918 8.09601 44.9583 7.29105 44.256 7.00006Z" fill="#FF6F11"/>
<path d="M62.544 25.2879C62.253 24.5855 61.4479 24.2525 60.7455 24.5429L56.2415 26.4086C55.539 26.6996 55.2057 27.5049 55.4965 28.2071C55.7162 28.7372 56.2287 29.0573 56.7688 29.0573C56.9443 29.0573 57.1227 29.0234 57.295 28.9521L61.799 27.0864C62.5014 26.7954 62.8348 25.9902 62.544 25.2879Z" fill="#FF6F11"/>
<path d="M31.3246 28.7695C29.0476 28.7695 27.1953 30.622 27.1953 32.8988V39.5058C27.1953 41.7828 29.0478 43.6352 31.3246 43.6352C33.6014 43.6352 35.4539 41.7827 35.4539 39.5058V32.8988C35.4539 30.622 33.6016 28.7695 31.3246 28.7695ZM32.7011 39.5058C32.7011 40.2648 32.0836 40.8823 31.3246 40.8823C30.5656 40.8823 29.9481 40.2648 29.9481 39.5058V32.8988C29.9481 32.1399 30.5656 31.5224 31.3246 31.5224C32.0836 31.5224 32.7011 32.1399 32.7011 32.8988V39.5058Z" fill="#FF6F11"/>
<path d="M31.3246 46.3882C29.0476 46.3882 27.1953 48.2407 27.1953 50.5175C27.1953 52.7945 29.0478 54.6468 31.3246 54.6468C33.6014 54.6468 35.4539 52.7943 35.4539 50.5175C35.4539 48.2405 33.6016 46.3882 31.3246 46.3882ZM31.3246 51.894C30.5656 51.894 29.9481 51.2765 29.9481 50.5175C29.9481 49.7585 30.5656 49.141 31.3246 49.141C32.0836 49.141 32.7011 49.7585 32.7011 50.5175C32.7011 51.2765 32.0836 51.894 31.3246 51.894Z" fill="#FF6F11"/>
</svg>
