<svg width="60" height="60" viewBox="0 0 60 60" fill="none" xmlns="http://www.w3.org/2000/svg">
<path d="M5.80646 19.3547H9.67743V21.2902H5.80646V19.3547Z" fill="#FF6F11"/>
<path d="M57.0968 15.4839C58.6972 15.4839 60 14.1811 60 12.5806V2.90323C60 1.30277 58.6972 0 57.0968 0H43.5484C41.9479 0 40.6452 1.30277 40.6452 2.90323V12.5806C40.6452 14.1811 41.9479 15.4839 43.5484 15.4839H46.4516V17.4194H44.5161V19.3548H49.3548V29.0323H45.361C44.5889 28.2786 43.6382 27.7016 42.574 27.3841C42.5788 27.2863 42.5806 27.1918 42.5806 27.0968C42.5806 22.8279 39.1075 19.3548 34.8387 19.3548C32.1902 19.3548 29.7283 20.7327 28.3183 22.9366C27.325 22.4905 26.2509 22.2581 25.1613 22.2581C21.9495 22.2581 19.0576 24.2824 17.9264 27.2518C17.1911 27.4096 16.506 27.6922 15.8836 28.0645H8.70968V25.1613H12.5806C14.1811 25.1613 15.4839 23.8585 15.4839 22.2581V2.90323C15.4839 1.30277 14.1811 0 12.5806 0H2.90323C1.30277 0 0 1.30277 0 2.90323V22.2581C0 23.8585 1.30277 25.1613 2.90323 25.1613H6.77419V30H13.8253C13.4137 30.5874 13.0943 31.2357 12.8845 31.9355H8.70968V42.5806H4.83871C3.23825 42.5806 1.93548 43.8834 1.93548 45.4839V54.1935H0V57.0968C0 58.6972 1.30277 60 2.90323 60H18.3871C19.9876 60 21.2903 58.6972 21.2903 57.0968V54.1935H19.3548V45.4839C19.3548 43.8834 18.0521 42.5806 16.4516 42.5806H10.6452V33.871H12.5806C12.5806 37.6054 15.6204 40.6452 19.3548 40.6452H40.6452C44.0507 40.6452 46.8698 38.1157 47.3419 34.8387H51.2903V42.5806H44.5161V60H60V42.5806H53.2258V32.9032H47.3381C47.2374 32.2218 47.0286 31.5735 46.7361 30.9677H51.2903V19.3548H56.129V17.4194H54.1935V15.4839H57.0968ZM13.5484 15.4839H1.93548V5.80645H13.5484V15.4839ZM2.90323 1.93548H12.5806C13.1146 1.93548 13.5484 2.36927 13.5484 2.90323V3.87097H1.93548V2.90323C1.93548 2.36927 2.36927 1.93548 2.90323 1.93548ZM1.93548 22.2581V17.4194H13.5484V22.2581C13.5484 22.792 13.1146 23.2258 12.5806 23.2258H2.90323C2.36927 23.2258 1.93548 22.792 1.93548 22.2581ZM19.3548 57.0968C19.3548 57.6307 18.9211 58.0645 18.3871 58.0645H2.90323C2.36927 58.0645 1.93548 57.6307 1.93548 57.0968V56.129H19.3548V57.0968ZM17.4194 45.4839V54.1935H3.87097V45.4839C3.87097 44.9499 4.30475 44.5161 4.83871 44.5161H16.4516C16.9856 44.5161 17.4194 44.9499 17.4194 45.4839ZM46.4516 58.0645V52.2581H58.0645V58.0645H46.4516ZM58.0645 50.3226H46.4516V44.5161H58.0645V50.3226ZM40.6452 38.7097H19.3548C16.6869 38.7097 14.5161 36.5389 14.5161 33.871C14.5161 31.4247 16.3472 29.3611 18.7741 29.071L19.4092 28.9945L19.5883 28.3802C20.3042 25.915 22.5969 24.1935 25.1613 24.1935C26.2297 24.1935 27.2787 24.4936 28.1982 25.0597L29.122 25.6296L29.5828 24.6453C30.5354 22.6063 32.5984 21.2903 34.8387 21.2903C38.041 21.2903 40.6452 23.8944 40.6452 27.0968C40.6452 27.3638 40.6211 27.6482 40.5686 27.9917L40.4226 28.9491L41.3795 29.0942C43.7194 29.4514 45.4839 31.505 45.4839 33.871C45.4839 36.5389 43.3131 38.7097 40.6452 38.7097ZM43.5484 1.93548H57.0968C57.6307 1.93548 58.0645 2.36927 58.0645 2.90323V9.67742H42.5806V2.90323C42.5806 2.36927 43.0144 1.93548 43.5484 1.93548ZM42.5806 12.5806V11.6129H58.0645V12.5806C58.0645 13.1146 57.6307 13.5484 57.0968 13.5484H43.5484C43.0144 13.5484 42.5806 13.1146 42.5806 12.5806ZM52.2581 17.4194H48.3871V15.4839H52.2581V17.4194Z" fill="#FF6F11"/>
<path d="M48.3871 46.4517H50.3226V48.3871H48.3871V46.4517Z" fill="#FF6F11"/>
<path d="M54.1935 54.1936H56.129V56.1291H54.1935V54.1936Z" fill="#FF6F11"/>
<path d="M52.2581 46.4517H56.129V48.3871H52.2581V46.4517Z" fill="#FF6F11"/>
<path d="M48.3871 54.1936H52.2581V56.1291H48.3871V54.1936Z" fill="#FF6F11"/>
</svg>
