<svg width="60" height="60" viewBox="0 0 60 60" fill="none" xmlns="http://www.w3.org/2000/svg">
<path d="M30.0004 4.00195C26.6874 4.00195 24.0017 6.68764 24.0017 10.0006C24.0017 13.3136 26.6874 15.9993 30.0004 15.9993C33.3133 15.9993 35.999 13.3136 35.999 10.0006C35.999 6.68764 33.3133 4.00195 30.0004 4.00195ZM30.0004 13.9997C27.7917 13.9997 26.0013 12.2093 26.0013 10.0006C26.0013 7.79197 27.7917 6.00151 30.0004 6.00151C32.209 6.00151 33.9995 7.79197 33.9995 10.0006C33.9995 11.0612 33.5782 12.0784 32.8282 12.8284C32.0782 13.5784 31.061 13.9997 30.0004 13.9997Z" fill="#FF6F11"/>
<path d="M33.9995 44.9927H32.9997V43.993C32.9997 42.8886 32.1045 41.9934 31.0002 41.9934H29.0006C27.8963 41.9934 27.0011 42.8886 27.0011 43.993V44.9927H26.0013C24.897 44.9927 24.0017 45.888 24.0017 46.9923V48.9918C24.0017 50.0962 24.897 50.9914 26.0013 50.9914H27.0011V51.9912C27.0011 53.0955 27.8963 53.9907 29.0006 53.9907H31.0002C32.1045 53.9907 32.9997 53.0955 32.9997 51.9912V50.9914H33.9995C35.1038 50.9914 35.999 50.0962 35.999 48.9918V46.9923C35.999 45.888 35.1038 44.9927 33.9995 44.9927ZM33.9995 48.9918H31.9999C31.4478 48.9918 31.0002 49.4395 31.0002 49.9916V51.9912H29.0006V49.9916C29.0006 49.4395 28.553 48.9918 28.0008 48.9918H26.0013V46.9923H28.0008C28.553 46.9923 29.0006 46.5447 29.0006 45.9925V43.993H31.0002V45.9925C31.0002 46.5447 31.4478 46.9923 31.9999 46.9923H33.9995V48.9918Z" fill="#FF6F11"/>
<path d="M56.9943 12.9999C57.9941 12.9999 58.444 12.37 59.3938 11.4203C59.7724 11.0448 59.9853 10.5337 59.9853 10.0006C59.9853 9.46741 59.7724 8.95634 59.3938 8.58089L58.394 7.58111C58.0216 7.21171 57.5189 7.00345 56.9943 7.00124H39.5383C38.0583 2.29182 33.3625 -0.632466 28.4832 0.116664C23.6039 0.865794 20.0017 5.06407 20.0026 10.0006V29.2763L19.0528 28.2765L18.8329 26.3569C18.7272 25.4324 17.9978 24.703 17.0733 24.5973L15.6036 24.4273L15.4337 22.9977C15.328 22.0731 14.5986 21.3437 13.674 21.2381L12.2044 21.0681L12.0044 19.6184C11.9013 18.6834 11.1604 17.9466 10.2248 17.8488L8.77514 17.6889L8.61518 16.2392C8.51388 15.3108 7.78339 14.5761 6.85557 14.4696L5.42589 14.2996L5.32591 13.2998C5.19203 12.3257 4.53345 11.504 3.61182 11.1613C2.69019 10.8186 1.65475 11.0102 0.9169 11.6602C0.357677 12.1398 0.0272189 12.8334 0.00710419 13.5698C-0.089287 17.3088 0.796662 21.0077 2.57653 24.2974C5.23593 29.1763 4.64607 28.0465 20.0026 43.4031V43.993H13.0042C11.8999 43.993 11.0046 44.8882 11.0046 45.9925H7.00554C7.00554 44.8882 6.11031 43.993 5.00599 43.993H2.00666C0.902334 43.993 0.00710419 44.8882 0.00710419 45.9925C0.00710419 49.3055 2.69279 51.9912 6.00576 51.9912H20.2026C21.2247 57.0248 25.8948 60.465 31.0052 59.9488C36.1155 59.4326 40.0033 55.128 39.9982 49.9916V30.0661L46.3567 36.4347C49.071 39.1443 52.2959 41.2886 55.8446 42.7432C56.9587 43.1892 58.2315 42.9281 59.08 42.0795C59.9286 41.231 60.1897 39.9582 59.7437 38.8441C58.2891 35.2954 56.1448 32.0705 53.4351 29.3562L39.9982 15.9292V12.9999H56.9943ZM56.9943 9.00079L57.9941 10.0006L56.9943 11.0003H39.9982C40.0323 10.3343 40.0323 9.66687 39.9982 9.00079H56.9943ZM4.33613 23.3476C2.71894 20.3658 1.9155 17.0107 2.00666 13.6198C2.04792 13.2839 2.33315 13.0316 2.67151 13.0316C3.00987 13.0316 3.2951 13.2839 3.33636 13.6198L3.43634 14.5596C3.56004 15.4718 4.29056 16.1817 5.20594 16.2792L6.67561 16.4591L6.83558 17.9088C6.93866 18.8438 7.67957 19.5806 8.61518 19.6784L10.0649 19.8384L10.2248 21.298C10.3279 22.2331 11.0688 22.9698 12.0044 23.0676L13.4741 23.2276L13.6441 24.7173C13.7583 25.634 14.4857 26.3531 15.4037 26.4569L16.8733 26.6268L17.1333 28.8963C17.1833 29.3762 17.2033 29.2763 20.0226 32.0956V40.5837C6.08574 26.6568 6.7356 27.7666 4.33613 23.3476ZM6.00576 49.9916C3.79712 49.9916 2.00666 48.2012 2.00666 45.9925H5.00599C5.00599 47.0968 5.90122 47.9921 7.00554 47.9921H11.0046C12.109 47.9921 13.0042 47.0968 13.0042 45.9925H20.0026V49.9916H6.00576ZM37.9986 49.9916C37.9986 54.4089 34.4177 57.9898 30.0004 57.9898C25.5831 57.9898 22.0022 54.4089 22.0022 49.9916V10.0006C22.0022 5.58328 25.5831 2.00236 30.0004 2.00236C34.4177 2.00236 37.9986 5.58328 37.9986 10.0006V49.9916ZM51.9955 30.7759C54.4617 33.2375 56.4215 36.1586 57.7642 39.374L42.7675 24.3774C42.5232 24.092 42.1396 23.9678 41.7743 24.0556C41.4091 24.1435 41.124 24.4286 41.0361 24.7938C40.9483 25.1591 41.0725 25.5427 41.3578 25.787L56.3545 40.7837C53.1452 39.4317 50.2311 37.4652 47.7764 34.995L39.9982 27.2467V18.7486L51.9955 30.7759Z" fill="#FF6F11"/>
<path d="M25.0015 20.9981C25.5537 20.9981 26.0013 20.5505 26.0013 19.9984V17.9988C26.0013 17.4466 25.5537 16.999 25.0015 16.999C24.4493 16.999 24.0017 17.4466 24.0017 17.9988V19.9984C24.0017 20.5505 24.4493 20.9981 25.0015 20.9981Z" fill="#FF6F11"/>
<path d="M25.0015 40.9935C25.5537 40.9935 26.0013 40.5459 26.0013 39.9938V23.9973C26.0013 23.4452 25.5537 22.9976 25.0015 22.9976C24.4493 22.9976 24.0017 23.4452 24.0017 23.9973V39.9938C24.0017 40.5459 24.4493 40.9935 25.0015 40.9935Z" fill="#FF6F11"/>
</svg>
