<svg width="60" height="56" viewBox="0 0 60 56" fill="none" xmlns="http://www.w3.org/2000/svg">
<path d="M59.7069 21.7073C59.7999 21.6146 59.8737 21.5043 59.9241 21.3829C59.9744 21.2615 60.0002 21.1314 60 21C59.9942 18.1881 59.0824 15.453 57.4 13.2L56.8 12.4C56.7068 12.2758 56.5861 12.175 56.4472 12.1056C56.3084 12.0361 56.1552 12 56 12C55.8448 12 55.6916 12.0361 55.5528 12.1056C55.4139 12.175 55.2932 12.2758 55.2 12.4L54.6 13.2C52.9176 15.453 52.0058 18.1881 52 21C51.9998 21.1314 52.0256 21.2615 52.0759 21.3829C52.1263 21.5043 52.2001 21.6146 52.2931 21.7073C52.5899 22.0042 52.7755 22.3941 52.8187 22.8115C52.8619 23.229 52.7602 23.6487 52.5306 24H33.4694C33.2398 23.6487 33.1381 23.229 33.1813 22.8115C33.2245 22.3941 33.4101 22.0042 33.7069 21.7073C33.7999 21.6146 33.8737 21.5043 33.9241 21.3829C33.9744 21.2615 34.0002 21.1314 34 21C33.9942 18.1881 33.0824 15.453 31.4 13.2L30.8 12.4C30.7068 12.2758 30.5861 12.175 30.4472 12.1056C30.3084 12.0361 30.1552 12 30 12C29.8448 12 29.6916 12.0361 29.5528 12.1056C29.4139 12.175 29.2932 12.2758 29.2 12.4L28.6 13.2C26.9176 15.453 26.0058 18.1881 26 21C25.9998 21.1314 26.0256 21.2615 26.0759 21.3829C26.1263 21.5043 26.2001 21.6146 26.2931 21.7073C26.5899 22.0042 26.7755 22.3941 26.8187 22.8115C26.8619 23.229 26.7602 23.6487 26.5306 24H7.46939C7.23978 23.6487 7.13806 23.229 7.1813 22.8115C7.22454 22.3941 7.41012 22.0042 7.70686 21.7073C7.79994 21.6146 7.87375 21.5043 7.92406 21.3829C7.97436 21.2615 8.00017 21.1314 8 21C7.99416 18.1881 7.08243 15.453 5.39996 13.2L4.79999 12.4C4.70685 12.2758 4.58607 12.175 4.44721 12.1056C4.30836 12.0361 4.15525 12 4 12C3.84475 12 3.69164 12.0361 3.55279 12.1056C3.41393 12.175 3.29315 12.2758 3.20001 12.4L2.60004 13.2C0.917573 15.453 0.00584471 18.1881 8.56295e-07 21C-0.000171373 21.1314 0.0256387 21.2615 0.0759462 21.3829C0.126254 21.5043 0.200066 21.6146 0.293137 21.7073C0.635887 22.0502 0.828431 22.5152 0.828431 23C0.828431 23.4848 0.635887 23.9498 0.293137 24.2927C0.200066 24.3854 0.126254 24.4957 0.0759462 24.6171C0.0256387 24.7385 -0.000171373 24.8686 8.56295e-07 25V55C-2.9194e-06 55.1313 0.0258602 55.2614 0.0761136 55.3827C0.126367 55.504 0.200026 55.6143 0.292886 55.7071C0.385745 55.8 0.495986 55.8736 0.617313 55.9239C0.73864 55.9741 0.868678 56 1 56H59C59.1313 56 59.2614 55.9741 59.3827 55.9239C59.504 55.8736 59.6143 55.8 59.7071 55.7071C59.8 55.6143 59.8736 55.504 59.9239 55.3827C59.9741 55.2614 60 55.1313 60 55V25C60.0002 24.8686 59.9744 24.7385 59.9241 24.6171C59.8737 24.4957 59.7999 24.3854 59.7069 24.2927C59.3641 23.9498 59.1716 23.4848 59.1716 23C59.1716 22.5152 59.3641 22.0502 59.7069 21.7073ZM56 14.6757C57.1017 16.2511 57.7749 18.0859 57.9536 20H54.0464C54.2251 18.0859 54.8983 16.2511 56 14.6757ZM57.3064 22C57.1305 22.6551 57.1305 23.3449 57.3064 24H54.6936C54.8695 23.3449 54.8695 22.6551 54.6936 22H57.3064ZM46 33V26H48V33H46ZM44 33H42V26H44V33ZM40 33H38V26H40V33ZM36 33H34V26H36V33ZM34 35H52V54H34V35ZM50 33V26H52V33H50ZM31.3064 24H28.6936C28.8695 23.3449 28.8695 22.6551 28.6936 22H31.3064C31.1305 22.6551 31.1305 23.3449 31.3064 24ZM30 14.6757C31.1017 16.2511 31.7749 18.0859 31.9536 20H28.0464C28.2251 18.0859 28.8983 16.2511 30 14.6757ZM20 33V26H22V33H20ZM18 33H16V26H18V33ZM14 33H12V26H14V33ZM10 33H8V26H10V33ZM8 35H26V54H8V35ZM24 33V26H26V33H24ZM5.3064 24H2.6936C2.86954 23.3449 2.86954 22.6551 2.6936 22H5.3064C5.13046 22.6551 5.13046 23.3449 5.3064 24ZM4 14.6757C5.10168 16.2511 5.7749 18.0859 5.95361 20H2.04639C2.2251 18.0859 2.89832 16.2511 4 14.6757ZM6 54H2V26H6V54ZM32 54H28V26H32V54ZM58 54H54V26H58V54Z" fill="#FF6F11"/>
<path d="M26.4645 9.46439L27.8787 10.8786C28.4417 10.3168 29.2046 10.0013 30 10.0013C30.7954 10.0013 31.5583 10.3168 32.1213 10.8786L33.5355 9.46439C32.5971 8.52805 31.3256 8.0022 30 8.0022C28.6744 8.0022 27.4029 8.52805 26.4645 9.46439Z" fill="#FF6F11"/>
<path d="M36.364 6.63602C34.6748 4.95066 32.3861 4.00415 30 4.00415C27.6139 4.00415 25.3252 4.95066 23.636 6.63602L25.0502 8.0502C26.364 6.73941 28.1441 6.00327 30 6.00327C31.8559 6.00327 33.636 6.73941 34.9498 8.0502L36.364 6.63602Z" fill="#FF6F11"/>
<path d="M39.1924 3.80762C37.9852 2.60045 36.5521 1.64288 34.9749 0.989568C33.3977 0.336256 31.7072 0 30 0C28.2928 0 26.6023 0.336256 25.0251 0.989568C23.4479 1.64288 22.0148 2.60045 20.8076 3.80762L22.2218 5.2218C24.2847 3.15891 27.0826 2 30 2C32.9174 2 35.7153 3.15891 37.7782 5.2218L39.1924 3.80762Z" fill="#FF6F11"/>
</svg>
